<svg xmlns="http://www.w3.org/2000/svg" xmlns:xlink="http://www.w3.org/1999/xlink" viewBox="0 0 2782.37 2800"><defs><style>.cls-1{opacity:0.35;fill:url(#linear-gradient);}.cls-2{fill:url(#linear-gradient-2);}.cls-3,.cls-8{fill:#91b3fa;}.cls-3{opacity:0.21;}.cls-4{fill:url(#linear-gradient-3);}.cls-5{fill:#7d97f4;}.cls-11,.cls-6,.cls-9{fill:#fff;}.cls-7{fill:url(#linear-gradient-4);}.cls-10,.cls-9{opacity:0.51;}.cls-11{opacity:0.7;}.cls-12{fill:url(#linear-gradient-5);}.cls-13{fill:url(#linear-gradient-6);}.cls-14{fill:url(#linear-gradient-7);}.cls-15{fill:url(#linear-gradient-8);}.cls-16{fill:url(#linear-gradient-9);}.cls-17{fill:url(#linear-gradient-10);}.cls-18{fill:url(#linear-gradient-11);}.cls-19{fill:url(#linear-gradient-12);}.cls-20{fill:url(#linear-gradient-13);}.cls-21{fill:url(#linear-gradient-14);}.cls-22{fill:url(#linear-gradient-15);}.cls-23{fill:url(#linear-gradient-16);}.cls-24{fill:url(#linear-gradient-17);}.cls-25{fill:url(#linear-gradient-18);}</style><linearGradient id="linear-gradient" x1="2982.04" y1="2825.42" x2="970.86" y2="1065.63" gradientUnits="userSpaceOnUse"><stop offset="0" stop-color="#dae3fe"/><stop offset="1" stop-color="#e9effd"/></linearGradient><linearGradient id="linear-gradient-2" x1="1105.83" y1="199.73" x2="-1047.43" y2="3541" gradientTransform="matrix(-1, 0, 0, 1, 1329.7, 0)" gradientUnits="userSpaceOnUse"><stop offset="0" stop-color="#4f52ff"/><stop offset="1" stop-color="#4042e2"/></linearGradient><linearGradient id="linear-gradient-3" x1="-1081.27" y1="2645.2" x2="-722.75" y2="1569.65" gradientTransform="matrix(-1, 0, 0, 1, 228.15, 0)" gradientUnits="userSpaceOnUse"><stop offset="0" stop-color="#09005d"/><stop offset="1" stop-color="#1a0f91"/></linearGradient><linearGradient id="linear-gradient-4" x1="-247.11" y1="2580.92" x2="-1843.45" y2="2969.22" gradientTransform="matrix(1, 0, 0, -1, 2082.6, 5492.71)" xlink:href="#linear-gradient-3"/><linearGradient id="linear-gradient-5" x1="1229.92" y1="1424.65" x2="1355.37" y2="1555.68" gradientTransform="matrix(-1, 0, 0, 1, 1550.83, 0)" xlink:href="#linear-gradient-3"/><linearGradient id="linear-gradient-6" x1="1396.34" y1="1753.54" x2="1633.65" y2="1927.71" gradientTransform="matrix(-1, 0, 0, 1, 1550.83, 0)" xlink:href="#linear-gradient-3"/><linearGradient id="linear-gradient-7" x1="1012.94" y1="1109.84" x2="851.84" y2="1301.43" gradientTransform="matrix(-1, 0, 0, 1, 1550.83, 0)" gradientUnits="userSpaceOnUse"><stop offset="0" stop-color="#febbba"/><stop offset="1" stop-color="#ff928e"/></linearGradient><linearGradient id="linear-gradient-8" x1="1336.72" y1="638.28" x2="851.93" y2="1143.27" gradientUnits="userSpaceOnUse"><stop offset="0" stop-color="#ff928e"/><stop offset="1" stop-color="#fe7062"/></linearGradient><linearGradient id="linear-gradient-9" x1="825.09" y1="1284.16" x2="1147.12" y2="843.61" xlink:href="#linear-gradient-7"/><linearGradient id="linear-gradient-10" x1="628.09" y1="919.08" x2="639.95" y2="812.32" xlink:href="#linear-gradient-7"/><linearGradient id="linear-gradient-11" x1="691.36" y1="825.95" x2="639.07" y2="653.51" xlink:href="#linear-gradient-7"/><linearGradient id="linear-gradient-12" x1="644.18" y1="509.32" x2="692.79" y2="786.57" gradientTransform="matrix(-1, 0, 0, 1, 1550.83, 0)" xlink:href="#linear-gradient-3"/><linearGradient id="linear-gradient-13" x1="637.2" y1="842.37" x2="584.92" y2="669.93" xlink:href="#linear-gradient-7"/><linearGradient id="linear-gradient-14" x1="1064.55" y1="1184.49" x2="1309.6" y2="1184.49" gradientTransform="matrix(-1, 0, 0, 1, 1550.83, 0)" xlink:href="#linear-gradient-3"/><linearGradient id="linear-gradient-15" x1="1094.29" y1="1291.61" x2="898.35" y2="1345.31" gradientTransform="matrix(-1, 0, 0, 1, 1550.83, 0)" xlink:href="#linear-gradient-3"/><linearGradient id="linear-gradient-16" x1="819.25" y1="366.83" x2="743.51" y2="1533.3" gradientUnits="userSpaceOnUse"><stop offset="0" stop-color="#e1473d"/><stop offset="1" stop-color="#e9605a"/></linearGradient><linearGradient id="linear-gradient-17" x1="957.15" y1="375.79" x2="881.41" y2="1542.25" xlink:href="#linear-gradient-16"/><linearGradient id="linear-gradient-18" x1="1059.75" y1="382.45" x2="984.01" y2="1548.92" xlink:href="#linear-gradient-16"/></defs><g id="katman_2" data-name="katman 2"><g id="Illustration"><path class="cls-1" d="M2632.71,1915.39c-258.3,617.1-946.36,962.8-1543,869.55-97.1-15.18-363.28-60.38-598.95-273.62C37.05,2100.82-60,1288,306,715.13,572.35,298.21,1049.83,61.87,1503.52,73.69c97.73,2.55,472.26,18.24,801.4,293.62,48.35,40.44,155,136.56,251.08,289C2781.65,1014.39,2801.05,1513.23,2632.71,1915.39Z"/><path class="cls-2" d="M15.33,1800.25c44.1-188.24,188.32-336,371.91-381.2,126.22-31.07,247.32-14.39,349.67,36,34,16.7,74.3-2.2,83.7-39.59,90.48-359.6,408.93-625.26,787.91-625.26,449.39,0,813.69,373.53,813.69,834.29,0,12.23-.25,28.94-.45,45,1.59,34.46,16.26,49.09,38.16,52.76C2636,1741,2774.36,1889.79,2782,2073.35c8.81,210.76-158.49,385.38-364.24,385.38H514.65C188.86,2458.73-66.23,2148.35,15.33,1800.25Z"/><path class="cls-3" d="M162.73,1870.79c39.37-168.07,168.14-300,332.06-340.35,112.7-27.75,220.83-12.86,312.22,32.09,30.31,14.91,66.33-2,74.73-35.35,80.79-321.07,365.12-558.27,703.5-558.27,401.24,0,726.51,333.51,726.51,744.91,0,10.92-.21,25.84-.4,40.15,1.42,30.77,14.52,43.83,34.08,47.11,157.2,16.78,280.75,149.66,287.6,313.55,7.88,188.19-141.51,344.1-325.21,344.1H608.55C317.67,2458.73,89.91,2181.6,162.73,1870.79Z"/><path class="cls-4" d="M383.7,2684.22a28.14,28.14,0,0,0,28.07,28h1518a28.14,28.14,0,0,0,28.07-28l12.63-872.35c0-15.42-18.17-45.54-51.48-43.27L435.44,1730.21a70.75,70.75,0,0,0-72.59,72.35Z"/><path class="cls-5" d="M411.41,2657.31A26.64,26.64,0,0,0,438,2683.87H1893.15a26.64,26.64,0,0,0,26.56-26.56l11.92-791.92c-1.41-47.66-43.19-64.79-68.51-63.78L441.27,1763.47a49.71,49.71,0,0,0-51,50.87Z"/><path class="cls-6" d="M1904,2281.09h0a3.89,3.89,0,0,1-3.85-4l.94-64.22a3.9,3.9,0,0,1,3.89-3.84h0a3.89,3.89,0,0,1,3.85,4l-.94,64.23A3.89,3.89,0,0,1,1904,2281.09Z"/><path class="cls-6" d="M1906.29,2123.71h0a3.9,3.9,0,0,1-3.84-3.95l3.61-246c-.06-14.61-4.5-26.28-13.18-34.59-16.2-15.53-41.93-14.73-43-14.68l-454.46-12.19a3.89,3.89,0,0,1-3.78-4,3.73,3.73,0,0,1,4-3.79l454.19,12.19c2.82-.17,30.21-.64,48.45,16.84,10.27,9.83,15.51,23.37,15.59,40.25l-3.62,246.06A3.89,3.89,0,0,1,1906.29,2123.71Z"/><rect class="cls-7" x="260.55" y="2708.03" width="1789.65" height="76.65" rx="5.65" transform="translate(2310.75 5492.71) rotate(180)"/><path class="cls-8" d="M1042.73,2645.24H482.45a37.4,37.4,0,0,1-37.4-37.41V1876.49a37.4,37.4,0,0,1,38.83-37.38l560.28,21.45a37.4,37.4,0,0,1,36,37.37v709.9A37.41,37.41,0,0,1,1042.73,2645.24Z"/><rect class="cls-9" x="554.84" y="2126.01" width="381.79" height="49.32" rx="5.33"/><rect class="cls-9" x="555.59" y="2204.77" width="381.79" height="49.32" rx="5.33"/><rect class="cls-9" x="557.82" y="2285.19" width="381.79" height="49.32" rx="5.33"/><rect class="cls-9" x="558.58" y="2363.95" width="381.79" height="49.32" rx="5.33"/><rect class="cls-9" x="1201.63" y="2125.95" width="548.9" height="49.32" rx="5.33"/><rect class="cls-9" x="1203.33" y="2204.77" width="548.9" height="49.32" rx="5.33"/><rect class="cls-9" x="1203.33" y="2285.19" width="325.25" height="49.32" rx="5.33"/><g class="cls-10"><path class="cls-6" d="M1493,1942.13h-8.36a7.52,7.52,0,0,1-7.52-7.52V1906a18.52,18.52,0,0,0-18.52-18.52h-51.81a18.52,18.52,0,0,0-18.52,18.52v28.58a7.52,7.52,0,0,1-7.52,7.52h-8.36a7.52,7.52,0,0,1-7.52-7.52V1906a41.91,41.91,0,0,1,41.92-41.91h51.81a41.91,41.91,0,0,1,41.92,41.91v28.58A7.52,7.52,0,0,1,1493,1942.13Z"/><path class="cls-6" d="M1503.38,1948.87H1362.05a15.69,15.69,0,0,0-15.68,15.69V2073a15.68,15.68,0,0,0,15.68,15.68h141.33a15.68,15.68,0,0,0,15.68-15.68V1964.56A15.69,15.69,0,0,0,1503.38,1948.87Zm-50.44,104.84a5.82,5.82,0,0,1-5.65,7.17h-29.15a5.82,5.82,0,0,1-5.65-7.17l6.8-28.31a26.2,26.2,0,1,1,26.85,0Z"/></g><path class="cls-8" d="M1904.43,675.81a3.33,3.33,0,0,1-1.63-.42,3.37,3.37,0,0,1-1.3-4.58q3.24-5.85,6.3-11.78a3.37,3.37,0,0,1,6,3.09q-3.1,6-6.4,12A3.35,3.35,0,0,1,1904.43,675.81Z"/><path class="cls-8" d="M1510.61,907.61q-3,0-6,0a3.37,3.37,0,0,1,0-6.73h0c8.71.12,17.51,0,26.2-.42a3.41,3.41,0,0,1,3.51,3.21,3.37,3.37,0,0,1-3.21,3.52C1524.39,907.46,1517.45,907.61,1510.61,907.61ZM1461.88,905l-.36,0c-8.8-1-17.66-2.18-26.35-3.63a3.37,3.37,0,0,1,1.11-6.64c8.56,1.43,17.3,2.64,26,3.57a3.37,3.37,0,0,1-.36,6.72Zm111.9-1.81a3.37,3.37,0,0,1-.46-6.7c8.61-1.21,17.3-2.7,25.83-4.41a3.37,3.37,0,1,1,1.32,6.6c-8.65,1.74-17.47,3.25-26.21,4.48Zm-180-10.88a3.26,3.26,0,0,1-.87-.12c-8.53-2.27-17.1-4.83-25.48-7.61a3.37,3.37,0,0,1,2.12-6.39c8.25,2.73,16.69,5.26,25.1,7.5a3.37,3.37,0,0,1-.87,6.62Zm247.59-4a3.37,3.37,0,0,1-1-6.59c8.34-2.52,16.7-5.33,24.84-8.33a3.37,3.37,0,1,1,2.33,6.32c-8.27,3.05-16.75,5.89-25.22,8.46A3.25,3.25,0,0,1,1641.41,888.27ZM1328.5,869.34a3.4,3.4,0,0,1-1.35-.28c-8.1-3.57-16.17-7.42-24-11.44a3.37,3.37,0,1,1,3.07-6c7.72,4,15.67,7.75,23.64,11.26a3.37,3.37,0,0,1-1.36,6.45Zm377.42-6.21a3.37,3.37,0,0,1-1.46-6.4c7.83-3.77,15.66-7.83,23.27-12.07a3.37,3.37,0,1,1,3.27,5.89c-7.72,4.3-15.67,8.42-23.62,12.25A3.31,3.31,0,0,1,1705.92,863.13Zm-438.4-26.52a3.27,3.27,0,0,1-1.81-.54c-7.44-4.76-14.82-9.81-22-15a3.37,3.37,0,0,1,4-5.45c7,5.12,14.3,10.09,21.62,14.79a3.37,3.37,0,0,1-1.82,6.2Zm498.27-8.28a3.37,3.37,0,0,1-1.91-6.14c7.16-4.94,14.27-10.16,21.13-15.51a3.37,3.37,0,1,1,4.14,5.31c-7,5.43-14.18,10.73-21.45,15.75A3.36,3.36,0,0,1,1765.79,828.33Zm-553.46-33.47a3.37,3.37,0,0,1-2.23-.84c-6.59-5.84-13.12-12-19.39-18.2a3.36,3.36,0,1,1,4.74-4.77c6.19,6.14,12.62,12.18,19.11,17.92a3.37,3.37,0,0,1-2.23,5.89Zm607.32-10.1a3.37,3.37,0,0,1-2.31-5.82c6.34-6,12.57-12.21,18.53-18.52a3.37,3.37,0,0,1,4.9,4.62c-6,6.41-12.38,12.73-18.81,18.8A3.37,3.37,0,0,1,1819.65,784.76Zm-655.53-39.6a3.37,3.37,0,0,1-2.59-1.22c-5.64-6.77-11.17-13.81-16.42-20.92a3.37,3.37,0,0,1,5.42-4c5.17,7,10.61,13.94,16.17,20.62a3.36,3.36,0,0,1-2.58,5.52Zm702.13-11.6a3.37,3.37,0,0,1-2.66-5.44c5.37-6.89,10.57-14,15.49-21.13a3.37,3.37,0,0,1,5.55,3.81c-5,7.25-10.28,14.47-15.72,21.46A3.39,3.39,0,0,1,1866.25,733.56ZM1124,688.72a3.36,3.36,0,0,1-2.89-1.64c-4.57-7.6-8.95-15.4-13-23.2a3.37,3.37,0,0,1,6-3.11c4,7.67,8.32,15.36,12.82,22.85a3.37,3.37,0,0,1-2.88,5.1Zm-31-61.94a3.39,3.39,0,0,1-3.12-2.11c-3.33-8.2-6.45-16.58-9.27-24.92a3.37,3.37,0,1,1,6.38-2.16c2.78,8.21,5.85,16.47,9.13,24.55a3.36,3.36,0,0,1-1.85,4.39A3.3,3.3,0,0,1,1093.05,626.78Z"/><path class="cls-8" d="M1072,560.62a3.35,3.35,0,0,1-3.27-2.59q-1.56-6.62-2.91-13.25a3.37,3.37,0,0,1,6.6-1.34q1.33,6.54,2.86,13a3.37,3.37,0,0,1-2.51,4A4,4,0,0,1,1072,560.62Z"/><path class="cls-8" d="M1129.07,217.31a3.37,3.37,0,0,1-2.84-5.16q3.6-5.73,7.39-11.37a3.37,3.37,0,0,1,5.59,3.76q-3.74,5.55-7.29,11.2A3.37,3.37,0,0,1,1129.07,217.31Z"/><path class="cls-8" d="M1942.74,330.09a3.38,3.38,0,0,1-3.24-2.42c-2.57-8.78-5.45-17.58-8.56-26.19a3.36,3.36,0,1,1,6.33-2.28c3.16,8.72,6.08,17.66,8.7,26.57a3.37,3.37,0,0,1-2.29,4.18A3.06,3.06,0,0,1,1942.74,330.09Zm-26.09-68a3.37,3.37,0,0,1-3-1.9c-4-8.26-8.24-16.49-12.7-24.45a3.37,3.37,0,0,1,5.88-3.29c4.52,8.08,8.86,16.43,12.89,24.82a3.36,3.36,0,0,1-1.58,4.49A3.27,3.27,0,0,1,1916.65,262.13Zm-36.77-62.82a3.35,3.35,0,0,1-2.76-1.44c-5.24-7.48-10.78-14.91-16.48-22.07a3.37,3.37,0,0,1,5.26-4.2c5.79,7.28,11.42,14.82,16.74,22.41a3.37,3.37,0,0,1-2.76,5.3Zm-716.45-29.39a3.36,3.36,0,0,1-2.59-5.51c5.91-7.12,12.14-14.17,18.51-21a3.37,3.37,0,1,1,4.91,4.61c-6.28,6.69-12.42,13.64-18.24,20.65A3.36,3.36,0,0,1,1163.43,169.92Zm670.06-26.71a3.36,3.36,0,0,1-2.42-1c-6.34-6.54-13-13-19.77-19.16a3.37,3.37,0,0,1,4.54-5c6.88,6.27,13.63,12.81,20.06,19.45a3.36,3.36,0,0,1-2.41,5.71Zm-619.23-25.39a3.37,3.37,0,0,1-2.22-5.9c7-6.12,14.28-12.09,21.62-17.76a3.37,3.37,0,0,1,4.12,5.34c-7.24,5.57-14.4,11.46-21.31,17.49A3.33,3.33,0,0,1,1214.26,117.82Zm564.52-22.58a3.43,3.43,0,0,1-2-.66c-7.33-5.46-14.94-10.75-22.59-15.73a3.36,3.36,0,1,1,3.67-5.64c7.77,5.06,15.49,10.43,22.94,16a3.37,3.37,0,0,1-2,6.07Zm-506-20.77a3.37,3.37,0,0,1-1.78-6.23c7.87-4.9,16-9.63,24.19-14a3.36,3.36,0,1,1,3.2,5.92c-8.06,4.35-16.08,9-23.83,13.84A3.42,3.42,0,0,1,1272.76,74.47ZM1717,56.74a3.28,3.28,0,0,1-1.54-.38c-8.12-4.18-16.48-8.17-24.85-11.85a3.36,3.36,0,1,1,2.7-6.16c8.5,3.73,17,7.78,25.23,12a3.37,3.37,0,0,1-1.54,6.36ZM1337.49,41.13a3.36,3.36,0,0,1-1.3-6.47c8.55-3.56,17.35-6.9,26.15-9.93a3.36,3.36,0,0,1,2.2,6.36c-8.67,3-17.34,6.28-25.76,9.79A3.44,3.44,0,0,1,1337.49,41.13Zm312.38-12.39a3.41,3.41,0,0,1-1-.16c-8.69-2.82-17.59-5.4-26.45-7.68a3.37,3.37,0,0,1,1.68-6.53c9,2.32,18,5,26.85,7.81a3.36,3.36,0,0,1-1,6.56Zm-243.12-10a3.36,3.36,0,0,1-.77-6.64c9-2.13,18.27-4,27.4-5.57a3.36,3.36,0,1,1,1.14,6.63c-9,1.54-18.08,3.39-27,5.49A3.44,3.44,0,0,1,1406.75,18.74ZM1579.06,12a2.92,2.92,0,0,1-.51,0c-9-1.39-18.24-2.51-27.35-3.34a3.36,3.36,0,1,1,.61-6.7c9.24.84,18.58,2,27.75,3.39a3.36,3.36,0,0,1-.5,6.69ZM1478.72,7.82a3.36,3.36,0,0,1-.24-6.72c9.25-.65,18.65-1,27.94-1.1h0a3.37,3.37,0,0,1,0,6.73c-9.16.08-18.42.44-27.52,1.08Z"/><path class="cls-8" d="M1955.54,387.41a3.37,3.37,0,0,1-3.33-2.85q-1-6.6-2.25-13.17a3.37,3.37,0,0,1,2.69-3.93,3.4,3.4,0,0,1,3.93,2.69q1.25,6.68,2.29,13.37a3.38,3.38,0,0,1-2.81,3.85A4.73,4.73,0,0,1,1955.54,387.41Z"/><path class="cls-8" d="M1856.37,443.74a5.41,5.41,0,0,0-3.23-5.38l-60.36-26.22a286.75,286.75,0,0,0-28.73-88.31l33.3-56.7a5.4,5.4,0,0,0-.55-6.25l-51.3-60a5.41,5.41,0,0,0-6.1-1.51l-61.17,24.12a286.71,286.71,0,0,0-82.79-42.07l-16.56-63.68a5.41,5.41,0,0,0-4.81-4l-78.68-6.13a5.39,5.39,0,0,0-5.38,3.23l-26.22,60.35a287,287,0,0,0-88.31,28.74l-56.7-33.31a5.42,5.42,0,0,0-6.25.56l-60,51.3a5.41,5.41,0,0,0-1.51,6.1l24.12,61.17a286.71,286.71,0,0,0-42.07,82.79l-63.69,16.55a5.41,5.41,0,0,0-4,4.82l-6.13,78.68a5.41,5.41,0,0,0,3.23,5.38l60.35,26.22a286.5,286.5,0,0,0,28.74,88.31l-33.31,56.7a5.4,5.4,0,0,0,.56,6.25l51.3,60a5.4,5.4,0,0,0,6.09,1.51l61.18-24.12a286.46,286.46,0,0,0,82.79,42.07l16.55,63.68a5.4,5.4,0,0,0,4.81,4l78.69,6.13a5.41,5.41,0,0,0,5.38-3.23l26.22-60.35a286.5,286.5,0,0,0,88.31-28.74l56.7,33.31a5.42,5.42,0,0,0,6.25-.56l60-51.3a5.4,5.4,0,0,0,1.51-6.09l-24.12-61.18a286.58,286.58,0,0,0,42.07-82.79l63.68-16.55a5.42,5.42,0,0,0,4-4.82Z"/><path class="cls-11" d="M1507.65,531.31a75.29,75.29,0,1,1,12.83-1.09A76.29,76.29,0,0,1,1507.65,531.31Zm.3-140.2a66.23,66.23,0,0,0-11.11.95,65,65,0,1,0,48.54,11h0A64.59,64.59,0,0,0,1508,391.11Z"/><path class="cls-11" d="M1506.44,651.68q-7.71,0-15.5-.6a195.53,195.53,0,0,1-180.32-194.59q0-7.73.6-15.51a195.5,195.5,0,0,1,343.47-111.89,196.41,196.41,0,0,1,23.56,34.3l-8.88,4.8a185.42,185.42,0,0,0-348.08,73.58q-.57,7.38-.57,14.7a185.43,185.43,0,0,0,361.19,58.73l9.58,3.21a195.63,195.63,0,0,1-185,133.27Z"/><path class="cls-8" d="M2284.17,786.32a3.37,3.37,0,0,1-2.89-5.08c2.26-3.82,4.42-7.72,6.42-11.6a3.37,3.37,0,1,1,6,3.09c-2.06,4-4.29,8-6.62,11.94A3.35,3.35,0,0,1,2284.17,786.32Z"/><path class="cls-8" d="M2066.89,899h-.27a237.72,237.72,0,0,1-27.27-3.75,3.37,3.37,0,0,1,1.31-6.61,231.08,231.08,0,0,0,26.49,3.65,3.37,3.37,0,0,1-.26,6.72Zm44-.71a3.37,3.37,0,0,1-.37-6.72,230.51,230.51,0,0,0,26.35-4.51,3.36,3.36,0,0,1,1.53,6.55,237.61,237.61,0,0,1-27.13,4.66Zm-113.12-15.6a3.57,3.57,0,0,1-1.27-.24,235.3,235.3,0,0,1-24.84-11.85,3.36,3.36,0,1,1,3.25-5.89,228.64,228.64,0,0,0,24.13,11.5,3.36,3.36,0,0,1-1.27,6.48Zm181.62-3a3.37,3.37,0,0,1-1.38-6.44,226,226,0,0,0,23.73-12.33,3.37,3.37,0,0,1,3.46,5.78,235.75,235.75,0,0,1-24.44,12.7A3.34,3.34,0,0,1,2179.42,879.67ZM1937,846.16a3.4,3.4,0,0,1-2.16-.78,236.11,236.11,0,0,1-20.06-18.84,3.37,3.37,0,1,1,4.89-4.63,230.49,230.49,0,0,0,19.49,18.3,3.37,3.37,0,0,1-2.16,5.95Zm302-5.08a3.36,3.36,0,0,1-2.25-5.87l2-1.79a231.85,231.85,0,0,0,16.93-17.13,3.36,3.36,0,0,1,5,4.47,237.58,237.58,0,0,1-17.42,17.64l-2,1.83A3.37,3.37,0,0,1,2239,841.08Zm-349-48.16a3.35,3.35,0,0,1-2.84-1.55,235.22,235.22,0,0,1-13.46-24,3.37,3.37,0,0,1,6.06-2.93,228.55,228.55,0,0,0,13.07,23.32,3.36,3.36,0,0,1-2.83,5.18Z"/><path class="cls-8" d="M1861.41,727.83a3.38,3.38,0,0,1-3.26-2.51C1857,721,1856,716.47,1855,712a3.37,3.37,0,0,1,6.6-1.34c.88,4.31,1.9,8.65,3,12.91a3.35,3.35,0,0,1-2.39,4.11A3.24,3.24,0,0,1,1861.41,727.83Z"/><path class="cls-8" d="M1889.14,545.12a3.32,3.32,0,0,1-1.79-.52,3.36,3.36,0,0,1-1.06-4.64c2.42-3.84,5-7.65,7.62-11.34a3.36,3.36,0,1,1,5.47,3.91c-2.55,3.58-5,7.29-7.39,11A3.36,3.36,0,0,1,1889.14,545.12Z"/><path class="cls-8" d="M2298.09,577.86a3.36,3.36,0,0,1-3.1-2.05,226.31,226.31,0,0,0-11.67-23.57,3.37,3.37,0,0,1,5.85-3.33,231.85,231.85,0,0,1,12,24.27,3.37,3.37,0,0,1-1.78,4.42A3.41,3.41,0,0,1,2298.09,577.86Zm-36.73-59.39a3.35,3.35,0,0,1-2.56-1.18q-2.58-3-5.28-6c-4.11-4.51-8.44-8.89-12.89-13.05a3.37,3.37,0,1,1,4.6-4.92c4.57,4.28,9,8.8,13.26,13.43,1.85,2,3.67,4.08,5.43,6.16a3.36,3.36,0,0,1-2.56,5.55ZM1925,501.2a3.37,3.37,0,0,1-2.33-5.8q2.05-1.95,4.14-3.86c5.26-4.8,10.8-9.42,16.46-13.71a3.37,3.37,0,0,1,4.07,5.36c-5.5,4.17-10.88,8.66-16,13.32-1.36,1.24-2.7,2.5-4,3.76A3.36,3.36,0,0,1,1925,501.2Zm283.61-28.55a3.37,3.37,0,0,1-1.79-.52,228,228,0,0,0-23-12.73,3.37,3.37,0,0,1,2.91-6.07,232.35,232.35,0,0,1,23.68,13.11,3.36,3.36,0,0,1-1.8,6.21ZM1982.16,461a3.36,3.36,0,0,1-1.5-6.38A235.91,235.91,0,0,1,2005.57,444a3.37,3.37,0,0,1,2.29,6.34,228.7,228.7,0,0,0-24.2,10.32A3.36,3.36,0,0,1,1982.16,461Zm162.52-16.29a3.26,3.26,0,0,1-.87-.12,229.84,229.84,0,0,0-25.77-5.27,3.36,3.36,0,0,1-2.84-3.82,3.31,3.31,0,0,1,3.81-2.84,237.11,237.11,0,0,1,26.53,5.42,3.37,3.37,0,0,1-.86,6.63Zm-96-4.93a3.37,3.37,0,0,1-.53-6.69,237.85,237.85,0,0,1,27-2.69,3.37,3.37,0,0,1,.28,6.73,231.38,231.38,0,0,0-26.18,2.61A3,3,0,0,1,2048.69,439.8Z"/><path class="cls-8" d="M2313.68,632.5a3.38,3.38,0,0,1-3.33-2.85c-.67-4.35-1.49-8.74-2.42-13a3.37,3.37,0,0,1,6.59-1.42c.95,4.43,1.79,8.95,2.49,13.42a3.38,3.38,0,0,1-2.81,3.85A4.73,4.73,0,0,1,2313.68,632.5Z"/><path class="cls-8" d="M2262.74,659.8a2.79,2.79,0,0,0-1.66-2.77l-31-13.46a147.53,147.53,0,0,0-14.76-45.37l17.1-29.12a2.77,2.77,0,0,0-.28-3.21l-26.35-30.81a2.78,2.78,0,0,0-3.13-.78l-31.43,12.39a147,147,0,0,0-42.53-21.61l-8.5-32.71a2.77,2.77,0,0,0-2.47-2.07l-40.42-3.15a2.77,2.77,0,0,0-2.76,1.66l-13.47,31a147.48,147.48,0,0,0-45.36,14.76l-29.13-17.11a2.78,2.78,0,0,0-3.21.29l-30.81,26.35a2.79,2.79,0,0,0-.78,3.13l12.39,31.43a147.35,147.35,0,0,0-21.61,42.52l-32.71,8.51a2.77,2.77,0,0,0-2.07,2.47l-3.15,40.42a2.78,2.78,0,0,0,1.66,2.76l31,13.47a147.48,147.48,0,0,0,14.76,45.36L1935,763.28a2.77,2.77,0,0,0,.28,3.21l26.36,30.81a2.77,2.77,0,0,0,3.12.78l31.43-12.39a147.27,147.27,0,0,0,42.53,21.61l8.5,32.71a2.77,2.77,0,0,0,2.47,2.07l40.42,3.15a2.81,2.81,0,0,0,2.77-1.66l13.46-31a147.14,147.14,0,0,0,45.36-14.77l29.13,17.11a2.77,2.77,0,0,0,3.21-.28l30.81-26.36a2.78,2.78,0,0,0,.78-3.13l-12.39-31.42a147.4,147.4,0,0,0,21.61-42.53l32.71-8.5a2.77,2.77,0,0,0,2.07-2.47Z"/><path class="cls-11" d="M2083.6,707.24a41.18,41.18,0,1,1,7-.6A41.68,41.68,0,0,1,2083.6,707.24Zm.13-72a30.94,30.94,0,1,0,17.84,5.68h0A30.76,30.76,0,0,0,2083.73,635.24Z"/><path class="cls-11" d="M2083,769.07c-2.71,0-5.44-.1-8.16-.32A102.88,102.88,0,1,1,2161,599.31c.29.33.57.67.86,1a103.53,103.53,0,0,1,10.6,15.35l0,.06.13.24.24.42a1.71,1.71,0,0,0,.13.23l.39.74-8.88,4.8a93.27,93.27,0,0,0-11.19-16.29h0a92.76,92.76,0,1,0,17.46,89.86l9.58,3.21A103,103,0,0,1,2083,769.07Z"/><path class="cls-12" d="M355.88,1357s34.61,1.83,38.85,73c0,0-80.25,71.94-188.64,89.06-8.14,1.29,11.37-55.55,14.31-63.25C234.35,1419.18,278.32,1395.59,355.88,1357Z"/><path class="cls-5" d="M745.63,1273.26h-73s-224.15-247.55-371.16-272.53c0,0-102.33,130.63,5.45,374.71,8.67,19.63,32.92,28.35,51,16.8a29.26,29.26,0,0,0,11.66-13.89L360.89,1170s191.2,167.22,224.43,199.49S787.48,1382,745.63,1273.26Z"/><path class="cls-13" d="M39.59,1793c30.6-26.82,79.36-56.91,149.76-65.54l23.8,14.56s-15.18,22.4-42.91,46c-25.49,14.8-64.85,34.85-97.47,39.2C41,1831.49,36.37,1812.32,39.59,1793Z"/><path class="cls-8" d="M220.4,1455.81c18.85,6.1,27.14,32.81,75,15.15a423.58,423.58,0,0,0,98.4-51.84c.39,3.45.72,7.05,1,10.88,0,0-84.61,80.48-193,97.61a10.79,10.79,0,0,1-11.65-14.54A271.72,271.72,0,0,1,220.4,1455.81Z"/><path class="cls-8" d="M16.53,1815.9A253.63,253.63,0,0,1,39.59,1793c-3.22,19.32,1.45,38.49,33.18,34.27,32.62-4.35,72-24.4,97.47-39.2-32,27.24-80.55,56.16-141.9,54.46C14.72,1842.15,7.53,1826.13,16.53,1815.9Z"/><path class="cls-5" d="M743,1326.1l-342,3.7s-195.31,161.58-230.73,408c0,0-5.88,18.13,29.42,21.23,0,0,118.08-77.12,195.07-213.47,94.41-167.18,281.43-91.93,281.43-91.93,89.85,19.83,161.37,12.45,213.7-68.08Z"/><path class="cls-14" d="M734.88,1050.6s-36.82,184.51-217.2,257.5l-64.17-7.56-15.14,24.14,150.51,4.8s128.66-51,196.83-189.81C788,1135.08,825.5,1057.57,734.88,1050.6Z"/><path class="cls-15" d="M715.15,1323.08S757,1209.28,766,1098.7c0,0-30.63-26.32-49.78-37.68a13.84,13.84,0,0,1-5.4-18C724.91,1013.91,810,899.43,816.4,897.84c34.66-8.65,176.79-76.23,276.89,60.69,43,58.76-8.52,239.65-203.43,427C827.15,1395.73,768.52,1377.66,715.15,1323.08Z"/><path class="cls-16" d="M876.47,1123.63s-116.31,137.73-265,157.86c0,0-38.43-35-67-22.53s-67.76,67.73-67.76,67.73H667.61s180.55-6.36,270.77-115.84C931.12,1172.54,909.38,1149.65,876.47,1123.63Z"/><path class="cls-17" d="M944.33,801.24l25.45,84.88a9.31,9.31,0,0,1-3.62,10.39c-12.26,8.4-44.28,25.09-88.21,8.87A13.86,13.86,0,0,1,869,893.49l-6-74Z"/><path class="cls-18" d="M795.3,732.49s12.52,88,46.32,115,99.65,6.69,121.9-59.65L919.2,674.47Z"/><path class="cls-19" d="M924.19,747.87a4.35,4.35,0,0,1-5.66-3.49c-1.23-8.12-4.27-24.2-10.44-35.15,0,0,3.23-11.54-29.17,5.9s-81.07,43-109.72,27.8c-27.93-14.87-56.23-89.72,17.6-75.86a4.36,4.36,0,0,0,5.18-4.56c-.91-12.3.31-40.6,29-49.69,26.82-8.5,41.5,3.61,47.56,10.92a4.33,4.33,0,0,0,6.78-.11c8-10.49,29.85-32.82,62-18.66,26.46,11.66,30.57,28,30.14,38.11a4.33,4.33,0,0,0,6.18,4.14c8.11-3.73,21.14-5.67,33.62,10,17.26,21.63-7.4,40.38-14.8,45.3a4.38,4.38,0,0,0-2,3.6c-.06,11.24-1.82,60.3-26.4,88a4.4,4.4,0,0,1-7.31-1.26l-18.93-45.11a4.38,4.38,0,0,0-5.38-2.47Z"/><path class="cls-20" d="M923.79,757s11.56-47.09,29.12-31.8-4.58,48.93-24.69,55.35Z"/><path class="cls-21" d="M486.28,1337.38l-85.73-285.92a29.24,29.24,0,0,0-26-20.77l-115.76-7.92a16.42,16.42,0,0,0-16.61,21.82L338,1317.64a24,24,0,0,0,20.26,15.95l114,12.65Z"/><path class="cls-8" d="M328.16,1148.37c6.4,12.92,17.46,20.49,24.69,16.9s7.91-17,1.51-29.88-17.45-20.49-24.69-16.91S321.76,1135.45,328.16,1148.37Z"/><path class="cls-22" d="M472.26,1346.24h.56L715.7,1334a10.88,10.88,0,1,0-1.1-21.74l-242.88,12.28a10.88,10.88,0,0,0,.54,21.75Z"/><path class="cls-23" d="M766,1100.38a1.68,1.68,0,0,1-1.68-1.68c-.17-51.27,19.56-119.12,19.76-119.8a1.68,1.68,0,0,1,3.23.94c-.2.68-19.79,68.08-19.62,118.85a1.69,1.69,0,0,1-1.68,1.69Z"/><path class="cls-24" d="M876.47,1125.32a1.68,1.68,0,0,1-1.32-2.73c.53-.67,53.32-67.78,71.39-113.57a1.67,1.67,0,0,1,2.19-.95,1.69,1.69,0,0,1,.95,2.19c-18.26,46.24-71.35,113.74-71.89,114.42A1.67,1.67,0,0,1,876.47,1125.32Z"/><path class="cls-25" d="M951.31,1228.51l-9.61-13.58a1.69,1.69,0,0,1,.41-2.35,1.67,1.67,0,0,1,2.34.4l8,11.36c74.91-32.84,121.29-122.46,121.75-123.37a1.68,1.68,0,0,1,3,1.53c-.47.93-47.89,92.6-124.67,125.47Z"/></g></g></svg>