<svg xmlns="http://www.w3.org/2000/svg" viewBox="0 0 33.1 43.11"><defs><style>.cls-1{opacity:0.57;}.cls-2{fill:#fff;}</style></defs><g id="katman_2" data-name="katman 2"><g id="katman_1-2" data-name="katman 1"><g class="cls-1"><path class="cls-2" d="M5.87,43.11V7.78H21.16a11,11,0,0,1,4.8,1,12,12,0,0,1,3.79,2.81,13.21,13.21,0,0,1,2.48,4A11.87,11.87,0,0,1,33.1,20,12.6,12.6,0,0,1,27.53,30.5a10.69,10.69,0,0,1-6.12,1.77h-5.8V43.11Zm9.74-19.3h5.15a2.15,2.15,0,0,0,1.15-.35,2.56,2.56,0,0,0,.92-1.2A5.58,5.58,0,0,0,23.21,20a5,5,0,0,0-.43-2.31,2.49,2.49,0,0,0-1-1.14,2.64,2.64,0,0,0-1.23-.33h-4.9Z"/></g><path class="cls-2" d="M0,38.1V0H26.13V9.12H10.46v6.33H23.23v8.48H10.46V38.1Z"/></g></g></svg>