<svg xmlns="http://www.w3.org/2000/svg" viewBox="0 0 33.12 43.11"><defs><style>.cls-1{opacity:0.57;}.cls-2{fill:#1d1d1b;}</style></defs><g id="katman_2" data-name="katman 2"><g id="katman_1-2" data-name="katman 1"><g class="cls-1"><path class="cls-2" d="M5.87,43.11V7.78h15.3a11,11,0,0,1,4.8,1,12.17,12.17,0,0,1,3.8,2.81,13.18,13.18,0,0,1,2.47,4A11.89,11.89,0,0,1,33.12,20,12.64,12.64,0,0,1,27.54,30.5a10.69,10.69,0,0,1-6.12,1.77h-5.8V43.11Zm9.75-19.3h5.15a2.15,2.15,0,0,0,1.15-.35,2.62,2.62,0,0,0,.92-1.2A5.58,5.58,0,0,0,23.22,20a5.16,5.16,0,0,0-.43-2.31,2.45,2.45,0,0,0-1.05-1.14,2.57,2.57,0,0,0-1.22-.33h-4.9Z"/></g><path class="cls-2" d="M0,38.1V0H26.13V9.12H10.46v6.33H23.23v8.48H10.46V38.1Z"/></g></g></svg>