<svg xmlns="http://www.w3.org/2000/svg" viewBox="0 0 132.35 28.09"><defs><style>.cls-1{opacity:0.57;}.cls-2{fill:#1d1d1b;}</style></defs><g id="katman_2" data-name="katman 2"><g id="katman_1-2" data-name="katman 1"><g class="cls-1"><path class="cls-2" d="M62.57,28.09V0h12a8.46,8.46,0,0,1,3.7.81A9.31,9.31,0,0,1,81.16,3a10.13,10.13,0,0,1,1.9,3.06,9.4,9.4,0,0,1,.67,3.48,9.85,9.85,0,0,1-1.12,4.59,9.63,9.63,0,0,1-3.13,3.54A8.18,8.18,0,0,1,74.75,19H69.06v9.06Zm6.49-14.72h5.3a2.37,2.37,0,0,0,1.38-.43,3.08,3.08,0,0,0,1-1.31,5.21,5.21,0,0,0,.4-2.14,4.45,4.45,0,0,0-.46-2.15,3,3,0,0,0-1.15-1.25,2.89,2.89,0,0,0-1.44-.39H69.06Z"/><path class="cls-2" d="M92.24,0h7l9.65,28.09h-6.64l-1.91-6.29H91.1l-1.91,6.29H82.55ZM99,17.33,95.72,6.53l-3.27,10.8Z"/><path class="cls-2" d="M113.09,0l6,12.42L125.27,0h7.08l-10,18.51v9.58h-6.45V18.43L106,0Z"/></g><path class="cls-2" d="M0,28.09V0H19.07V5.7H6.49v6.05H16.85V17H6.49V28.09Z"/><path class="cls-2" d="M42.25,22.39v5.7H22.51V0H41.89V5.7H29v5.46H40.07v5.26H29v6Z"/><path class="cls-2" d="M50.32,0l6.09,9.69L62.5,0h7L60.25,14.24l9,13.85H62.18l-5.77-9.3-5.78,9.3H43.55l9-13.85L43.24,0Z"/></g></g></svg>