<?xml version="1.0" encoding="utf-8"?>
<!-- Generator: Adobe Illustrator 22.1.0, SVG Export Plug-In . SVG Version: 6.00 Build 0)  -->
<svg version="1.1" id="Layer_1" xmlns="http://www.w3.org/2000/svg" xmlns:xlink="http://www.w3.org/1999/xlink" x="0px" y="0px"
	 viewBox="0 0 2850 1800" enable-background="new 0 0 2850 1800" xml:space="preserve">
<g>
	<linearGradient id="SVGID_1_" gradientUnits="userSpaceOnUse" x1="677.5477" y1="188.8822" x2="2352.9414" y2="1782.8333">
		<stop  offset="0" style="stop-color:#130C41"/>
		<stop  offset="0.9964" style="stop-color:#634DA0"/>
	</linearGradient>
	<rect y="0" fill="url(#SVGID_1_)" width="2850" height="1800"/>
	<g>
		
			<ellipse transform="matrix(0.6447 -0.7644 0.7644 0.6447 442.5453 1987.4368)" opacity="0.04" fill="#E5EDD4" cx="2359.344" cy="517.631" rx="404.417" ry="401.064"/>
		
			<ellipse transform="matrix(0.6657 -0.7462 0.7462 0.6657 402.3781 1933.516)" opacity="0.04" fill="#E5EDD4" cx="2359.344" cy="517.631" rx="330.21" ry="326.151"/>
		<ellipse opacity="0.04" fill="#E5EDD4" cx="2359.344" cy="517.631" rx="254.296" ry="254.654"/>
		<ellipse opacity="0.04" fill="#E5EDD4" cx="2359.344" cy="517.631" rx="172.625" ry="172.867"/>
		<ellipse opacity="0.15" fill="#FFFFFF" cx="2360.545" cy="515.886" rx="125.383" ry="125.559"/>
		<path fill="#FFFFFF" d="M2433.917,517.751c7.742-51.622-17.183-100.594-59.239-125.921c1.592,0.178,3.184,0.355,4.782,0.596
			c69.775,10.494,117.368,76.841,104.309,146.897c-11.998,64.361-72.348,108.862-137.287,101.272
			c-18.334-2.143-35.21-8.139-49.984-17.036C2362.944,630.986,2423.902,584.528,2433.917,517.751z"/>
	</g>
	<g>
		<linearGradient id="SVGID_2_" gradientUnits="userSpaceOnUse" x1="472.6453" y1="382.6855" x2="472.6453" y2="640.852">
			<stop  offset="0.0077" style="stop-color:#FFFFFF;stop-opacity:0.5"/>
			<stop  offset="1" style="stop-color:#FFFFFF;stop-opacity:0.1"/>
		</linearGradient>
		<path fill="url(#SVGID_2_)" d="M839.16,565.602c-34.977-13.594-75.437-7.988-108.898,9.007
			c-4.992-24.212-27.742-42.35-52.129-46.206c-24.386-3.856-49.527,4.775-69.666,19.076c1.702-41.938,2.372-87.479-22.37-121.359
			c-26-35.602-73.8-48.425-117.837-47.621c-66.184,1.208-130.423,27.839-183.122,67.951c-52.7,40.112-94.517,93.15-128.377,150.109
			c-19.336-11.952-44.143-14.583-65.55-6.952c-21.407,7.631-38.974,25.367-46.419,46.866l855.679,15.225
			C901.528,614.142,874.137,579.196,839.16,565.602z"/>
		<linearGradient id="SVGID_3_" gradientUnits="userSpaceOnUse" x1="1939.3007" y1="525.1267" x2="1939.3007" y2="652.9054">
			<stop  offset="0.0077" style="stop-color:#FFFFFF;stop-opacity:0.5"/>
			<stop  offset="1" style="stop-color:#FFFFFF;stop-opacity:0.1"/>
		</linearGradient>
		<path fill="url(#SVGID_3_)" d="M2190.792,616.194c-19.781-3.1-39.826,6.879-53.682,21.351
			c-5.821-26.939-15.417-53.057-28.417-77.351c-5.542-10.357-11.956-20.667-21.484-27.524
			c-17.531-12.616-41.459-10.853-62.475-5.906c-54.037,12.719-103.716,43.331-139.408,85.904
			c-14.838-24.716-48.379-32.914-76.365-26.11c-27.986,6.804-51.474,25.428-72.976,44.613
			c-11.672-11.739-29.347-17.147-45.578-13.947c-16.231,3.201-30.538,14.917-36.894,30.211l571.168,10.839
			C2227.991,638.5,2210.573,619.295,2190.792,616.194z"/>
		<linearGradient id="SVGID_4_" gradientUnits="userSpaceOnUse" x1="1139.0674" y1="817.6531" x2="1139.0674" y2="927.2411">
			<stop  offset="0.0077" style="stop-color:#FFFFFF;stop-opacity:0.5"/>
			<stop  offset="1" style="stop-color:#FFFFFF;stop-opacity:0.1"/>
		</linearGradient>
		<path fill="url(#SVGID_4_)" d="M1293.616,896.654c-13.655,2.047-25.664,11.189-39.437,12.158
			c-0.43-31.01-2.777-66.22-26.746-85.857c-24.905-20.403-62.051-14.354-91.751-1.956c-39.472,16.477-75.009,42.32-102.87,74.807
			c-4.617-16.938-21.938-29.458-39.445-28.513c-17.507,0.945-33.383,38.105-36.155,55.442l362.458,7.275
			C1325.954,917.7,1307.272,894.607,1293.616,896.654z"/>
	</g>
	<g>
		<g>
			<g>
				<path fill="#FFFFFF" d="M157.619,112.443c1.932,0,1.935-3.002,0-3.002C155.688,109.441,155.684,112.443,157.619,112.443
					L157.619,112.443z"/>
			</g>
		</g>
		<g>
			<g>
				<path fill="#FFFFFF" d="M129.983,269.266c1.932,0,1.935-3.002,0-3.002C128.052,266.264,128.049,269.266,129.983,269.266
					L129.983,269.266z"/>
			</g>
		</g>
		<path fill="#FFFFFF" d="M367.993,170.904c0,1.537,0,3.075,0,4.612c0,1.933,3,1.936,3,0c0-1.537,0-3.075,0-4.612
			C370.993,168.971,367.993,168.968,367.993,170.904L367.993,170.904z"/>
		<path fill="#FFFFFF" d="M283.48,355.401c0-1.537,0-3.075,0-4.612c0-1.933-3-1.936-3,0c0,1.537,0,3.075,0,4.612
			C280.48,357.334,283.48,357.337,283.48,355.401L283.48,355.401z"/>
		<path fill="#FFFFFF" d="M257.45,217.028c0,1.537,0,3.075,0,4.612c0,1.933,3,1.936,3,0c0-1.537,0-3.075,0-4.612
			C260.45,215.095,257.45,215.092,257.45,217.028L257.45,217.028z"/>
		<g>
			<g>
				<path fill="#FFFFFF" d="M719.547,89.381c1.932,0,1.935-3.002,0-3.002C717.615,86.379,717.612,89.381,719.547,89.381
					L719.547,89.381z"/>
			</g>
		</g>
		<g>
			<g>
				<path fill="#FFFFFF" d="M742.576,379.964c1.932,0,1.935-3.002,0-3.002C740.645,376.962,740.642,379.964,742.576,379.964
					L742.576,379.964z"/>
			</g>
		</g>
		<path fill="#FFFFFF" d="M688.805,438.425c0-1.537,0-3.075,0-4.612c0-1.933-3-1.936-3,0c0,1.537,0,3.075,0,4.612
			C685.805,440.358,688.805,440.361,688.805,438.425L688.805,438.425z"/>
		<g>
			<g>
				<path fill="#FFFFFF" d="M549.126,546.012c1.932,0,1.935-3.002,0-3.002C547.194,543.01,547.191,546.012,549.126,546.012
					L549.126,546.012z"/>
			</g>
		</g>
		<path fill="#FFFFFF" d="M595.186,324.616c1.535,0,3.071,0,4.606,0c1.93,0,1.933-3.004,0-3.004c-1.535,0-3.071,0-4.606,0
			C593.255,321.612,593.252,324.616,595.186,324.616L595.186,324.616z"/>
		<path fill="#FFFFFF" d="M1043.025,382.014c-1.535-1.538-3.071-3.075-4.606-4.612c-1.367-1.369-3.489,0.755-2.121,2.124
			c1.535,1.538,3.071,3.075,4.606,4.612C1042.27,385.507,1044.392,383.383,1043.025,382.014L1043.025,382.014z"/>
		<path fill="#FFFFFF" d="M1006.616,687.497c0-1.537,0-3.075,0-4.612c0-1.933-3-1.936-3,0c0,1.537,0,3.075,0,4.612
			C1003.616,689.43,1006.616,689.433,1006.616,687.497L1006.616,687.497z"/>
		<g>
			<g>
				<path fill="#FFFFFF" d="M779.424,813.533c1.932,0,1.935-3.002,0-3.002C777.493,810.531,777.489,813.533,779.424,813.533
					L779.424,813.533z"/>
			</g>
		</g>
		<path fill="#FFFFFF" d="M555.232,987.305c0-1.537,0-3.075,0-4.612c0-1.933-3-1.936-3,0c0,1.537,0,3.075,0,4.612
			C552.232,989.238,555.232,989.241,555.232,987.305L555.232,987.305z"/>
		<g>
			<g>
				<path fill="#FFFFFF" d="M691.911,688.998c1.932,0,1.935-3.002,0-3.002C689.979,685.996,689.976,688.998,691.911,688.998
					L691.911,688.998z"/>
			</g>
		</g>
		<path fill="#FFFFFF" d="M248.678,808.482c1.535,1.538,3.071,3.075,4.606,4.612c1.367,1.369,3.489-0.755,2.121-2.124
			c-1.535-1.537-3.071-3.075-4.606-4.612C249.432,804.989,247.31,807.113,248.678,808.482L248.678,808.482z"/>
		<path fill="#FFFFFF" d="M124.743,913.25c-0.657,4.819,7.614,4.444,6.653-0.135c-0.397-1.891-3.289-1.091-2.893,0.799
			c-0.072-0.342-0.042,0.067,0.009-0.134c0.039-0.155-0.077,0.087,0.07-0.16c-0.126,0.212,0.163-0.069,0.03-0.017
			c-0.095,0.037-0.18,0.28,0.022-0.003c-0.02,0.028-0.156,0.105-0.19,0.107c0.285-0.015,0.105-0.033-0.012-0.009
			c-0.095,0.019-0.19,0.048-0.285,0.068c0.201-0.041,0.161-0.001-0.017-0.01c-0.146-0.008-0.588-0.073-0.252,0.005
			c-0.094-0.022-0.186-0.043-0.278-0.071c-0.106-0.036-0.073-0.019,0.099,0.051c-0.032-0.016-0.064-0.033-0.096-0.049
			c-0.077-0.217,0.051,0.181,0.006,0.023c-0.026-0.022-0.05-0.046-0.072-0.072c-0.075-0.082-0.048-0.048,0.082,0.104
			c0.017,0.083,0.088,0.267,0.033,0.076c0.108,0.372,0.028-0.095-0.016,0.226c0.109-0.803-0.193-1.613-1.048-1.848
			C125.888,912.008,124.853,912.441,124.743,913.25L124.743,913.25z"/>
		<g>
			<g>
				<path fill="#FFFFFF" d="M208.285,573.687c1.932,0,1.935-3.002,0-3.002C206.353,570.685,206.35,573.687,208.285,573.687
					L208.285,573.687z"/>
			</g>
		</g>
		<path fill="#FFFFFF" d="M425.826,783.296c-1.535-1.537-3.071-3.075-4.606-4.612c-1.367-1.369-3.489,0.755-2.121,2.124
			c1.535,1.537,3.071,3.075,4.606,4.612C425.071,786.789,427.193,784.665,425.826,783.296L425.826,783.296z"/>
		<g>
			<g>
				<path fill="#FFFFFF" d="M1037.358,121.668c1.932,0,1.935-3.002,0-3.002C1035.426,118.666,1035.423,121.668,1037.358,121.668
					L1037.358,121.668z"/>
			</g>
		</g>
		<g>
			<g>
				<path fill="#FFFFFF" d="M1272.262,250.816c1.932,0,1.935-3.002,0-3.002C1270.331,247.814,1270.327,250.816,1272.262,250.816
					L1272.262,250.816z"/>
			</g>
		</g>
		<g>
			<g>
				<path fill="#FFFFFF" d="M1216.991,555.237c1.932,0,1.935-3.002,0-3.002C1215.059,552.235,1215.056,555.237,1216.991,555.237
					L1216.991,555.237z"/>
			</g>
		</g>
		<path fill="#FFFFFF" d="M1130.231,967.55c0-1.791,0-3.581,0-5.372c0-1.933-3-1.936-3,0c0,1.791,0,3.581,0,5.372
			C1127.231,969.483,1130.231,969.487,1130.231,967.55L1130.231,967.55z"/>
		<g>
			<g>
				<path fill="#FFFFFF" d="M903.419,1253.773c1.932,0,1.935-3.002,0-3.002C901.488,1250.771,901.485,1253.773,903.419,1253.773
					L903.419,1253.773z"/>
			</g>
		</g>
		<path fill="#FFFFFF" d="M345.505,1296.751c1.788,0,3.576,0,5.365,0c1.93,0,1.933-3.004,0-3.004c-1.788,0-3.576,0-5.365,0
			C343.575,1293.747,343.571,1296.751,345.505,1296.751L345.505,1296.751z"/>
		<path fill="#FFFFFF" d="M276.826,1471.466c-1.788-1.791-3.576-3.581-5.365-5.372c-1.367-1.369-3.489,0.755-2.121,2.124
			c1.788,1.791,3.576,3.581,5.365,5.372C276.072,1474.959,278.194,1472.835,276.826,1471.466L276.826,1471.466z"/>
		<path fill="#FFFFFF" d="M235.241,1122.776c0.05,0.367,0.039-0.205,0.024,0.056c-0.015,0.114-0.005,0.101,0.03-0.041
			c-0.017,0.048-0.033,0.097-0.05,0.145c0.1,0.179-0.265-0.045,0.027-0.012c0.109,0.012-0.204,0.103,0.043-0.012
			c0.134-0.062,0.12-0.048-0.007-0.003c0.103-0.037,0.213-0.068,0.321-0.089c0.171-0.033-0.215,0.003,0.076-0.013
			c0.116-0.006,0.232-0.004,0.348-0.004c0.18,0,0.554,0.069,0.712,0.215c-0.154-0.142-0.089-0.034,0.025,0.036
			c0.06,0.037-0.038-0.179,0.003,0.03c-0.024-0.12-0.067-0.186-0.037-0.021c-0.067-0.364-0.09,0.158-0.029-0.132
			c-0.396,1.886,2.495,2.693,2.893,0.799c1.039-4.948-7.98-5.35-7.272-0.157c0.11,0.805,1.139,1.244,1.845,1.049
			C235.06,1124.385,235.351,1123.583,235.241,1122.776L235.241,1122.776z"/>
		<path fill="#FFFFFF" d="M110.964,1499.389c0-1.791,0-3.581,0-5.372c0-1.933-3-1.936-3,0c0,1.791,0,3.581,0,5.372
			C107.964,1501.322,110.964,1501.325,110.964,1499.389L110.964,1499.389z"/>
		<path fill="#FFFFFF" d="M724.889,1177.062c0,1.791,0,3.581,0,5.372c0,1.933,3,1.936,3,0c0-1.791,0-3.581,0-5.372
			C727.889,1175.13,724.889,1175.126,724.889,1177.062L724.889,1177.062z"/>
		<path fill="#FFFFFF" d="M652.785,1526.249c0-1.791,0-3.581,0-5.372c0-1.933-3-1.936-3,0c0,1.791,0,3.581,0,5.372
			C649.785,1528.182,652.785,1528.185,652.785,1526.249L652.785,1526.249z"/>
		<g>
			<g>
				<path fill="#FFFFFF" d="M1432.224,728.913c1.932,0,1.935-3.002,0-3.002C1430.292,725.911,1430.289,728.913,1432.224,728.913
					L1432.224,728.913z"/>
			</g>
		</g>
		<g>
			<g>
				<path fill="#FFFFFF" d="M1936.753,299.65c1.932,0,1.935-3.002,0-3.002C1934.822,296.648,1934.818,299.65,1936.753,299.65
					L1936.753,299.65z"/>
			</g>
		</g>
		<path fill="#FFFFFF" d="M2324.746,595.516c1.264-1.266,2.529-2.533,3.793-3.799c1.367-1.369-0.754-3.494-2.121-2.124
			c-1.265,1.266-2.529,2.533-3.793,3.799C2321.258,594.761,2323.379,596.886,2324.746,595.516L2324.746,595.516z"/>
		<g>
			<g>
				<path fill="#FFFFFF" d="M2050.557,907.456c1.932,0,1.935-3.002,0-3.002C2048.625,904.454,2048.622,907.456,2050.557,907.456
					L2050.557,907.456z"/>
			</g>
		</g>
		<path fill="#FFFFFF" d="M2756.391,74.335c-0.767,0.768-1.534,1.536-2.301,2.304c-1.367,1.369,0.754,3.494,2.121,2.124
			c0.767-0.768,1.534-1.536,2.301-2.304C2759.879,75.091,2757.759,72.966,2756.391,74.335c-0.767,0.768-1.534,1.536-2.301,2.304
			c-1.367,1.369,0.754,3.494,2.121,2.124c0.767-0.768,1.534-1.536,2.301-2.304C2759.879,75.091,2757.759,72.966,2756.391,74.335
			L2756.391,74.335z"/>
		<path fill="#FFFFFF" d="M2485.304,229.771c0,1.266,0,2.533,0,3.799c0,1.933,3,1.936,3,0c0-1.266,0-2.533,0-3.799
			C2488.304,227.838,2485.304,227.835,2485.304,229.771L2485.304,229.771z"/>
		<g>
			<g>
				<path fill="#FFFFFF" d="M1557.408,189.485c1.932,0,1.935-3.002,0-3.002C1555.476,186.483,1555.473,189.485,1557.408,189.485
					L1557.408,189.485z"/>
			</g>
		</g>
		<path fill="#FFFFFF" d="M1654.574,573.023c-1.265-1.266-2.529-2.532-3.793-3.799c-1.367-1.369-3.489,0.755-2.121,2.124
			c1.264,1.266,2.529,2.533,3.793,3.799C1653.82,576.516,1655.942,574.392,1654.574,573.023L1654.574,573.023z"/>
		<path fill="#FFFFFF" d="M1699.339,871.946c0-2.649,0-5.298,0-7.947c0-1.933-3-1.936-3,0c0,2.649,0,5.298,0,7.947
			C1696.339,873.879,1699.339,873.882,1699.339,871.946L1699.339,871.946z"/>
		<g>
			<g>
				<path fill="#FFFFFF" d="M1451.819,1254.917c1.932,0,1.935-3.002,0-3.002C1449.887,1251.915,1449.884,1254.917,1451.819,1254.917
					L1451.819,1254.917z"/>
			</g>
		</g>
	</g>
	<g>
		<polygon fill="#48337A" points="642.49,1407.585 642.49,1255.652 860.076,1146.928 955.682,1207.472 1181.51,1053.022 
			1501.295,1392.134 		"/>
		<polygon fill="#251258" points="860.076,1146.928 885.317,1217.589 851.907,1253.974 910.892,1357.911 668.013,1371.771 		"/>
		<polygon fill="#251258" points="1181.51,1053.022 1229.507,1126.413 1195.156,1167.173 1268.739,1217.163 1249.509,1242.263 
			1357.355,1355.126 920.753,1334.061 		"/>
		<polygon fill="#080B4A" points="860.076,1146.928 860.076,1184.074 838.141,1199.043 845.654,1204.25 812.918,1219.87 
			818.15,1242.263 753.209,1283.324 764.669,1308.262 716.987,1404.955 642.49,1407.585 642.49,1255.652 		"/>
		<polygon fill="#170B36" points="1181.51,1053.022 860.076,1272.249 878.462,1293.77 801.742,1333.772 927.254,1371.771 
			1146.441,1353.595 1083.274,1272.249 1118.667,1255.759 1092.928,1179.626 1178.471,1115.078 		"/>
	</g>
	<g>
		<g>
			<polygon fill="#48337A" points="985.28,1337.257 1507.504,947.041 2017.309,1461.485 			"/>
			<polygon fill="#170B36" points="1507.504,947.041 1524.547,1064.465 1450.68,1099.759 1532.496,1160.919 1493.77,1265.546 
				1556.428,1345.785 1035.902,1299.431 			"/>
		</g>
		<g>
			<polygon fill="#251258" points="2850,1001.396 2731.187,838.788 2108.526,1491.776 2850,1572.479 			"/>
			<polygon fill="#3A2D66" points="2731.187,838.788 2108.526,1491.776 2578.237,1542.9 2562.458,1374.833 2731.187,1319.735 
				2683.709,1187.22 2786.308,1174.615 2741.399,996.529 			"/>
			<polygon fill="#6C54A3" points="2731.187,838.788 2675.512,997.876 2606.151,1023.865 2549.744,1122.822 2581.685,1180.796 
				2423.23,1211.445 2206.049,1389.503 			"/>
			<polygon fill="#170B36" points="2850,1001.396 2731.187,838.788 2796.22,984.402 2850,1036.126 			"/>
		</g>
		<g>
			<linearGradient id="SVGID_5_" gradientUnits="userSpaceOnUse" x1="1930.6694" y1="764.4214" x2="1930.6694" y2="1503.2473">
				<stop  offset="0.0015" style="stop-color:#6C54A3"/>
				<stop  offset="0.2053" style="stop-color:#68509F"/>
				<stop  offset="0.4206" style="stop-color:#5C4692"/>
				<stop  offset="0.6413" style="stop-color:#48347D"/>
				<stop  offset="0.8642" style="stop-color:#2C1B60"/>
				<stop  offset="0.999" style="stop-color:#17094A"/>
			</linearGradient>
			<polygon fill="url(#SVGID_5_)" points="1316.464,1469.842 2050.557,727.412 2544.875,1621.819 			"/>
			<polygon fill="#251258" points="2050.557,727.412 2126.97,967.55 2107.845,1020.358 2194.245,1083.775 2080.043,1174.615 
				2231.411,1497.22 1456.325,1328.392 			"/>
			<polygon fill="#170B36" points="2050.557,727.412 2036.904,986.998 1791.64,1137.852 1859.993,1218.28 1751.433,1435.688 
				1316.464,1469.842 			"/>
		</g>
		<g>
			<polygon fill="#170B36" points="1971.523,1459.85 2409.779,961.057 2812.478,1559.185 			"/>
			<polygon fill="#251258" points="2409.779,961.057 1971.523,1459.85 2302.126,1498.901 2291.021,1370.521 2241.169,1315.942 
				2376.363,1227.211 2366.848,1118.401 2416.967,1081.55 			"/>
			<polygon fill="#6C54A3" points="2409.779,961.057 2366.27,1055.685 2387.501,1075.768 2300.001,1119.427 2310.465,1174.615 
				2193.025,1245.715 2040.164,1381.728 			"/>
			<polygon fill="#6C54A3" points="2409.779,961.057 2455.552,1072.286 2513.277,1132.538 2497.408,1153.495 2812.478,1559.185 			
				"/>
		</g>
	</g>
	<g>
		<g>
			<g>
				<g>
					<polygon fill="#080B4A" points="1652.9,1350.051 1653.125,1365.365 1657.014,1365.365 1657.014,1350.051 					"/>
					<rect x="1657.014" y="1350.051" fill="#6C54A3" width="1.314" height="15.314"/>
					<g>
						<polygon fill="#6C54A3" points="1662.61,1317.084 1664.035,1318.31 1667.201,1317.212 1671.768,1315.627 1670.218,1309.157 
							1668.027,1307.827 1668.53,1310.143 						"/>
						<polygon fill="#6C54A3" points="1672.645,1330.121 1676.421,1330.121 1671.768,1320.545 1667.951,1319.582 1664.5,1318.711 
							1670.84,1324.169 						"/>
						<polygon fill="#6C54A3" points="1667.891,1296.992 1662.464,1278.356 1659.695,1276.772 1665.459,1296.992 						"/>
						<path fill="#6C54A3" d="M1678.658,1341.185c-1.062-1.48-2.056-2.988-2.985-4.521l-2.134-1.856l0.478,4.977l3.899,7.519
							l-3.084,2.746h6.242L1678.658,1341.185z"/>
						<polygon fill="#6C54A3" points="1655.356,1267.744 1657.578,1267.744 1660.396,1267.744 1655.031,1248.001 1658.328,1263.727 
													"/>
						<polygon fill="#6C54A3" points="1659.262,1275.25 1662.464,1275.25 1660.396,1270.073 1658.036,1268.983 1655.356,1267.744 
							1659.722,1271.824 						"/>
						<polygon fill="#6C54A3" points="1667.419,1305.023 1670.218,1305.533 1667.891,1299.321 1665.914,1298.586 1666.364,1300.166 
													"/>
					</g>
					<g>
						<polygon fill="none" points="1655.356,1261.791 1654.634,1261.502 1653.453,1261.029 1653.403,1261.791 1654.757,1261.791 
													"/>
						<polygon fill="#170B36" points="1652.88,1253.47 1651.48,1260.239 1653.453,1261.029 1654.453,1245.874 						"/>
						<polygon fill="#251258" points="1674.017,1339.786 1673.539,1334.808 1668.15,1330.121 1672.149,1330.121 1672.645,1330.121 
							1670.84,1324.169 1664.5,1318.711 1663.562,1318.474 1664.035,1318.31 1662.61,1317.084 1668.53,1310.143 1668.027,1307.827 
							1664.236,1305.526 1661.688,1303.98 1664,1304.401 1667.419,1305.023 1666.364,1300.166 1665.914,1298.586 1662.683,1297.385 
							1661.623,1296.992 1662.614,1296.992 1665.459,1296.992 1659.695,1276.772 1659.476,1276.646 1657.036,1275.25 
							1659.262,1275.25 1659.722,1271.824 1655.356,1267.744 1658.328,1263.727 1655.031,1248.001 1654.453,1245.874 
							1653.453,1261.029 1654.634,1261.502 1655.356,1261.791 1654.757,1261.791 1653.403,1261.791 1652.9,1269.417 
							1657.713,1286.882 1651.279,1290.255 1657.036,1305.533 1650.426,1326.463 1659.695,1337.224 1654.279,1350.051 
							1662.918,1350.051 1674.832,1350.051 1677.916,1347.305 						"/>
						<polygon fill="#170B36" points="1650.426,1326.463 1657.036,1305.533 1651.279,1290.255 1657.713,1286.882 1652.9,1269.417 
							1653.403,1261.791 1651.091,1261.791 1650.503,1264.642 1647.731,1278.097 1652.642,1279.909 1646.698,1281.203 
							1643.079,1293.368 1651.091,1295.957 1642.304,1298.286 1639.977,1308.639 1646.439,1310.71 1637.91,1315.627 
							1633.516,1333.745 1647.731,1336.851 1631.706,1339.698 1630.156,1350.051 1654.279,1350.051 1659.695,1337.224 						"/>
					</g>
				</g>
				<path opacity="0.66" fill="#170B36" d="M1659.124,1372.136l-10.74-3.463l8.471-3.132l-1.741-0.588l-0.592-0.2l-8.791,3.064
					l-2.272-0.733l-6.02-1.941l-3.227-1.041l-4.962,2.289c-0.502,0.512-1.067,1.025-1.694,1.538l-0.2,0.803l-0.517,2.072l-2.3-0.691
					l-0.287-0.086l-2.198-0.661l-5.162,3.316l1.526,0.944l1.377,0.852l0.374,0.232l-0.428-0.036l-2.901-0.246l-4.292-0.364
					l-5.026,2.214l0.184,0.816l0.323,1.426l0.22,0.969l-1.156-0.559l-1.716-0.829l-1.41-0.681l-4.761,2.505l0.638,0.624l1.045,1.022
					l0.344,0.336l-0.709-0.183l-2.05-0.528l-1.767-0.455l-18.052,8.461l0.241,1.248l0.019,0.1l0.215,1.111l-1.896-0.425
					l-2.755-0.618l-5.472,2.894l0.55,1.005l0.627,1.148l-2.021-0.427l-2.587-0.547l-28.016,12.767l-3.494,1.592l15.818-4.769
					l12.595-3.797l-0.656-0.827l1.24-0.419l2.194,0.441l4.821-1.455l20.328-6.136l-1.723-1.717l6.224,0.522l15.68-4.317
					l-2.988-2.383l8.232,0.695l10.559-3.146l-2.243-1.752l9.009-0.096l14.897-4.354l-5.318-3.018l9.839,1.805L1659.124,1372.136z"/>
			</g>
			<g>
				<g>
					<polygon fill="#080B4A" points="1599.553,1352.385 1599.708,1362.899 1602.378,1362.899 1602.378,1352.385 					"/>
					<rect x="1602.378" y="1352.385" fill="#6C54A3" width="0.902" height="10.514"/>
					<g>
						<polygon fill="#6C54A3" points="1606.22,1329.751 1607.198,1330.593 1609.372,1329.838 1612.508,1328.75 1611.443,1324.308 
							1609.939,1323.395 1610.285,1324.985 						"/>
						<polygon fill="#6C54A3" points="1613.11,1338.702 1615.702,1338.702 1612.508,1332.127 1609.887,1331.466 1607.518,1330.868 
							1611.871,1334.615 						"/>
						<polygon fill="#6C54A3" points="1609.846,1315.956 1606.119,1303.161 1604.219,1302.073 1608.176,1315.956 						"/>
						<path fill="#6C54A3" d="M1617.238,1346.298c-0.729-1.016-1.412-2.051-2.049-3.104l-1.465-1.274l0.328,3.417l2.677,5.162
							l-2.118,1.885h4.285L1617.238,1346.298z"/>
						<polygon fill="#6C54A3" points="1601.239,1295.875 1602.765,1295.875 1604.7,1295.875 1601.016,1282.32 1603.28,1293.117 
													"/>
						<polygon fill="#6C54A3" points="1603.921,1301.029 1606.119,1301.029 1604.7,1297.475 1603.079,1296.726 1601.239,1295.875 
							1604.237,1298.677 						"/>
						<polygon fill="#6C54A3" points="1609.521,1321.47 1611.443,1321.82 1609.846,1317.555 1608.488,1317.05 1608.797,1318.135 
													"/>
					</g>
					<g>
						<polygon fill="none" points="1601.239,1291.788 1600.744,1291.589 1599.933,1291.265 1599.899,1291.788 1600.828,1291.788 
													"/>
						<polygon fill="#170B36" points="1599.54,1286.075 1598.578,1290.722 1599.933,1291.265 1600.619,1280.859 						"/>
						<polygon fill="#251258" points="1614.052,1345.337 1613.724,1341.92 1610.023,1338.702 1612.769,1338.702 1613.11,1338.702 
							1611.871,1334.615 1607.518,1330.868 1606.873,1330.705 1607.198,1330.593 1606.22,1329.751 1610.285,1324.985 
							1609.939,1323.395 1607.337,1321.815 1605.587,1320.754 1607.174,1321.043 1609.521,1321.47 1608.797,1318.135 
							1608.488,1317.05 1606.27,1316.226 1605.542,1315.956 1606.222,1315.956 1608.176,1315.956 1604.219,1302.073 
							1604.068,1301.987 1602.393,1301.029 1603.921,1301.029 1604.237,1298.677 1601.239,1295.875 1603.28,1293.117 
							1601.016,1282.32 1600.619,1280.859 1599.933,1291.265 1600.744,1291.589 1601.239,1291.788 1600.828,1291.788 
							1599.899,1291.788 1599.553,1297.024 1602.858,1309.015 1598.44,1311.33 1602.393,1321.82 1597.855,1336.19 
							1604.219,1343.578 1600.5,1352.385 1606.431,1352.385 1614.611,1352.385 1616.729,1350.5 						"/>
						<polygon fill="#170B36" points="1597.855,1336.19 1602.393,1321.82 1598.44,1311.33 1602.858,1309.015 1599.553,1297.024 
							1599.899,1291.788 1598.312,1291.788 1597.908,1293.746 1596.005,1302.984 1599.376,1304.227 1595.295,1305.116 
							1592.81,1313.468 1598.312,1315.245 1592.278,1316.844 1590.681,1323.953 1595.117,1325.374 1589.261,1328.75 
							1586.245,1341.19 1596.005,1343.322 1585.002,1345.277 1583.938,1352.385 1600.5,1352.385 1604.219,1343.578 						"/>
					</g>
				</g>
				<path opacity="0.66" fill="#170B36" d="M1603.827,1367.548l-7.374-2.378l5.816-2.15l-1.196-0.404l-0.406-0.137l-6.035,2.104
					l-1.56-0.503l-4.133-1.333l-2.216-0.715l-3.406,1.572c-0.344,0.352-0.732,0.703-1.163,1.056l-0.138,0.552l-0.355,1.422
					l-1.579-0.475l-0.197-0.059l-1.509-0.454l-3.544,2.276l1.047,0.648l0.945,0.585l0.257,0.159l-0.294-0.025l-1.992-0.169
					l-2.947-0.25l-3.451,1.52l0.127,0.56l0.221,0.979l0.151,0.665l-0.794-0.384l-1.178-0.569l-0.968-0.468l-3.269,1.72l0.438,0.429
					l0.718,0.702l0.236,0.23l-0.487-0.125l-1.407-0.363l-1.213-0.313l-12.394,5.809l0.165,0.857l0.013,0.068l0.148,0.763
					l-1.302-0.292l-1.892-0.424l-3.757,1.987l0.378,0.69l0.431,0.788l-1.387-0.293l-1.776-0.376l-19.235,8.765l-2.399,1.093
					l10.86-3.274l8.648-2.607l-0.451-0.568l0.851-0.288l1.506,0.302l3.31-0.999l13.957-4.213l-1.183-1.178l4.273,0.358l10.766-2.964
					l-2.052-1.636l5.652,0.477l7.249-2.16l-1.54-1.203l6.185-0.066l10.228-2.989l-3.651-2.072l6.755,1.239L1603.827,1367.548z"/>
			</g>
			<g>
				<g>
					<polygon fill="#080B4A" points="1802.302,1334.095 1802.492,1347.023 1805.774,1347.023 1805.774,1334.095 					"/>
					<rect x="1805.774" y="1334.095" fill="#6C54A3" width="1.109" height="12.927"/>
					<g>
						<polygon fill="#6C54A3" points="1810.498,1306.267 1811.701,1307.302 1814.374,1306.375 1818.229,1305.037 1816.92,1299.575 
							1815.071,1298.453 1815.496,1300.408 						"/>
						<polygon fill="#6C54A3" points="1818.969,1317.272 1822.156,1317.272 1818.229,1309.188 1815.006,1308.375 1812.094,1307.641 
							1817.446,1312.248 						"/>
						<polygon fill="#6C54A3" points="1814.957,1289.306 1810.375,1273.575 1808.038,1272.238 1812.904,1289.306 						"/>
						<path fill="#6C54A3" d="M1824.045,1326.611c-0.897-1.25-1.736-2.522-2.52-3.816l-1.801-1.567l0.403,4.202l3.291,6.347
							l-2.604,2.318h5.269L1824.045,1326.611z"/>
						<polygon fill="#6C54A3" points="1804.375,1264.617 1806.251,1264.617 1808.629,1264.617 1804.1,1247.951 1806.884,1261.226 
													"/>
						<polygon fill="#6C54A3" points="1807.672,1270.953 1810.375,1270.953 1808.629,1266.583 1806.637,1265.663 1804.375,1264.617 
							1808.06,1268.062 						"/>
						<polygon fill="#6C54A3" points="1814.558,1296.086 1816.92,1296.516 1814.957,1291.272 1813.287,1290.652 1813.667,1291.986 
													"/>
					</g>
					<g>
						<polygon fill="none" points="1804.375,1259.592 1803.766,1259.348 1802.769,1258.949 1802.726,1259.592 1803.869,1259.592 
													"/>
						<polygon fill="#170B36" points="1802.285,1252.568 1801.103,1258.281 1802.769,1258.949 1803.612,1246.156 						"/>
						<polygon fill="#251258" points="1820.128,1325.43 1819.724,1321.229 1815.175,1317.272 1818.551,1317.272 1818.969,1317.272 
							1817.446,1312.248 1812.094,1307.641 1811.302,1307.441 1811.701,1307.302 1810.498,1306.267 1815.496,1300.408 
							1815.071,1298.453 1811.871,1296.51 1809.72,1295.205 1811.672,1295.561 1814.558,1296.086 1813.667,1291.986 
							1813.287,1290.652 1810.56,1289.638 1809.665,1289.306 1810.501,1289.306 1812.904,1289.306 1808.038,1272.238 
							1807.853,1272.132 1805.793,1270.953 1807.672,1270.953 1808.06,1268.062 1804.375,1264.617 1806.884,1261.226 
							1804.1,1247.951 1803.612,1246.156 1802.769,1258.949 1803.766,1259.348 1804.375,1259.592 1803.869,1259.592 
							1802.726,1259.592 1802.302,1266.03 1806.365,1280.772 1800.933,1283.619 1805.793,1296.516 1800.213,1314.184 
							1808.038,1323.267 1803.466,1334.095 1810.758,1334.095 1820.815,1334.095 1823.419,1331.778 						"/>
						<polygon fill="#170B36" points="1800.213,1314.184 1805.793,1296.516 1800.933,1283.619 1806.365,1280.772 1802.302,1266.03 
							1802.726,1259.592 1800.775,1259.592 1800.279,1261.999 1797.939,1273.357 1802.084,1274.886 1797.066,1275.979 
							1794.011,1286.247 1800.775,1288.432 1793.357,1290.399 1791.393,1299.138 1796.848,1300.886 1789.648,1305.037 
							1785.939,1320.331 1797.939,1322.953 1784.411,1325.356 1783.102,1334.095 1803.466,1334.095 1808.038,1323.267 						"/>
					</g>
				</g>
				<path opacity="0.66" fill="#170B36" d="M1807.556,1352.738l-9.066-2.923l7.151-2.644l-1.47-0.496l-0.5-0.169l-7.421,2.587
					l-1.918-0.619l-5.082-1.639l-2.724-0.879l-4.188,1.932c-0.423,0.433-0.901,0.865-1.43,1.298l-0.169,0.678l-0.436,1.749
					l-1.942-0.584l-0.242-0.073l-1.856-0.558l-4.357,2.799l1.288,0.797l1.162,0.719l0.316,0.196l-0.361-0.031l-2.449-0.208
					l-3.623-0.307l-4.243,1.869l0.156,0.689l0.272,1.204l0.186,0.818l-0.976-0.472l-1.448-0.7l-1.19-0.575l-4.019,2.114l0.539,0.527
					l0.882,0.863l0.29,0.283l-0.598-0.154l-1.73-0.446l-1.491-0.384l-15.238,7.143l0.203,1.053l0.016,0.084l0.181,0.938
					l-1.601-0.359l-2.326-0.522l-4.619,2.443l0.464,0.849l0.53,0.97l-1.706-0.361l-2.184-0.462l-23.649,10.777l-2.949,1.344
					l13.352-4.025l10.632-3.205l-0.554-0.698l1.046-0.354l1.852,0.372l4.07-1.228l17.16-5.18l-1.455-1.449l5.254,0.44l13.236-3.644
					l-2.522-2.012l6.949,0.587l8.913-2.656l-1.894-1.479l7.604-0.081l12.575-3.675l-4.489-2.547l8.306,1.523L1807.556,1352.738z"/>
			</g>
			<g>
				<g>
					<polygon fill="#080B4A" points="1693.199,1359.473 1693.562,1384.166 1699.832,1384.166 1699.832,1359.473 					"/>
					<rect x="1699.832" y="1359.473" fill="#6C54A3" width="2.119" height="24.693"/>
					<g>
						<polygon fill="#6C54A3" points="1708.855,1306.316 1711.152,1308.294 1716.258,1306.522 1723.623,1303.967 1721.122,1293.534 
							1717.59,1291.391 1718.401,1295.125 						"/>
						<polygon fill="#6C54A3" points="1725.036,1327.338 1731.124,1327.338 1723.623,1311.897 1717.466,1310.344 1711.903,1308.94 
							1722.126,1317.741 						"/>
						<polygon fill="#6C54A3" points="1717.371,1273.919 1708.619,1243.871 1704.156,1241.316 1713.45,1273.919 						"/>
						<path fill="#6C54A3" d="M1734.732,1345.177c-1.713-2.387-3.315-4.817-4.813-7.289l-3.441-2.992l0.771,8.026l6.286,12.124
							l-4.973,4.427h10.064L1734.732,1345.177z"/>
						<polygon fill="#6C54A3" points="1697.158,1226.759 1700.742,1226.759 1705.285,1226.759 1696.634,1194.925 1701.951,1220.282 
													"/>
						<polygon fill="#6C54A3" points="1703.456,1238.863 1708.619,1238.863 1705.285,1230.516 1701.479,1228.757 1697.158,1226.759 
							1704.199,1233.339 						"/>
						<polygon fill="#6C54A3" points="1716.609,1286.87 1721.122,1287.691 1717.371,1277.675 1714.183,1276.49 1714.909,1279.037 
													"/>
					</g>
					<g>
						<polygon fill="none" points="1697.158,1217.161 1695.995,1216.694 1694.091,1215.932 1694.01,1217.161 1696.193,1217.161 
													"/>
						<polygon fill="#170B36" points="1693.167,1203.744 1690.908,1214.657 1694.091,1215.932 1695.702,1191.495 						"/>
						<polygon fill="#251258" points="1727.249,1342.921 1726.478,1334.896 1717.788,1327.338 1724.237,1327.338 1725.036,1327.338 
							1722.126,1317.741 1711.903,1308.94 1710.39,1308.558 1711.152,1308.294 1708.855,1306.316 1718.401,1295.125 
							1717.59,1291.391 1711.478,1287.68 1707.369,1285.187 1711.097,1285.866 1716.609,1286.87 1714.909,1279.037 
							1714.183,1276.49 1708.972,1274.553 1707.264,1273.919 1708.861,1273.919 1713.45,1273.919 1704.156,1241.316 
							1703.802,1241.114 1699.867,1238.863 1703.456,1238.863 1704.199,1233.339 1697.158,1226.759 1701.951,1220.282 
							1696.634,1194.925 1695.702,1191.495 1694.091,1215.932 1695.995,1216.694 1697.158,1217.161 1696.193,1217.161 
							1694.01,1217.161 1693.199,1229.458 1700.959,1257.618 1690.584,1263.056 1699.867,1287.691 1689.209,1321.44 
							1704.156,1338.79 1695.422,1359.473 1709.352,1359.473 1728.562,1359.473 1733.535,1355.045 						"/>
						<polygon fill="#170B36" points="1689.209,1321.44 1699.867,1287.691 1690.584,1263.056 1700.959,1257.618 1693.199,1229.458 
							1694.01,1217.161 1690.282,1217.161 1689.334,1221.758 1684.865,1243.453 1692.783,1246.375 1683.198,1248.461 
							1677.363,1268.076 1690.282,1272.25 1676.113,1276.006 1672.362,1292.699 1682.781,1296.038 1669.028,1303.967 
							1661.944,1333.18 1684.865,1338.189 1659.026,1342.779 1656.525,1359.473 1695.422,1359.473 1704.156,1338.79 						"/>
					</g>
				</g>
				<path opacity="0.66" fill="#170B36" d="M1703.235,1395.083l-17.317-5.584l13.659-5.05l-2.808-0.948l-0.954-0.322l-14.174,4.941
					l-3.663-1.181l-9.707-3.13l-5.204-1.678l-8,3.691c-0.809,0.826-1.72,1.652-2.731,2.48l-0.323,1.296l-0.833,3.34l-3.709-1.115
					l-0.462-0.139l-3.545-1.065l-8.323,5.346l2.46,1.523l2.22,1.374l0.604,0.374l-0.691-0.059l-4.678-0.397l-6.92-0.587l-8.104,3.57
					l0.297,1.315l0.52,2.3l0.354,1.563l-1.864-0.901l-2.766-1.336l-2.273-1.098l-7.677,4.038l1.029,1.007l1.685,1.649l0.555,0.541
					l-1.143-0.295l-3.305-0.852l-2.849-0.734l-29.107,13.644l0.388,2.012l0.031,0.161l0.347,1.792l-3.057-0.686l-4.443-0.996
					l-8.823,4.666l0.887,1.621l1.012,1.852l-3.258-0.689l-4.172-0.882l-45.173,20.585l-5.633,2.567l25.505-7.689l20.309-6.123
					l-1.058-1.333l1.999-0.676l3.538,0.711l7.774-2.346l32.777-9.895l-2.778-2.768l10.035,0.841l25.283-6.961l-4.818-3.842
					l13.273,1.12l17.025-5.073l-3.617-2.825l14.526-0.155l24.02-7.021l-8.575-4.866l15.865,2.91L1703.235,1395.083z"/>
			</g>
		</g>
		<g>
			<linearGradient id="SVGID_6_" gradientUnits="userSpaceOnUse" x1="1073.9929" y1="1227.5255" x2="1073.9929" y2="1513.6998">
				<stop  offset="0.0036" style="stop-color:#6C54A3"/>
				<stop  offset="0.1308" style="stop-color:#59438F"/>
				<stop  offset="0.3582" style="stop-color:#3C2A71"/>
				<stop  offset="0.5819" style="stop-color:#28185B"/>
				<stop  offset="0.7983" style="stop-color:#1B0D4E"/>
				<stop  offset="0.999" style="stop-color:#17094A"/>
			</linearGradient>
			<path fill="url(#SVGID_6_)" d="M1874.903,1538.605c-629.81-430.961-1223.514-356.17-1601.819-143.141l5.441,143.141H1874.903z"/>
		</g>
		<g>
			<g>
				<g>
					<polygon fill="#080B4A" points="1263.353,1294.443 1263.49,1303.79 1265.863,1303.79 1265.863,1294.443 					"/>
					<rect x="1265.863" y="1294.443" fill="#6C54A3" width="0.802" height="9.347"/>
					<g>
						<polygon fill="#6C54A3" points="1269.279,1274.322 1270.148,1275.071 1272.081,1274.4 1274.869,1273.433 1273.922,1269.484 
							1272.585,1268.672 1272.892,1270.086 						"/>
						<polygon fill="#6C54A3" points="1275.404,1282.279 1277.708,1282.279 1274.869,1276.434 1272.538,1275.846 1270.433,1275.315 
							1274.302,1278.646 						"/>
						<polygon fill="#6C54A3" points="1272.502,1262.059 1269.19,1250.685 1267.5,1249.718 1271.018,1262.059 						"/>
						<path fill="#6C54A3" d="M1279.074,1289.032c-0.648-0.903-1.255-1.823-1.822-2.759l-1.302-1.133l0.292,3.038l2.38,4.589
							l-1.883,1.676h3.81L1279.074,1289.032z"/>
						<polygon fill="#6C54A3" points="1264.851,1244.208 1266.208,1244.208 1267.927,1244.208 1264.653,1232.157 1266.665,1241.756 
													"/>
						<polygon fill="#6C54A3" points="1267.235,1248.789 1269.19,1248.789 1267.927,1245.63 1266.487,1244.964 1264.851,1244.208 
							1267.516,1246.698 						"/>
						<polygon fill="#6C54A3" points="1272.214,1266.961 1273.922,1267.272 1272.502,1263.48 1271.295,1263.032 1271.57,1263.996 
													"/>
					</g>
					<g>
						<polygon fill="none" points="1264.851,1240.574 1264.411,1240.398 1263.69,1240.109 1263.659,1240.574 1264.486,1240.574 
													"/>
						<polygon fill="#170B36" points="1263.341,1235.496 1262.486,1239.627 1263.69,1240.109 1264.3,1230.859 						"/>
						<polygon fill="#251258" points="1276.241,1288.178 1275.95,1285.14 1272.66,1282.279 1275.101,1282.279 1275.404,1282.279 
							1274.302,1278.646 1270.433,1275.315 1269.86,1275.171 1270.148,1275.071 1269.279,1274.322 1272.892,1270.086 
							1272.585,1268.672 1270.272,1267.268 1268.716,1266.324 1270.127,1266.581 1272.214,1266.961 1271.57,1263.996 
							1271.295,1263.032 1269.323,1262.299 1268.677,1262.059 1269.281,1262.059 1271.018,1262.059 1267.5,1249.718 
							1267.366,1249.641 1265.877,1248.789 1267.235,1248.789 1267.516,1246.698 1264.851,1244.208 1266.665,1241.756 
							1264.653,1232.157 1264.3,1230.859 1263.69,1240.109 1264.411,1240.398 1264.851,1240.574 1264.486,1240.574 
							1263.659,1240.574 1263.353,1245.229 1266.29,1255.888 1262.363,1257.947 1265.877,1267.272 1261.842,1280.047 
							1267.5,1286.614 1264.194,1294.443 1269.467,1294.443 1276.738,1294.443 1278.621,1292.767 						"/>
						<polygon fill="#170B36" points="1261.842,1280.047 1265.877,1267.272 1262.363,1257.947 1266.29,1255.888 1263.353,1245.229 
							1263.659,1240.574 1262.249,1240.574 1261.89,1242.315 1260.198,1250.527 1263.195,1251.633 1259.567,1252.422 
							1257.358,1259.847 1262.249,1261.427 1256.885,1262.849 1255.465,1269.168 1259.409,1270.431 1254.203,1273.433 
							1251.522,1284.491 1260.198,1286.386 1250.417,1288.124 1249.471,1294.443 1264.194,1294.443 1267.5,1286.614 						"/>
					</g>
				</g>
				<path opacity="0.66" fill="#170B36" d="M1267.151,1307.923l-6.555-2.114l5.17-1.911l-1.063-0.359l-0.361-0.122l-5.365,1.87
					l-1.387-0.447l-3.674-1.185l-1.97-0.635l-3.028,1.397c-0.306,0.313-0.651,0.625-1.034,0.939l-0.122,0.49l-0.315,1.264
					l-1.404-0.422l-0.175-0.053l-1.342-0.403l-3.151,2.024l0.931,0.576l0.84,0.52l0.229,0.141l-0.261-0.022l-1.771-0.15
					l-2.619-0.222l-3.068,1.351l0.113,0.498l0.197,0.871l0.134,0.592l-0.706-0.341l-1.047-0.506l-0.86-0.416l-2.906,1.529
					l0.39,0.381l0.638,0.624l0.21,0.205l-0.433-0.112l-1.251-0.323l-1.078-0.278l-11.018,5.164l0.147,0.762l0.012,0.061l0.131,0.678
					l-1.157-0.26l-1.682-0.377l-3.34,1.766l0.336,0.614l0.383,0.701l-1.233-0.261l-1.579-0.334l-17.099,7.792l-2.132,0.972
					l9.654-2.911l7.688-2.318l-0.401-0.505l0.757-0.256l1.339,0.269l2.943-0.888l12.407-3.745l-1.052-1.048l3.798,0.318l9.57-2.635
					l-1.824-1.454l5.024,0.424l6.444-1.92l-1.369-1.069l5.498-0.058l9.092-2.657l-3.246-1.842l6.005,1.101L1267.151,1307.923z"/>
			</g>
			<g>
				<g>
					<polygon fill="#080B4A" points="1230.793,1295.868 1230.887,1302.285 1232.517,1302.285 1232.517,1295.868 					"/>
					<rect x="1232.517" y="1295.868" fill="#6C54A3" width="0.551" height="6.417"/>
					<g>
						<polygon fill="#6C54A3" points="1234.862,1282.053 1235.459,1282.567 1236.785,1282.107 1238.699,1281.443 1238.05,1278.731 
							1237.132,1278.174 1237.342,1279.145 						"/>
						<polygon fill="#6C54A3" points="1239.067,1287.516 1240.649,1287.516 1238.699,1283.503 1237.099,1283.1 1235.654,1282.735 
							1238.311,1285.022 						"/>
						<polygon fill="#6C54A3" points="1237.075,1273.634 1234.8,1265.824 1233.64,1265.161 1236.056,1273.634 						"/>
						<path fill="#6C54A3" d="M1241.587,1292.153c-0.445-0.62-0.862-1.252-1.251-1.894l-0.894-0.778l0.2,2.086l1.634,3.151
							l-1.293,1.151h2.616L1241.587,1292.153z"/>
						<polygon fill="#6C54A3" points="1231.822,1261.377 1232.753,1261.377 1233.934,1261.377 1231.685,1253.104 1233.067,1259.694 
													"/>
						<polygon fill="#6C54A3" points="1233.458,1264.523 1234.8,1264.523 1233.934,1262.354 1232.945,1261.896 1231.822,1261.377 
							1233.651,1263.087 						"/>
						<polygon fill="#6C54A3" points="1236.877,1276.999 1238.05,1277.213 1237.075,1274.61 1236.246,1274.302 1236.435,1274.964 
													"/>
					</g>
					<g>
						<polygon fill="none" points="1231.822,1258.883 1231.519,1258.762 1231.024,1258.563 1231.003,1258.883 1231.571,1258.883 
													"/>
						<polygon fill="#170B36" points="1230.784,1255.396 1230.197,1258.232 1231.024,1258.563 1231.443,1252.213 						"/>
						<polygon fill="#251258" points="1239.642,1291.566 1239.442,1289.48 1237.183,1287.516 1238.859,1287.516 1239.067,1287.516 
							1238.311,1285.022 1235.654,1282.735 1235.26,1282.636 1235.459,1282.567 1234.862,1282.053 1237.342,1279.145 
							1237.132,1278.174 1235.543,1277.21 1234.475,1276.562 1235.444,1276.738 1236.877,1276.999 1236.435,1274.964 
							1236.246,1274.302 1234.892,1273.798 1234.448,1273.634 1234.863,1273.634 1236.056,1273.634 1233.64,1265.161 
							1233.548,1265.108 1232.526,1264.523 1233.458,1264.523 1233.651,1263.087 1231.822,1261.377 1233.067,1259.694 
							1231.685,1253.104 1231.443,1252.213 1231.024,1258.563 1231.519,1258.762 1231.822,1258.883 1231.571,1258.883 
							1231.003,1258.883 1230.793,1262.079 1232.81,1269.397 1230.113,1270.81 1232.526,1277.213 1229.756,1285.984 
							1233.64,1290.493 1231.37,1295.868 1234.991,1295.868 1239.983,1295.868 1241.276,1294.717 						"/>
						<polygon fill="#170B36" points="1229.756,1285.984 1232.526,1277.213 1230.113,1270.81 1232.81,1269.397 1230.793,1262.079 
							1231.003,1258.883 1230.035,1258.883 1229.788,1260.078 1228.627,1265.716 1230.685,1266.475 1228.194,1267.017 
							1226.677,1272.115 1230.035,1273.2 1226.352,1274.176 1225.378,1278.514 1228.085,1279.382 1224.511,1281.443 
							1222.67,1289.035 1228.627,1290.336 1221.912,1291.529 1221.262,1295.868 1231.37,1295.868 1233.64,1290.493 						"/>
					</g>
				</g>
				<path opacity="0.66" fill="#170B36" d="M1233.401,1305.122l-4.501-1.451l3.55-1.312l-0.73-0.246l-0.248-0.084l-3.684,1.284
					l-0.952-0.307l-2.523-0.814l-1.352-0.436l-2.079,0.959c-0.21,0.215-0.447,0.429-0.71,0.644l-0.084,0.337l-0.217,0.868
					l-0.964-0.29l-0.12-0.036l-0.921-0.277l-2.163,1.389l0.639,0.396l0.577,0.357l0.157,0.097l-0.179-0.015l-1.216-0.103
					l-1.798-0.153l-2.106,0.928l0.077,0.342l0.135,0.598l0.092,0.406l-0.484-0.234l-0.719-0.347l-0.591-0.285l-1.995,1.05
					l0.267,0.262l0.438,0.428l0.144,0.141l-0.297-0.077l-0.859-0.221l-0.74-0.191l-7.564,3.546l0.101,0.523l0.008,0.042l0.09,0.466
					l-0.794-0.178l-1.155-0.259l-2.293,1.213l0.231,0.421l0.263,0.481l-0.847-0.179l-1.084-0.229l-11.74,5.35l-1.464,0.667
					l6.628-1.998l5.278-1.591l-0.275-0.346l0.519-0.176l0.919,0.185l2.02-0.61l8.518-2.571l-0.722-0.719l2.608,0.219l6.571-1.809
					l-1.252-0.999l3.45,0.291l4.424-1.318l-0.94-0.734l3.775-0.04l6.242-1.824l-2.228-1.265l4.123,0.756L1233.401,1305.122z"/>
			</g>
			<g>
				<g>
					<polygon fill="#080B4A" points="1354.539,1284.705 1354.655,1292.595 1356.659,1292.595 1356.659,1284.705 					"/>
					<rect x="1356.659" y="1284.705" fill="#6C54A3" width="0.677" height="7.89"/>
					<g>
						<polygon fill="#6C54A3" points="1359.542,1267.72 1360.276,1268.352 1361.907,1267.786 1364.26,1266.969 1363.461,1263.636 
							1362.333,1262.951 1362.592,1264.144 						"/>
						<polygon fill="#6C54A3" points="1364.712,1274.437 1366.657,1274.437 1364.26,1269.503 1362.293,1269.007 1360.516,1268.558 
							1363.782,1271.37 						"/>
						<polygon fill="#6C54A3" points="1362.263,1257.368 1359.466,1247.767 1358.04,1246.951 1361.01,1257.368 						"/>
						<path fill="#6C54A3" d="M1367.81,1280.137c-0.547-0.763-1.059-1.539-1.538-2.329l-1.099-0.956l0.246,2.564l2.009,3.874
							l-1.589,1.415h3.216L1367.81,1280.137z"/>
						<polygon fill="#6C54A3" points="1355.804,1242.299 1356.949,1242.299 1358.401,1242.299 1355.637,1232.127 1357.336,1240.229 
													"/>
						<polygon fill="#6C54A3" points="1357.817,1246.167 1359.466,1246.167 1358.401,1243.499 1357.185,1242.938 1355.804,1242.299 
							1358.054,1244.401 						"/>
						<polygon fill="#6C54A3" points="1362.019,1261.506 1363.461,1261.769 1362.263,1258.568 1361.244,1258.189 1361.476,1259.003 
													"/>
					</g>
					<g>
						<polygon fill="none" points="1355.804,1239.232 1355.433,1239.083 1354.824,1238.839 1354.798,1239.232 1355.496,1239.232 
													"/>
						<polygon fill="#170B36" points="1354.529,1234.945 1353.807,1238.432 1354.824,1238.839 1355.339,1231.031 						"/>
						<polygon fill="#251258" points="1365.419,1279.416 1365.173,1276.852 1362.396,1274.437 1364.457,1274.437 1364.712,1274.437 
							1363.782,1271.37 1360.516,1268.558 1360.032,1268.436 1360.276,1268.352 1359.542,1267.72 1362.592,1264.144 
							1362.333,1262.951 1360.38,1261.765 1359.067,1260.968 1360.258,1261.185 1362.019,1261.506 1361.476,1259.003 
							1361.244,1258.189 1359.579,1257.571 1359.033,1257.368 1359.544,1257.368 1361.01,1257.368 1358.04,1246.951 
							1357.927,1246.886 1356.67,1246.167 1357.817,1246.167 1358.054,1244.401 1355.804,1242.299 1357.336,1240.229 
							1355.637,1232.127 1355.339,1231.031 1354.824,1238.839 1355.433,1239.083 1355.804,1239.232 1355.496,1239.232 
							1354.798,1239.232 1354.539,1243.161 1357.019,1252.159 1353.704,1253.897 1356.67,1261.769 1353.264,1272.552 
							1358.04,1278.096 1355.249,1284.705 1359.701,1284.705 1365.839,1284.705 1367.428,1283.29 						"/>
						<polygon fill="#170B36" points="1353.264,1272.552 1356.67,1261.769 1353.704,1253.897 1357.019,1252.159 1354.539,1243.161 
							1354.798,1239.232 1353.607,1239.232 1353.304,1240.701 1351.876,1247.633 1354.406,1248.567 1351.344,1249.234 
							1349.479,1255.501 1353.607,1256.835 1349.08,1258.035 1347.881,1263.369 1351.21,1264.436 1346.816,1266.969 
							1344.552,1276.304 1351.876,1277.904 1343.62,1279.371 1342.821,1284.705 1355.249,1284.705 1358.04,1278.096 						"/>
					</g>
				</g>
				<path opacity="0.66" fill="#170B36" d="M1357.746,1296.083l-5.533-1.784l4.364-1.614l-0.897-0.303l-0.305-0.103l-4.529,1.579
					l-1.17-0.378l-3.102-1l-1.663-0.536l-2.556,1.18c-0.258,0.264-0.55,0.528-0.873,0.792l-0.103,0.414l-0.266,1.068l-1.185-0.356
					l-0.148-0.044l-1.133-0.34l-2.659,1.708l0.786,0.486l0.709,0.439l0.193,0.119l-0.221-0.019l-1.495-0.127l-2.211-0.188
					l-2.589,1.141l0.095,0.42l0.166,0.735l0.113,0.499l-0.596-0.288l-0.884-0.427l-0.726-0.351l-2.453,1.29l0.329,0.322l0.538,0.527
					l0.177,0.173l-0.365-0.094l-1.056-0.272l-0.91-0.234l-9.301,4.359l0.124,0.643l0.01,0.051l0.111,0.573l-0.977-0.219
					l-1.419-0.318l-2.819,1.491l0.284,0.518l0.323,0.592l-1.041-0.22l-1.333-0.282l-14.434,6.578l-1.8,0.82l8.149-2.457l6.489-1.956
					l-0.338-0.426l0.639-0.216l1.13,0.227l2.484-0.75l10.473-3.162l-0.888-0.884l3.207,0.269l8.078-2.224l-1.54-1.228l4.241,0.358
					l5.44-1.621l-1.156-0.903l4.641-0.05l7.675-2.243l-2.74-1.555l5.069,0.93L1357.746,1296.083z"/>
			</g>
			<g>
				<g>
					<polygon fill="#080B4A" points="1287.949,1300.194 1288.171,1315.265 1291.997,1315.265 1291.997,1300.194 					"/>
					<rect x="1291.997" y="1300.194" fill="#6C54A3" width="1.293" height="15.071"/>
					<g>
						<polygon fill="#6C54A3" points="1297.505,1267.75 1298.907,1268.957 1302.023,1267.876 1306.518,1266.316 1304.991,1259.949 
							1302.836,1258.64 1303.331,1260.919 						"/>
						<polygon fill="#6C54A3" points="1307.38,1280.581 1311.096,1280.581 1306.518,1271.156 1302.76,1270.208 1299.365,1269.351 
							1305.604,1274.723 						"/>
						<polygon fill="#6C54A3" points="1302.702,1247.977 1297.361,1229.637 1294.636,1228.078 1300.309,1247.977 						"/>
						<path fill="#6C54A3" d="M1313.298,1291.469c-1.046-1.457-2.023-2.94-2.938-4.449l-2.1-1.826l0.47,4.898l3.837,7.4
							l-3.035,2.702h6.143L1313.298,1291.469z"/>
						<polygon fill="#6C54A3" points="1290.365,1219.193 1292.553,1219.193 1295.325,1219.193 1290.045,1199.763 1293.29,1215.24 
													"/>
						<polygon fill="#6C54A3" points="1294.209,1226.58 1297.361,1226.58 1295.325,1221.485 1293.003,1220.412 1290.365,1219.193 
							1294.662,1223.209 						"/>
						<polygon fill="#6C54A3" points="1302.237,1255.881 1304.991,1256.382 1302.702,1250.269 1300.756,1249.546 1301.199,1251.1 
													"/>
					</g>
					<g>
						<polygon fill="none" points="1290.365,1213.335 1289.655,1213.05 1288.493,1212.584 1288.444,1213.335 1289.776,1213.335 
													"/>
						<polygon fill="#170B36" points="1287.929,1205.146 1286.551,1211.806 1288.493,1212.584 1289.477,1197.67 						"/>
						<polygon fill="#251258" points="1308.731,1290.092 1308.26,1285.193 1302.956,1280.581 1306.893,1280.581 1307.38,1280.581 
							1305.604,1274.723 1299.365,1269.351 1298.441,1269.118 1298.907,1268.957 1297.505,1267.75 1303.331,1260.919 
							1302.836,1258.64 1299.105,1256.376 1296.597,1254.854 1298.872,1255.268 1302.237,1255.881 1301.199,1251.1 
							1300.756,1249.546 1297.576,1248.364 1296.533,1247.977 1297.508,1247.977 1300.309,1247.977 1294.636,1228.078 
							1294.42,1227.954 1292.019,1226.58 1294.209,1226.58 1294.662,1223.209 1290.365,1219.193 1293.29,1215.24 1290.045,1199.763 
							1289.477,1197.67 1288.493,1212.584 1289.655,1213.05 1290.365,1213.335 1289.776,1213.335 1288.444,1213.335 
							1287.949,1220.84 1292.685,1238.027 1286.353,1241.346 1292.019,1256.382 1285.514,1276.981 1294.636,1287.57 
							1289.305,1300.194 1297.808,1300.194 1309.532,1300.194 1312.568,1297.492 						"/>
						<polygon fill="#170B36" points="1285.514,1276.981 1292.019,1256.382 1286.353,1241.346 1292.685,1238.027 1287.949,1220.84 
							1288.444,1213.335 1286.169,1213.335 1285.59,1216.141 1282.862,1229.382 1287.695,1231.165 1281.845,1232.439 
							1278.284,1244.41 1286.169,1246.958 1277.521,1249.25 1275.231,1259.439 1281.59,1261.477 1273.196,1266.316 
							1268.872,1284.146 1282.862,1287.203 1267.091,1290.005 1265.565,1300.194 1289.305,1300.194 1294.636,1287.57 						"/>
					</g>
				</g>
				<path opacity="0.66" fill="#170B36" d="M1294.074,1321.928l-10.569-3.408l8.336-3.082l-1.714-0.579l-0.583-0.197l-8.651,3.016
					l-2.236-0.721l-5.925-1.911l-3.176-1.024l-4.883,2.253c-0.494,0.504-1.05,1.009-1.667,1.514l-0.197,0.791l-0.509,2.039
					l-2.264-0.68l-0.282-0.085l-2.163-0.65l-5.08,3.263l1.501,0.929l1.355,0.839l0.368,0.228l-0.422-0.036l-2.855-0.242
					l-4.223-0.358l-4.946,2.179l0.182,0.803l0.318,1.404l0.216,0.954l-1.138-0.55l-1.688-0.816l-1.387-0.67l-4.686,2.465
					l0.628,0.614l1.029,1.006l0.339,0.33l-0.698-0.18l-2.017-0.52l-1.739-0.448l-17.766,8.327l0.237,1.228l0.019,0.098l0.212,1.094
					l-1.866-0.418l-2.711-0.608l-5.385,2.848l0.542,0.989l0.617,1.13l-1.989-0.421l-2.546-0.538l-27.571,12.564l-3.438,1.567
					l15.567-4.693l12.395-3.737l-0.646-0.813l1.22-0.413l2.159,0.434l4.745-1.432l20.005-6.039l-1.696-1.689l6.125,0.513
					l15.431-4.249l-2.941-2.345l8.101,0.684l10.391-3.096l-2.208-1.724l8.866-0.094l14.66-4.285l-5.234-2.97l9.683,1.776
					L1294.074,1321.928z"/>
			</g>
		</g>
		<g>
			<linearGradient id="SVGID_7_" gradientUnits="userSpaceOnUse" x1="1936.7532" y1="1331.674" x2="1936.7532" y2="1682.8043">
				<stop  offset="0.0036" style="stop-color:#6C54A3"/>
				<stop  offset="0.1308" style="stop-color:#59438F"/>
				<stop  offset="0.3582" style="stop-color:#3C2A71"/>
				<stop  offset="0.5819" style="stop-color:#28185B"/>
				<stop  offset="0.7983" style="stop-color:#1B0D4E"/>
				<stop  offset="0.999" style="stop-color:#17094A"/>
			</linearGradient>
			<path fill="url(#SVGID_7_)" d="M2687.566,1713.362c-213.601-239.294-422.04-314.036-691.468-362.505
				c-269.427-48.469-543.57-13.936-810.158,59.879v302.626H2687.566z"/>
		</g>
		<g>
			<linearGradient id="SVGID_8_" gradientUnits="userSpaceOnUse" x1="2102.991" y1="1421.0265" x2="2102.991" y2="1922.4088">
				<stop  offset="0.0015" style="stop-color:#6C54A3"/>
				<stop  offset="0.2053" style="stop-color:#68509F"/>
				<stop  offset="0.4206" style="stop-color:#5C4692"/>
				<stop  offset="0.6413" style="stop-color:#48347D"/>
				<stop  offset="0.8642" style="stop-color:#2C1B60"/>
				<stop  offset="0.999" style="stop-color:#17094A"/>
			</linearGradient>
			<path fill="url(#SVGID_8_)" d="M2850,1538.423c-45.726-19.669-92.287-37.297-139.802-52.258
				c-244.95-77.126-507.719-81.099-762.923-52.72c-205.108,22.808-411.509,67.384-591.293,168.846V1800H2850V1538.423z"/>
		</g>
		<g>
			<g>
				<g>
					<polygon fill="#080B4A" points="1903.048,1436.132 1903.596,1473.346 1913.045,1473.346 1913.045,1436.132 					"/>
					<rect x="1913.045" y="1436.132" fill="#6C54A3" width="3.193" height="37.214"/>
					<g>
						<polygon fill="#6C54A3" points="1926.643,1356.023 1930.105,1359.003 1937.799,1356.333 1948.898,1352.482 1945.129,1336.76 
							1939.807,1333.529 1941.029,1339.157 						"/>
						<polygon fill="#6C54A3" points="1951.028,1387.704 1960.203,1387.704 1948.898,1364.433 1939.62,1362.092 1931.236,1359.977 
							1946.643,1373.24 						"/>
						<polygon fill="#6C54A3" points="1939.477,1307.199 1926.287,1261.915 1919.561,1258.065 1933.567,1307.199 						"/>
						<path fill="#6C54A3" d="M1965.641,1414.588c-2.582-3.598-4.996-7.26-7.254-10.985l-5.186-4.51l1.161,12.095l9.474,18.271
							l-7.495,6.672h15.167L1965.641,1414.588z"/>
						<polygon fill="#6C54A3" points="1909.015,1236.126 1914.416,1236.126 1921.262,1236.126 1908.225,1188.15 1916.237,1226.365 
													"/>
						<polygon fill="#6C54A3" points="1918.507,1254.367 1926.287,1254.367 1921.262,1241.788 1915.527,1239.137 1909.015,1236.126 
							1919.625,1246.042 						"/>
						<polygon fill="#6C54A3" points="1938.328,1326.716 1945.129,1327.954 1939.477,1312.859 1934.671,1311.073 1935.766,1314.912 
													"/>
					</g>
					<g>
						<polygon fill="none" points="1909.015,1221.662 1907.262,1220.959 1904.392,1219.809 1904.27,1221.662 1907.56,1221.662 
													"/>
						<polygon fill="#170B36" points="1903,1201.442 1899.596,1217.889 1904.392,1219.809 1906.82,1182.982 						"/>
						<polygon fill="#251258" points="1954.363,1411.189 1953.201,1399.093 1940.104,1387.704 1949.824,1387.704 1951.028,1387.704 
							1946.643,1373.24 1931.236,1359.977 1928.956,1359.402 1930.105,1359.003 1926.643,1356.023 1941.029,1339.157 
							1939.807,1333.529 1930.595,1327.938 1924.403,1324.18 1930.021,1325.203 1938.328,1326.716 1935.766,1314.912 
							1934.671,1311.073 1926.819,1308.155 1924.245,1307.199 1926.652,1307.199 1933.567,1307.199 1919.561,1258.065 
							1919.027,1257.759 1913.098,1254.367 1918.507,1254.367 1919.625,1246.042 1909.015,1236.126 1916.237,1226.365 
							1908.225,1188.15 1906.82,1182.982 1904.392,1219.809 1907.262,1220.959 1909.015,1221.662 1907.56,1221.662 
							1904.27,1221.662 1903.048,1240.193 1914.744,1282.632 1899.108,1290.827 1913.098,1327.954 1897.035,1378.815 
							1919.561,1404.962 1906.398,1436.132 1927.391,1436.132 1956.341,1436.132 1963.836,1429.46 						"/>
						<polygon fill="#170B36" points="1897.035,1378.815 1913.098,1327.954 1899.108,1290.827 1914.744,1282.632 1903.048,1240.193 
							1904.27,1221.662 1898.652,1221.662 1897.224,1228.59 1890.488,1261.285 1902.421,1265.688 1887.976,1268.833 
							1879.183,1298.393 1898.652,1304.684 1877.299,1310.344 1871.646,1335.501 1887.347,1340.533 1866.621,1352.482 
							1855.945,1396.508 1890.488,1404.056 1851.547,1410.974 1847.779,1436.132 1906.398,1436.132 1919.561,1404.962 						"/>
					</g>
				</g>
				<path opacity="0.66" fill="#170B36" d="M1918.172,1489.799l-26.098-8.416l20.584-7.61l-4.231-1.429l-1.439-0.486l-21.361,7.446
					l-5.52-1.78l-14.629-4.717l-7.843-2.529l-12.056,5.563c-1.219,1.245-2.592,2.49-4.116,3.737l-0.487,1.952l-1.256,5.034
					l-5.59-1.68l-0.697-0.209l-5.342-1.605l-12.543,8.057l3.708,2.295l3.346,2.071l0.91,0.563l-1.041-0.088l-7.05-0.598
					l-10.428-0.885l-12.214,5.38l0.448,1.982l0.784,3.466l0.534,2.355l-2.81-1.357l-4.169-2.014l-3.425-1.655l-11.57,6.086
					l1.55,1.517l2.54,2.485l0.836,0.816l-1.722-0.444l-4.981-1.284l-4.293-1.107l-43.866,20.561l0.585,3.033l0.047,0.242l0.522,2.7
					l-4.607-1.033l-6.695-1.501l-13.297,7.032l1.337,2.443l1.524,2.791l-4.911-1.038l-6.287-1.329l-68.078,31.023l-8.489,3.869
					l38.437-11.588l30.606-9.227l-1.595-2.009l3.012-1.019l5.332,1.071l11.716-3.536l49.397-14.912l-4.187-4.171l15.123,1.268
					l38.102-10.491l-7.261-5.791l20.003,1.689l25.657-7.645l-5.451-4.258l21.891-0.233l36.199-10.58l-12.922-7.334l23.91,4.385
					L1918.172,1489.799z"/>
			</g>
			<g>
				<g>
					<polygon fill="#080B4A" points="1773.415,1441.804 1773.792,1467.354 1780.279,1467.354 1780.279,1441.804 					"/>
					<rect x="1780.279" y="1441.804" fill="#6C54A3" width="2.192" height="25.55"/>
					<g>
						<polygon fill="#6C54A3" points="1789.615,1386.803 1791.992,1388.849 1797.275,1387.016 1804.895,1384.372 1802.307,1373.578 
							1798.654,1371.359 1799.492,1375.223 						"/>
						<polygon fill="#6C54A3" points="1806.357,1408.555 1812.657,1408.555 1804.895,1392.577 1798.525,1390.97 1792.769,1389.518 
							1803.347,1398.624 						"/>
						<polygon fill="#6C54A3" points="1798.427,1353.282 1789.371,1322.191 1784.753,1319.548 1794.369,1353.282 						"/>
						<path fill="#6C54A3" d="M1816.39,1427.013c-1.773-2.47-3.43-4.984-4.98-7.542l-3.56-3.096l0.797,8.304l6.505,12.545
							l-5.146,4.581h10.413L1816.39,1427.013z"/>
						<polygon fill="#6C54A3" points="1777.513,1304.485 1781.22,1304.485 1785.921,1304.485 1776.97,1271.546 1782.471,1297.784 
													"/>
						<polygon fill="#6C54A3" points="1784.029,1317.009 1789.371,1317.009 1785.921,1308.372 1781.984,1306.552 1777.513,1304.485 
							1784.797,1311.293 						"/>
						<polygon fill="#6C54A3" points="1797.638,1366.682 1802.307,1367.532 1798.427,1357.168 1795.127,1355.942 1795.879,1358.577 
													"/>
					</g>
					<g>
						<polygon fill="none" points="1777.513,1294.555 1776.309,1294.071 1774.338,1293.282 1774.254,1294.555 1776.513,1294.555 
													"/>
						<polygon fill="#170B36" points="1773.383,1280.672 1771.046,1291.964 1774.338,1293.282 1776.006,1267.998 						"/>
						<polygon fill="#251258" points="1808.647,1424.678 1807.849,1416.374 1798.858,1408.555 1805.531,1408.555 1806.357,1408.555 
							1803.347,1398.624 1792.769,1389.518 1791.203,1389.123 1791.992,1388.849 1789.615,1386.803 1799.492,1375.223 
							1798.654,1371.359 1792.329,1367.52 1788.077,1364.941 1791.934,1365.643 1797.638,1366.682 1795.879,1358.577 
							1795.127,1355.942 1789.736,1353.938 1787.969,1353.282 1789.621,1353.282 1794.369,1353.282 1784.753,1319.548 
							1784.386,1319.338 1780.316,1317.009 1784.029,1317.009 1784.797,1311.293 1777.513,1304.485 1782.471,1297.784 
							1776.97,1271.546 1776.006,1267.998 1774.338,1293.282 1776.309,1294.071 1777.513,1294.555 1776.513,1294.555 
							1774.254,1294.555 1773.415,1307.277 1781.445,1336.415 1770.71,1342.042 1780.316,1367.532 1769.287,1402.451 
							1784.753,1420.403 1775.715,1441.804 1790.129,1441.804 1810.005,1441.804 1815.151,1437.223 						"/>
						<polygon fill="#170B36" points="1769.287,1402.451 1780.316,1367.532 1770.71,1342.042 1781.445,1336.415 1773.415,1307.277 
							1774.254,1294.555 1770.398,1294.555 1769.417,1299.311 1764.792,1321.759 1772.985,1324.782 1763.068,1326.941 
							1757.03,1347.236 1770.398,1351.555 1755.737,1355.441 1751.856,1372.714 1762.636,1376.168 1748.406,1384.372 
							1741.076,1414.599 1764.792,1419.781 1738.057,1424.531 1735.469,1441.804 1775.715,1441.804 1784.753,1420.403 						"/>
					</g>
				</g>
				<path opacity="0.66" fill="#170B36" d="M1783.799,1478.65l-17.918-5.778l14.133-5.225l-2.905-0.981l-0.988-0.333l-14.666,5.112
					l-3.79-1.222l-10.044-3.239l-5.385-1.736l-8.278,3.819c-0.837,0.855-1.78,1.71-2.826,2.566l-0.334,1.34l-0.862,3.456
					l-3.838-1.153l-0.478-0.144l-3.667-1.102l-8.612,5.532l2.546,1.575l2.297,1.422l0.624,0.386l-0.714-0.061l-4.84-0.411
					l-7.16-0.607l-8.385,3.694l0.308,1.361l0.538,2.38l0.367,1.617l-1.929-0.932l-2.862-1.383l-2.352-1.136l-7.943,4.179
					l1.064,1.041l1.744,1.706l0.574,0.56l-1.183-0.305l-3.42-0.881l-2.948-0.76l-30.117,14.117l0.402,2.082l0.032,0.166l0.359,1.854
					l-3.163-0.709l-4.597-1.031l-9.129,4.828l0.918,1.677l1.047,1.916l-3.371-0.713l-4.316-0.913l-46.74,21.3l-5.828,2.656
					l26.39-7.956l21.014-6.335l-1.095-1.379l2.068-0.7l3.661,0.735l8.044-2.428l33.915-10.238l-2.875-2.864l10.383,0.87l26.16-7.203
					l-4.985-3.976l13.734,1.159l17.616-5.249l-3.743-2.923l15.03-0.16l24.853-7.264l-8.872-5.035l16.416,3.011L1783.799,1478.65z"/>
			</g>
			<g>
				<g>
					<polygon fill="#080B4A" points="2266.094,1397.36 2266.556,1428.774 2274.532,1428.774 2274.532,1397.36 					"/>
					<rect x="2274.532" y="1397.36" fill="#6C54A3" width="2.695" height="31.414"/>
					<g>
						<polygon fill="#6C54A3" points="2286.011,1329.737 2288.934,1332.253 2295.428,1329.999 2304.798,1326.748 2301.616,1313.477 
							2297.124,1310.749 2298.155,1315.5 						"/>
						<polygon fill="#6C54A3" points="2306.595,1356.48 2314.341,1356.48 2304.798,1336.836 2296.966,1334.86 2289.889,1333.075 
							2302.894,1344.271 						"/>
						<polygon fill="#6C54A3" points="2296.845,1288.523 2285.711,1250.297 2280.033,1247.047 2291.856,1288.523 						"/>
						<path fill="#6C54A3" d="M2318.931,1379.174c-2.179-3.037-4.218-6.128-6.123-9.273l-4.377-3.807l0.98,10.21l7.997,15.424
							l-6.327,5.632h12.803L2318.931,1379.174z"/>
						<polygon fill="#6C54A3" points="2271.131,1228.528 2275.69,1228.528 2281.469,1228.528 2270.464,1188.03 2277.228,1220.289 
													"/>
						<polygon fill="#6C54A3" points="2279.143,1243.926 2285.711,1243.926 2281.469,1233.307 2276.628,1231.07 2271.131,1228.528 
							2280.087,1236.899 						"/>
						<polygon fill="#6C54A3" points="2295.875,1304.998 2301.616,1306.043 2296.845,1293.301 2292.788,1291.793 2293.712,1295.034 
													"/>
					</g>
					<g>
						<polygon fill="none" points="2271.131,1216.318 2269.651,1215.724 2267.229,1214.754 2267.125,1216.318 2269.903,1216.318 
													"/>
						<polygon fill="#170B36" points="2266.054,1199.25 2263.18,1213.133 2267.229,1214.754 2269.278,1183.667 						"/>
						<polygon fill="#251258" points="2309.41,1376.305 2308.43,1366.095 2297.375,1356.48 2305.579,1356.48 2306.595,1356.48 
							2302.894,1344.271 2289.889,1333.075 2287.964,1332.59 2288.934,1332.253 2286.011,1329.737 2298.155,1315.5 
							2297.124,1310.749 2289.348,1306.029 2284.121,1302.858 2288.863,1303.721 2295.875,1304.998 2293.712,1295.034 
							2292.788,1291.793 2286.16,1289.33 2283.987,1288.523 2286.019,1288.523 2291.856,1288.523 2280.033,1247.047 
							2279.582,1246.789 2274.577,1243.926 2279.143,1243.926 2280.087,1236.899 2271.131,1228.528 2277.228,1220.289 
							2270.464,1188.03 2269.278,1183.667 2267.229,1214.754 2269.651,1215.724 2271.131,1216.318 2269.903,1216.318 
							2267.125,1216.318 2266.094,1231.961 2275.967,1267.785 2262.768,1274.703 2274.577,1306.043 2261.019,1348.977 
							2280.033,1371.048 2268.922,1397.36 2286.643,1397.36 2311.081,1397.36 2317.408,1391.728 						"/>
						<polygon fill="#170B36" points="2261.019,1348.977 2274.577,1306.043 2262.768,1274.703 2275.967,1267.785 2266.094,1231.961 
							2267.125,1216.318 2262.384,1216.318 2261.178,1222.167 2255.492,1249.766 2265.565,1253.483 2253.371,1256.137 
							2245.948,1281.09 2262.384,1286.4 2244.358,1291.178 2239.586,1312.414 2252.841,1316.662 2235.345,1326.748 
							2226.332,1363.913 2255.492,1370.284 2222.62,1376.124 2219.439,1397.36 2268.922,1397.36 2280.033,1371.048 						"/>
					</g>
				</g>
				<path opacity="0.66" fill="#170B36" d="M2278.861,1442.663l-22.031-7.104l17.376-6.424l-3.572-1.206l-1.214-0.41l-18.032,6.286
					l-4.66-1.503l-12.349-3.982l-6.62-2.135l-10.177,4.696c-1.029,1.051-2.188,2.102-3.475,3.155l-0.411,1.648l-1.06,4.25
					l-4.719-1.418l-0.588-0.177l-4.509-1.355l-10.588,6.801l3.13,1.937l2.824,1.748l0.768,0.475l-0.878-0.074l-5.951-0.505
					l-8.803-0.747l-10.31,4.542l0.378,1.673l0.662,2.926l0.451,1.988l-2.372-1.146l-3.519-1.7l-2.892-1.397l-9.766,5.137
					l1.309,1.281l2.144,2.097l0.706,0.689l-1.454-0.375l-4.204-1.084l-3.624-0.934l-37.029,17.357l0.494,2.56l0.039,0.204
					l0.441,2.279l-3.889-0.872l-5.652-1.267l-11.224,5.936l1.129,2.062l1.287,2.356l-4.145-0.877l-5.307-1.122l-57.467,26.188
					l-7.166,3.266l32.446-9.782l25.836-7.789l-1.346-1.696l2.543-0.86l4.5,0.904l9.89-2.985l41.698-12.588l-3.534-3.521l12.766,1.07
					l32.164-8.856l-6.129-4.888l16.885,1.425l21.659-6.453l-4.602-3.594l18.479-0.197l30.557-8.931l-10.908-6.191l20.183,3.702
					L2278.861,1442.663z"/>
			</g>
			<g>
				<g>
					<polygon fill="#080B4A" points="2000.974,1459.027 2001.857,1519.032 2017.093,1519.032 2017.093,1459.027 					"/>
					<rect x="2017.093" y="1459.027" fill="#6C54A3" width="5.148" height="60.005"/>
					<g>
						<polygon fill="#6C54A3" points="2039.019,1329.857 2044.601,1334.663 2057.007,1330.358 2074.903,1324.149 2068.827,1298.797 
							2060.246,1293.588 2062.215,1302.662 						"/>
						<polygon fill="#6C54A3" points="2078.338,1380.941 2093.132,1380.941 2074.903,1343.418 2059.944,1339.644 2046.426,1336.234 
							2071.268,1357.619 						"/>
						<polygon fill="#6C54A3" points="2059.713,1251.133 2038.446,1178.115 2027.599,1171.908 2050.184,1251.133 						"/>
						<path fill="#6C54A3" d="M2101.9,1424.29c-4.163-5.801-8.056-11.706-11.696-17.713l-8.362-7.271l1.873,19.503l15.276,29.461
							l-12.085,10.758h24.456L2101.9,1424.29z"/>
						<polygon fill="#6C54A3" points="2010.596,1136.534 2019.303,1136.534 2030.343,1136.534 2009.321,1059.176 2022.241,1120.795 
													"/>
						<polygon fill="#6C54A3" points="2025.9,1165.946 2038.446,1165.946 2030.343,1145.662 2021.096,1141.389 2010.596,1136.534 
							2027.703,1152.523 						"/>
						<polygon fill="#6C54A3" points="2057.861,1282.602 2068.827,1284.598 2059.713,1260.259 2051.964,1257.379 2053.729,1263.569 
													"/>
					</g>
					<g>
						<polygon fill="none" points="2010.596,1113.211 2007.768,1112.077 2003.141,1110.223 2002.944,1113.211 2008.249,1113.211 
													"/>
						<polygon fill="#170B36" points="2000.897,1080.607 1995.408,1107.126 2003.141,1110.223 2007.057,1050.842 						"/>
						<polygon fill="#251258" points="2083.715,1418.808 2081.842,1399.305 2060.725,1380.941 2076.396,1380.941 2078.338,1380.941 
							2071.268,1357.619 2046.426,1336.234 2042.748,1335.306 2044.601,1334.663 2039.019,1329.857 2062.215,1302.662 
							2060.246,1293.588 2045.392,1284.572 2035.407,1278.513 2044.465,1280.163 2057.861,1282.602 2053.729,1263.569 
							2051.964,1257.379 2039.304,1252.674 2035.152,1251.133 2039.033,1251.133 2050.184,1251.133 2027.599,1171.908 
							2026.739,1171.415 2017.179,1165.946 2025.9,1165.946 2027.703,1152.523 2010.596,1136.534 2022.241,1120.795 
							2009.321,1059.176 2007.057,1050.842 2003.141,1110.223 2007.768,1112.077 2010.596,1113.211 2008.249,1113.211 
							2002.944,1113.211 2000.974,1143.091 2019.832,1211.52 1994.62,1224.735 2017.179,1284.598 1991.279,1366.608 
							2027.599,1408.768 2006.375,1459.027 2040.226,1459.027 2086.905,1459.027 2098.99,1448.269 						"/>
						<polygon fill="#170B36" points="1991.279,1366.608 2017.179,1284.598 1994.62,1224.735 2019.832,1211.52 2000.974,1143.091 
							2002.944,1113.211 1993.886,1113.211 1991.583,1124.382 1980.722,1177.101 1999.963,1184.2 1976.672,1189.27 
							1962.493,1236.934 1993.886,1247.077 1959.455,1256.203 1950.341,1296.768 1975.658,1304.882 1942.238,1324.149 
							1925.024,1395.137 1980.722,1407.307 1917.933,1418.462 1911.857,1459.027 2006.375,1459.027 2027.599,1408.768 						"/>
					</g>
				</g>
				<path opacity="0.66" fill="#170B36" d="M2025.361,1545.561l-42.081-13.57l33.19-12.271l-6.822-2.304l-2.319-0.784
					l-34.443,12.006l-8.901-2.87l-23.588-7.606l-12.646-4.078l-19.44,8.969c-1.965,2.008-4.179,4.016-6.637,6.026l-0.785,3.148
					l-2.025,8.117l-9.014-2.709l-1.124-0.338l-8.613-2.589l-20.225,12.992l5.978,3.7l5.396,3.339l1.466,0.908l-1.678-0.142
					l-11.367-0.964l-16.815-1.426l-19.693,8.675l0.722,3.196l1.264,5.589l0.861,3.797l-4.531-2.189l-6.722-3.247l-5.523-2.668
					l-18.655,9.813l2.5,2.446l4.095,4.006l1.348,1.315l-2.777-0.716l-8.031-2.07l-6.922-1.784l-70.731,33.153l0.944,4.89l0.075,0.39
					l0.842,4.354l-7.429-1.666l-10.795-2.421l-21.44,11.339l2.156,3.939l2.458,4.5l-7.918-1.674l-10.137-2.144l-109.77,50.022
					l-13.688,6.238l61.976-18.685l49.35-14.878l-2.571-3.239l4.857-1.643l8.597,1.726l18.891-5.702l79.649-24.044l-6.752-6.726
					l24.385,2.044l61.437-16.916l-11.708-9.337l32.253,2.723l41.371-12.327l-8.79-6.865l35.297-0.376l58.368-17.06l-20.836-11.825
					l38.552,7.071L2025.361,1545.561z"/>
			</g>
		</g>
		<g>
			<linearGradient id="SVGID_9_" gradientUnits="userSpaceOnUse" x1="953.7473" y1="1296.4128" x2="953.7473" y2="1761.8098">
				<stop  offset="0.0015" style="stop-color:#6C54A3"/>
				<stop  offset="0.999" style="stop-color:#17094A"/>
			</linearGradient>
			<path fill="url(#SVGID_9_)" d="M1907.495,1800c-270.976-302.546-535.633-397.299-877.472-458.794
				C687.479,1279.583,338.943,1265.728,0,1359.469v64.209h0.029L0,1800H1907.495z"/>
		</g>
		<g>
			<g>
				<g>
					<g>
						<polygon fill="#080B4A" points="501.623,1265.673 502.903,1352.657 524.989,1352.657 524.989,1265.673 						"/>
						<rect x="524.989" y="1265.673" fill="#6C54A3" width="7.463" height="86.984"/>
						<g>
							<polygon fill="#6C54A3" points="556.773,1078.427 564.866,1085.393 582.849,1079.152 608.792,1070.151 599.984,1033.401 
								587.544,1025.85 590.399,1039.004 							"/>
							<polygon fill="#6C54A3" points="613.771,1152.478 635.217,1152.478 608.792,1098.084 587.107,1092.613 567.51,1087.67 
								603.522,1118.67 							"/>
							<polygon fill="#6C54A3" points="586.771,964.306 555.942,858.459 540.219,849.46 572.958,964.306 							"/>
							<path fill="#6C54A3" d="M647.927,1215.317c-6.035-8.409-11.678-16.969-16.955-25.677l-12.121-10.541l2.715,28.271
								l22.144,42.708l-17.519,15.594h35.452L647.927,1215.317z"/>
							<polygon fill="#6C54A3" points="515.571,798.181 528.194,798.181 544.197,798.181 513.723,686.042 532.452,775.366 							
								"/>
							<polygon fill="#6C54A3" points="537.756,840.817 555.942,840.817 544.197,811.414 530.792,805.219 515.571,798.181 
								540.37,821.359 							"/>
							<polygon fill="#6C54A3" points="584.087,1009.924 599.984,1012.818 586.771,977.536 575.539,973.361 578.097,982.334 							
								"/>
						</g>
						<g>
							<polygon fill="none" points="515.571,764.373 511.472,762.728 504.764,760.042 504.479,764.373 512.169,764.373 							"/>
							<polygon fill="#170B36" points="501.512,717.109 493.555,755.552 504.764,760.042 510.441,673.962 							"/>
							<polygon fill="#251258" points="621.565,1207.371 618.851,1179.099 588.238,1152.478 610.956,1152.478 613.771,1152.478 
								603.522,1118.67 567.51,1087.67 562.18,1086.325 564.866,1085.393 556.773,1078.427 590.399,1039.004 587.544,1025.85 
								566.012,1012.78 551.538,1003.998 564.669,1006.389 584.087,1009.924 578.097,982.334 575.539,973.361 557.186,966.54 
								551.169,964.306 556.794,964.306 572.958,964.306 540.219,849.46 538.972,848.746 525.114,840.817 537.756,840.817 
								540.37,821.359 515.571,798.181 532.452,775.366 513.723,686.042 510.441,673.962 504.764,760.042 511.472,762.728 
								515.571,764.373 512.169,764.373 504.479,764.373 501.623,807.687 528.96,906.883 492.413,926.039 525.114,1012.818 
								487.569,1131.7 540.219,1192.817 509.453,1265.673 558.523,1265.673 626.19,1265.673 643.709,1250.079 							"/>
							<polygon fill="#170B36" points="487.569,1131.7 525.114,1012.818 492.413,926.039 528.96,906.883 501.623,807.687 
								504.479,764.373 491.349,764.373 488.01,780.566 472.265,856.988 500.157,867.279 466.394,874.629 445.84,943.724 
								491.349,958.427 441.437,971.656 428.224,1030.46 464.924,1042.222 416.479,1070.151 391.524,1173.058 472.265,1190.699 
								381.246,1206.87 372.437,1265.673 509.453,1265.673 540.219,1192.817 							"/>
						</g>
					</g>
					<path opacity="0.66" fill="#170B36" d="M536.974,1391.115l-61.001-19.671l48.113-17.788l-9.89-3.341l-3.362-1.135
						l-49.93,17.405l-12.903-4.161l-34.193-11.026l-18.331-5.911l-28.181,13.002c-2.849,2.911-6.059,5.821-9.621,8.735l-1.138,4.563
						l-2.935,11.767l-13.066-3.927l-1.629-0.489l-12.486-3.752l-29.319,18.833l8.666,5.364l7.822,4.841l2.126,1.316l-2.432-0.206
						l-16.478-1.397l-24.375-2.068l-28.548,12.576l1.047,4.633l1.832,8.102l1.249,5.505l-6.567-3.173l-9.745-4.707l-8.007-3.868
						l-27.043,14.226l3.624,3.546l5.937,5.808l1.954,1.907l-4.026-1.038l-11.642-3l-10.035-2.586l-102.533,48.06l1.368,7.089
						l0.109,0.566l1.221,6.311l-10.77-2.415l-15.649-3.509l-31.079,16.437l3.126,5.71l3.563,6.523l-11.478-2.427l-14.695-3.108
						l-5.615,2.559v25.004l3.804,0.764l27.384-8.265l115.46-34.854l-9.787-9.75l35.349,2.963l89.06-24.521l-16.973-13.535
						l46.755,3.947l59.972-17.869l-12.742-9.952l51.167-0.545l84.611-24.73l-30.205-17.142l55.887,10.25L536.974,1391.115z"/>
				</g>
				<g>
					<g>
						<polygon fill="#080B4A" points="198.621,1278.931 199.5,1338.651 214.663,1338.651 214.663,1278.931 						"/>
						<rect x="214.663" y="1278.931" fill="#6C54A3" width="5.124" height="59.721"/>
						<g>
							<polygon fill="#6C54A3" points="236.486,1150.372 242.042,1155.155 254.389,1150.87 272.2,1144.69 266.153,1119.459 
								257.612,1114.274 259.573,1123.306 							"/>
							<polygon fill="#6C54A3" points="275.618,1201.214 290.343,1201.214 272.2,1163.868 257.312,1160.112 243.857,1156.718 
								268.582,1178.002 							"/>
							<polygon fill="#6C54A3" points="257.082,1072.02 235.915,999.348 225.12,993.17 247.598,1072.02 							"/>
							<path fill="#6C54A3" d="M299.069,1244.358c-4.144-5.773-8.018-11.65-11.641-17.629l-8.322-7.237l1.864,19.41l15.204,29.322
								l-12.028,10.707h24.34L299.069,1244.358z"/>
							<polygon fill="#6C54A3" points="208.197,957.963 216.864,957.963 227.851,957.963 206.929,880.971 219.787,942.299 							
								"/>
							<polygon fill="#6C54A3" points="223.429,987.236 235.915,987.236 227.851,967.048 218.647,962.795 208.197,957.963 
								225.224,973.876 							"/>
							<polygon fill="#6C54A3" points="255.238,1103.34 266.153,1105.327 257.082,1081.103 249.37,1078.237 251.126,1084.398 
															"/>
						</g>
						<g>
							<polygon fill="none" points="208.197,934.751 205.383,933.622 200.778,931.777 200.582,934.751 205.862,934.751 							"/>
							<polygon fill="#170B36" points="198.544,902.301 193.082,928.695 200.778,931.777 204.675,872.677 							"/>
							<polygon fill="#251258" points="280.97,1238.902 279.106,1219.491 258.089,1201.214 273.686,1201.214 275.618,1201.214 
								268.582,1178.002 243.857,1156.718 240.198,1155.795 242.042,1155.155 236.486,1150.372 259.573,1123.306 257.612,1114.274 
								242.829,1105.301 232.891,1099.271 241.907,1100.913 255.238,1103.34 251.126,1084.398 249.37,1078.237 236.769,1073.553 
								232.638,1072.02 236.5,1072.02 247.598,1072.02 225.12,993.17 224.264,992.68 214.749,987.236 223.429,987.236 
								225.224,973.876 208.197,957.963 219.787,942.299 206.929,880.971 204.675,872.677 200.778,931.777 205.383,933.622 
								208.197,934.751 205.862,934.751 200.582,934.751 198.621,964.489 217.39,1032.595 192.297,1045.747 214.749,1105.327 
								188.972,1186.948 225.12,1228.909 203.997,1278.931 237.687,1278.931 284.145,1278.931 296.174,1268.224 							"/>
							<polygon fill="#170B36" points="188.972,1186.948 214.749,1105.327 192.297,1045.747 217.39,1032.595 198.621,964.489 
								200.582,934.751 191.567,934.751 189.275,945.869 178.465,998.338 197.615,1005.404 174.434,1010.45 160.322,1057.889 
								191.567,1067.983 157.298,1077.066 148.227,1117.439 173.424,1125.515 140.163,1144.69 123.03,1215.343 178.465,1227.455 
								115.973,1238.558 109.925,1278.931 203.997,1278.931 225.12,1228.909 							"/>
						</g>
					</g>
					<path opacity="0.66" fill="#170B36" d="M222.892,1365.055l-41.882-13.506l33.033-12.213l-6.79-2.293l-2.309-0.78l-34.28,11.95
						l-8.859-2.857l-23.476-7.57l-12.586-4.059l-19.348,8.927c-1.956,1.999-4.16,3.996-6.606,5.997l-0.782,3.133l-2.015,8.079
						l-8.971-2.696l-1.118-0.336l-8.572-2.576l-20.13,12.93l5.95,3.682l5.37,3.323l1.46,0.903l-1.67-0.142l-11.313-0.959
						l-16.735-1.42l-19.6,8.634l0.719,3.181l1.258,5.563l0.857,3.78l-4.509-2.178l-6.691-3.232l-5.497-2.655l-7.8,4.103v33.909
						h0.029v6.936l33.592-9.249l-11.653-9.293l32.101,2.71l41.175-12.268l-8.748-6.833l35.13-0.374l58.092-16.979l-20.738-11.769
						l38.37,7.037L222.892,1365.055z"/>
				</g>
				<g>
					<g>
						<polygon fill="#080B4A" points="1140.343,1329.572 1141.056,1378.012 1153.355,1378.012 1153.355,1329.572 						"/>
						<rect x="1153.355" y="1329.572" fill="#6C54A3" width="4.156" height="48.44"/>
						<g>
							<polygon fill="#6C54A3" points="1171.055,1225.297 1175.562,1229.177 1185.577,1225.701 1200.024,1220.689 
								1195.119,1200.223 1188.191,1196.018 1189.781,1203.344 							"/>
							<polygon fill="#6C54A3" points="1202.796,1266.536 1214.739,1266.536 1200.024,1236.244 1187.948,1233.198 
								1177.035,1230.445 1197.089,1247.709 							"/>
							<polygon fill="#6C54A3" points="1187.761,1161.745 1170.593,1102.8 1161.837,1097.789 1180.068,1161.745 							"/>
							<path fill="#6C54A3" d="M1221.817,1301.53c-3.361-4.683-6.503-9.45-9.442-14.299l-6.75-5.87l1.512,15.744l12.332,23.783
								l-9.756,8.684h19.743L1221.817,1301.53z"/>
							<polygon fill="#6C54A3" points="1148.11,1069.233 1155.14,1069.233 1164.052,1069.233 1147.081,1006.784 1157.511,1056.527 
															"/>
							<polygon fill="#6C54A3" points="1160.465,1092.976 1170.593,1092.976 1164.052,1076.602 1156.587,1073.152 1148.11,1069.233 
								1161.921,1082.14 							"/>
							<polygon fill="#6C54A3" points="1186.266,1187.149 1195.119,1188.761 1187.761,1169.113 1181.506,1166.788 1182.93,1171.785 
															"/>
						</g>
						<g>
							<polygon fill="none" points="1148.11,1050.405 1145.828,1049.489 1142.092,1047.993 1141.933,1050.405 1146.216,1050.405 
															"/>
							<polygon fill="#170B36" points="1140.281,1024.085 1135.85,1045.493 1142.092,1047.993 1145.253,1000.056 							"/>
							<polygon fill="#251258" points="1207.137,1297.105 1205.625,1281.361 1188.578,1266.536 1201.229,1266.536 
								1202.796,1266.536 1197.089,1247.709 1177.035,1230.445 1174.066,1229.696 1175.562,1229.177 1171.055,1225.297 
								1189.781,1203.344 1188.191,1196.018 1176.2,1188.74 1168.14,1183.849 1175.452,1185.181 1186.266,1187.149 
								1182.93,1171.785 1181.506,1166.788 1171.285,1162.989 1167.934,1161.745 1171.067,1161.745 1180.068,1161.745 
								1161.837,1097.789 1161.142,1097.392 1153.424,1092.976 1160.465,1092.976 1161.921,1082.14 1148.11,1069.233 
								1157.511,1056.527 1147.081,1006.784 1145.253,1000.056 1142.092,1047.993 1145.828,1049.489 1148.11,1050.405 
								1146.216,1050.405 1141.933,1050.405 1140.343,1074.526 1155.567,1129.767 1135.214,1140.435 1153.424,1188.761 
								1132.516,1254.965 1161.837,1289 1144.703,1329.572 1172.03,1329.572 1209.713,1329.572 1219.469,1320.888 							"/>
							<polygon fill="#170B36" points="1132.516,1254.965 1153.424,1188.761 1135.214,1140.435 1155.567,1129.767 
								1140.343,1074.526 1141.933,1050.405 1134.621,1050.405 1132.762,1059.423 1123.994,1101.981 1139.527,1107.712 
								1120.724,1111.805 1109.278,1150.283 1134.621,1158.471 1106.826,1165.839 1099.468,1198.585 1119.906,1205.135 
								1092.927,1220.689 1079.03,1277.996 1123.994,1287.82 1073.306,1296.825 1068.401,1329.572 1144.703,1329.572 1161.837,1289 
															"/>
						</g>
					</g>
					<path opacity="0.66" fill="#170B36" d="M1160.03,1399.429l-33.971-10.955l26.794-9.906l-5.508-1.86l-1.872-0.632l-27.805,9.692
						l-7.186-2.317l-19.042-6.141l-10.208-3.292l-15.693,7.241c-1.587,1.621-3.374,3.241-5.358,4.865l-0.634,2.541l-1.634,6.553
						l-7.276-2.187l-0.907-0.273l-6.953-2.09l-16.327,10.488l4.826,2.987l4.356,2.696l1.184,0.733l-1.354-0.115l-9.176-0.778
						l-13.574-1.151l-15.898,7.003l0.583,2.58l1.02,4.512l0.695,3.066l-3.657-1.767l-5.427-2.622l-4.459-2.154l-15.06,7.922
						l2.018,1.975l3.306,3.234l1.088,1.062l-2.242-0.578l-6.483-1.671l-5.588-1.44l-57.099,26.764l0.762,3.948l0.061,0.315
						l0.68,3.515l-5.997-1.345l-8.715-1.954l-17.307,9.154l1.741,3.179l1.984,3.633l-6.392-1.352l-8.183-1.731l-88.614,40.381
						l-11.05,5.036l50.032-15.084l39.839-12.011l-2.076-2.615l3.921-1.327l6.94,1.394l15.25-4.603l64.298-19.41l-5.45-5.429
						l19.685,1.65l49.596-13.656l-9.452-7.537l26.037,2.198l33.397-9.951l-7.096-5.542l28.495-0.303l47.119-13.772l-16.82-9.546
						l31.122,5.708L1160.03,1399.429z"/>
				</g>
				<g>
					<g>
						<polygon fill="#080B4A" points="730.514,1319.188 732.579,1459.442 768.19,1459.442 768.19,1319.188 						"/>
						<rect x="768.19" y="1319.188" fill="#6C54A3" width="12.033" height="140.254"/>
						<g>
							<polygon fill="#6C54A3" points="819.44,1017.268 832.488,1028.5 861.486,1018.437 903.317,1003.924 889.114,944.668 
								869.056,932.492 873.66,953.702 							"/>
							<polygon fill="#6C54A3" points="911.344,1136.67 945.924,1136.67 903.317,1048.963 868.351,1040.142 836.753,1032.171 
								894.819,1082.157 							"/>
							<polygon fill="#6C54A3" points="867.81,833.258 818.1,662.586 792.748,648.077 845.537,833.258 							"/>
							<path fill="#6C54A3" d="M966.418,1237.993c-9.731-13.559-18.83-27.361-27.338-41.402l-19.544-16.996l4.377,45.585
								l35.706,68.863l-28.248,25.145h57.163L966.418,1237.993z"/>
							<polygon fill="#6C54A3" points="753.005,565.394 773.358,565.394 799.162,565.394 750.026,384.579 780.224,528.606 							
								"/>
							<polygon fill="#6C54A3" points="788.776,634.141 818.1,634.141 799.162,586.73 777.547,576.742 753.005,565.394 
								792.992,602.766 							"/>
							<polygon fill="#6C54A3" points="863.481,906.812 889.114,911.479 867.81,854.589 849.699,847.858 853.823,862.326 							"/>
						</g>
						<g>
							<polygon fill="none" points="753.005,510.88 746.396,508.228 735.58,503.896 735.12,510.88 747.52,510.88 							"/>
							<polygon fill="#170B36" points="730.335,434.672 717.506,496.658 735.58,503.896 744.732,365.099 							"/>
							<polygon fill="#251258" points="923.912,1225.18 919.535,1179.595 870.175,1136.67 906.806,1136.67 911.344,1136.67 
								894.819,1082.157 836.753,1032.171 828.158,1030.003 832.488,1028.5 819.44,1017.268 873.66,953.702 869.056,932.492 
								834.337,911.417 810.999,897.257 832.171,901.112 863.481,906.812 853.823,862.326 849.699,847.858 820.106,836.859 
								810.403,833.258 819.473,833.258 845.537,833.258 792.748,648.077 790.737,646.926 768.391,634.141 788.776,634.141 
								792.992,602.766 753.005,565.394 780.224,528.606 750.026,384.579 744.732,365.099 735.58,503.896 746.396,508.228 
								753.005,510.88 747.52,510.88 735.12,510.88 730.514,580.721 774.594,740.668 715.664,771.555 768.391,911.479 
								707.854,1103.167 792.748,1201.713 743.14,1319.188 822.261,1319.188 931.369,1319.188 959.618,1294.043 							"/>
							<polygon fill="#170B36" points="707.854,1103.167 768.391,911.479 715.664,771.555 774.594,740.668 730.514,580.721 
								735.12,510.88 713.948,510.88 708.565,536.99 683.178,660.215 728.151,676.809 673.711,688.66 640.57,800.07 
								713.948,823.778 633.469,845.109 612.164,939.925 671.341,958.89 593.226,1003.924 552.989,1169.853 683.178,1198.298 
								536.416,1224.372 522.213,1319.188 743.14,1319.188 792.748,1201.713 							"/>
						</g>
					</g>
					<path opacity="0.66" fill="#170B36" d="M787.516,1521.452l-98.36-31.718l77.579-28.682l-15.947-5.386l-5.422-1.831
						l-80.508,28.064l-20.805-6.709l-55.134-17.779l-29.558-9.532l-45.439,20.965c-4.594,4.693-9.769,9.386-15.513,14.085
						l-1.835,7.358l-4.732,18.973l-21.069-6.332l-2.626-0.789l-20.133-6.05l-47.274,30.366l13.973,8.649l12.612,7.805l3.428,2.121
						l-3.922-0.333l-26.569-2.253l-39.303-3.334l-46.031,20.277l1.689,7.47l2.954,13.064l2.013,8.876l-10.59-5.116l-15.713-7.59
						l-12.91-6.236l-43.605,22.937l5.844,5.717l9.572,9.365l3.15,3.075l-6.492-1.673l-18.772-4.838l-16.181-4.17l-165.326,77.493
						l2.206,11.43l0.176,0.912l1.969,10.176l-17.365-3.894l-25.233-5.659l-12.287,6.498v54.698l158.164-47.745l-15.781-15.72
						l56.997,4.777l143.603-39.539l-27.367-21.824l75.389,6.364l96.7-28.812l-20.545-16.047l82.503-0.879l136.429-39.876
						l-48.703-27.64l90.113,16.527L787.516,1521.452z"/>
				</g>
			</g>
		</g>
	</g>
	<g>
		<g>
			<path fill="#9A81E6" d="M2800.502,1327.563c-5.336-17.125-14.5-32.759-23.586-48.22c-17.76-30.22-35.521-60.441-53.281-90.661
				c-10.073-17.141-20.981-35.106-38.473-44.527c-23.901-12.872-55.934-5.16-73.906,15.203c-1.84,2.085-3.528,4.28-5.082,6.561
				c-1.408,54.319,61.065,81.853,99.781,113.616c29.669,24.892,48.789,56.736,64.025,93.221
				c5.462,11.716,16.273,23.306,29.308,28.15C2807.324,1377.396,2807.9,1351.306,2800.502,1327.563z"/>
		</g>
		<g>
			<path fill="#6E51C9" d="M2769.98,1372.758c-15.236-36.486-34.355-68.329-64.025-93.221
				c-38.715-31.763-101.188-59.297-99.781-113.616c-13.621,19.997-16.287,46.919-8.708,70.101
				c8.444,25.827,28.334,46.966,51.959,60.338c25.868,14.642,57.125,21.439,77.291,43.294c18.32,19.853,23.751,48.255,37.803,71.335
				c2.644,4.343,5.929,8.755,10.755,10.344s15.633,2.991,15.913-2.088c3.237-5.86,5.936-12.006,8.1-18.336
				C2786.253,1396.063,2775.442,1384.473,2769.98,1372.758z"/>
		</g>
		<g>
			<path fill="#9A81E6" d="M2475.621,1354.919c48.488,24.089,104.393,25.168,144.862,65.442c5.638,5.52,11.427,12.747,20.172,14.554
				c4.214,0.668,7.975,0.208,11.43-1.005c2.145-4.303,3.649-9.057,4.924-14.259c4.141-16.893,4.558-35.321-2.686-51.13
				c-12.979-28.326-45.65-40.637-69.86-60.221c-15.975-12.922-28.566-29.448-42.089-44.925
				c-13.522-15.476-28.601-30.373-47.466-38.498c-18.865-8.125-42.32-8.264-58.568,4.312
				c-14.229,11.013-20.531,29.406-23.822,47.111c-0.983,5.288-1.711,10.695-2.174,16.148
				C2422.945,1319.839,2447.926,1341.769,2475.621,1354.919z"/>
		</g>
		<g>
			<path fill="#6E51C9" d="M2640.655,1434.915c-8.745-1.807-14.534-9.034-20.172-14.554
				c-40.469-40.275-96.374-41.353-144.862-65.442c-27.695-13.15-52.676-35.08-65.275-62.47
				c-2.838,33.437,4.666,68.697,29.628,90.217c46.381,39.986,125.986,13.145,172.673,52.773c8.327,7.068,18.57,16.685,28.358,11.846
				c5.085-3.8,8.535-8.269,11.08-13.374C2648.63,1435.123,2644.869,1435.583,2640.655,1434.915z"/>
		</g>
		<g>
			<g>
				<path fill="#6E51C9" d="M2850,1518.025c-5.667-16.283-11.828-32.391-18.494-48.283
					c-23.282-55.863-52.952-108.916-87.155-158.701c-4.136-6.322-8.687-12.355-13.096-18.485l-6.65-9.169l-3.324-4.584l-3.466-4.479
					l-13.899-17.883l-3.476-4.469l-3.62-4.353l-7.24-8.705l-7.24-8.705l-3.619-4.352c-1.221-1.439-2.498-2.828-3.744-4.245
					l-15.04-16.922l-3.76-4.23l-1.887-2.109l-1.947-2.053l-7.79-8.211l-15.577-16.42l15.421,16.566l7.709,8.282l1.927,2.07
					l1.866,2.126l3.719,4.264l14.872,17.055c1.232,1.427,2.495,2.828,3.701,4.277l3.576,4.384l7.152,8.766l7.151,8.765l3.575,4.382
					l3.43,4.498l13.714,17.993l3.418,4.505l3.277,4.61l6.553,9.219c4.345,6.162,8.83,12.225,12.899,18.576
					c33.672,50.017,62.749,103.196,85.408,159.047c7.979,19.537,15.201,39.379,21.655,59.464V1518.025z"/>
			</g>
		</g>
		<g>
			<g>
				<path fill="#6E51C9" d="M2850,1681.576c-5.596-12.272-11.467-24.418-17.677-36.393c-14.241-27.312-30.223-53.712-47.839-78.956
					c-17.616-25.245-36.895-49.309-57.593-72.056c-41.392-45.546-88.391-85.65-138.249-121.441
					c-24.988-17.845-50.807-34.475-77.055-50.359l-19.82-11.692l-2.477-1.461l-2.511-1.403l-5.022-2.805l-10.044-5.61l-10.043-5.61
					c-3.37-1.828-6.773-3.597-10.158-5.398l-20.333-10.76l20.231,10.948c3.367,1.832,6.753,3.632,10.105,5.491l9.988,5.702
					l9.988,5.701l4.993,2.85l2.497,1.425l2.463,1.484l19.699,11.869c26.083,16.117,51.718,32.969,76.499,51.017
					c49.443,36.195,95.93,76.627,136.708,122.347c20.392,22.834,39.342,46.945,56.617,72.198
					c17.275,25.252,32.903,51.62,46.794,78.874c7.948,15.683,15.328,31.646,22.238,47.814V1681.576z"/>
			</g>
		</g>
		<g>
			<path fill="#9A81E6" d="M2523.458,1449.571c20.448-1.807,37.212,13.048,56.632,19.07c3.777,1.05,7.934,0.821,11.983-0.229
				c1.568-1.465,2.67-3.167,1.607-4.318c-4.843-15.884-16.384-29.6-31.194-37.074c-8.416-4.247-17.67-6.5-26.83-8.718
				c-17.905-4.337-35.81-8.673-53.715-13.01c-10.155-2.46-20.928-4.906-30.884-1.732c-13.604,4.336-22.416,19.282-21.306,33.535
				c0.188,2.419,0.636,4.794,1.305,7.102C2453.637,1463.915,2494.664,1450.704,2523.458,1449.571z"/>
		</g>
		<g>
			<path fill="#6E51C9" d="M2580.09,1468.641c-19.42-6.022-36.184-20.877-56.632-19.07c-28.794,1.133-69.821,14.344-92.402-5.373
				c3.268,11.294,11.925,20.977,22.583,26.17c12.837,6.255,28.094,6.462,41.787,2.414c14.992-4.433,28.996-13.776,44.623-13.411
				c14.197,0.331,26.904,8.668,40.757,11.796c2.607,0.589,5.474,0.96,7.839-0.285c0.98-0.516,2.319-1.433,3.428-2.469
				C2588.023,1469.462,2583.866,1469.691,2580.09,1468.641z"/>
		</g>
		<g>
			<path fill="#9A81E6" d="M2471.313,1549.619c22.126-21.731,47.585-15.383,73.22-16.788c0.115-0.01,0.228-0.027,0.343-0.04
				c0.721-6.023-1.352-10.821-4.591-15.985c-4.861-7.749-11.663-14.65-20.281-17.694c-15.44-5.453-32.042,2.407-48.292,4.404
				c-10.723,1.318-21.568,0.036-32.357-0.51c-10.79-0.545-21.93-0.289-31.899,3.878s-18.605,12.993-19.804,23.745
				c-1.025,9.192,3.371,18.094,8.677,25.698C2422.122,1565.867,2452.559,1568.038,2471.313,1549.619z"/>
		</g>
		<g>
			<path fill="#6E51C9" d="M2544.533,1532.831c-25.635,1.405-51.094-4.943-73.22,16.788c-18.754,18.419-49.19,16.248-74.985,6.709
				c0.129,0.185,0.256,0.374,0.386,0.557c11.67,16.454,30.12,30.36,50.191,28.531c32.064-2.922,51.063-42.874,83.104-46.043
				c5.715-0.565,13.092-0.923,14.848-6.398c0.008-0.062,0.011-0.122,0.019-0.184
				C2544.761,1532.803,2544.647,1532.821,2544.533,1532.831z"/>
		</g>
		<g>
			<g>
				<path fill="#6E51C9" d="M2850,1697.453c-6.585-11.631-13.546-23.047-20.901-34.206c-28.982-44.003-63.77-84.13-103.207-118.943
					c-19.712-17.41-40.551-33.54-62.447-48.085c-10.949-7.269-22.155-14.154-33.656-20.521c-5.744-3.184-11.593-6.229-17.485-9.102
					c-5.854-2.914-11.777-5.837-17.876-8.336c-6.08-2.56-12.357-4.581-18.643-6.512c-3.164-0.893-6.34-1.743-9.514-2.592
					l-9.591-2.253c-12.838-2.775-25.799-4.829-38.777-6.69c-25.992-3.488-52.116-5.735-78.257-7.525
					c26.114,2.132,52.202,4.722,78.111,8.545c12.933,2.028,25.839,4.248,38.584,7.178l9.512,2.367
					c3.143,0.885,6.286,1.77,9.414,2.698c6.209,1.997,12.396,4.078,18.367,6.686c5.996,2.55,11.797,5.507,17.635,8.509
					c5.853,2.942,11.605,6,17.292,9.23c11.369,6.443,22.447,13.403,33.263,20.741c21.632,14.683,42.194,30.931,61.609,48.427
					c38.844,34.987,72.966,75.163,101.254,119.062c9.056,14.044,17.486,28.48,25.314,43.233V1697.453z"/>
			</g>
		</g>
		<g>
			<g>
				<path fill="#6E51C9" d="M2850,1726.221c-11.505-16.933-23.545-33.515-36.604-49.302c-16.193-19.757-33.53-38.611-52.327-55.935
					c-18.786-17.319-39.054-33.087-60.794-46.531c-43.403-26.954-92.9-44.168-143.678-48.998
					c-25.352-2.587-50.92-2.736-76.281-0.663c-25.373,1.994-50.559,5.821-75.496,10.767c24.991-4.666,50.206-8.207,75.557-9.913
					c25.339-1.785,50.831-1.346,76.034,1.512c50.49,5.379,99.36,23.026,142.048,50.198c21.384,13.557,41.281,29.397,59.701,46.766
					c18.431,17.373,35.407,36.254,51.246,56.027c14.615,18.073,27.912,37.182,40.595,56.666V1726.221z"/>
			</g>
		</g>
		<g>
			<g>
				<path fill="#9A81E6" d="M2656.009,1565.691c34.024,10.981,66.594,25.507,89.81,52.765c12.531,14.67,21.615,34.573,35.937,46.507
					c8.6-5.949,12.675-17.784,9.476-27.764c-2.454-7.656-8.428-13.573-14.176-19.188c-11.92-11.644-23.875-23.526-32.602-37.729
					c-9.364-15.241-14.668-32.598-22.659-48.604c-14.872-29.791-42.349-56.106-75.552-58.028
					c-11.398-0.66-23.324,1.795-32.341,8.809c-6.38,4.963-11,11.971-13.878,19.53c-3.203,8.414-4.203,17.405-3.392,26.318
					C2610.51,1546.85,2633.717,1558.348,2656.009,1565.691z"/>
			</g>
			<g>
				<path fill="#6E51C9" d="M2745.819,1618.456c-23.216-27.257-55.786-41.784-89.81-52.765
					c-22.292-7.344-45.499-18.841-59.377-37.384c1.279,14.056,7.074,27.918,15.929,39.011
					c14.469,18.127,36.021,29.517,58.367,35.665c18.282,5.029,37.688,6.984,54.486,15.788c12.278,6.435,22.67,16.43,29.586,28.456
					c5.011,8.713,16.382,19.697,26.288,18.058c0.159-0.104,0.313-0.214,0.469-0.322
					C2767.434,1653.029,2758.351,1633.125,2745.819,1618.456z"/>
			</g>
			<g>
				<g>
					<path fill="#6E51C9" d="M2850,1745.829c-1.054-1.597-2.092-3.204-3.156-4.793c-10.303-15.334-20.92-30.453-31.958-45.255
						c-11.061-14.785-22.451-29.318-34.171-43.576c-23.491-28.472-48.289-55.856-74.439-81.875
						c-13.091-12.991-26.506-25.661-40.412-37.772c-6.96-6.047-14.048-11.947-21.316-17.618c-1.836-1.394-3.648-2.817-5.502-4.186
						c-1.873-1.343-3.712-2.733-5.612-4.037c-1.917-1.279-3.782-2.636-5.763-3.816c-0.986-0.596-1.94-1.244-2.951-1.796
						l-3.035-1.651l3.013,1.689c1.003,0.564,1.949,1.225,2.926,1.833c1.964,1.203,3.811,2.584,5.708,3.886
						c1.881,1.327,3.701,2.74,5.554,4.105c1.834,1.391,3.628,2.837,5.443,4.252c7.188,5.759,14.192,11.743,21.066,17.872
						c13.734,12.276,26.969,25.102,39.874,38.242c25.777,26.316,50.176,53.968,73.242,82.669
						c11.508,14.372,22.678,29.01,33.514,43.889c10.813,14.896,21.197,30.095,31.26,45.497c2.268,3.479,4.5,6.98,6.717,10.491
						V1745.829z"/>
				</g>
			</g>
		</g>
		<g>
			<path fill="#9A81E6" d="M2605.307,1718.959c29.153-2.129,57.533-10.734,87.748-13.442c35.379-2.081,70.808,4.781,98.707,28.173
				c5.574,4.391,11.83,6.462,18.361,7.075c5.184-13.65,1.643-30.412-9.02-40.482c-8.804-8.314-20.988-11.768-32.655-14.987
				c-24.194-6.676-48.607-13.641-70.446-26.023c-23.436-13.286-43.052-32.324-65.231-47.621
				c-41.28-28.471-96.667-43.169-141.88-21.501c-15.521,7.438-29.474,19.371-36.275,35.199c-4.262,9.921-5.531,20.95-4.587,31.732
				c14.162,15.858,34.409,27.465,53.144,36.266C2536.43,1707.604,2569.348,1719.976,2605.307,1718.959z"/>
		</g>
		<g>
			<path fill="#6E51C9" d="M2791.762,1733.689c-27.9-23.392-63.328-30.254-98.707-28.173c-30.215,2.708-58.595,11.314-87.748,13.442
				c-35.958,1.017-68.877-11.354-102.134-25.611c-18.734-8.801-38.982-20.408-53.144-36.266c0.122,1.391,0.276,2.778,0.47,4.157
				c4.868,34.632,31.761,63.696,64.031,77.07s68.99,12.694,102.946,4.518c27.782-6.69,54.81-18.256,83.377-18.883
				c20.88-0.458,41.858,5.156,59.726,15.984c12.946,7.845,35.936,14.051,47.817,4.667c0.659-1.242,1.23-2.523,1.727-3.831
				C2803.592,1740.151,2797.337,1738.08,2791.762,1733.689z"/>
		</g>
		<g>
			<g>
				<path fill="#6E51C9" d="M2850,1761.5c-3.521-3.228-7.093-6.4-10.757-9.467c-2.213-1.822-4.507-3.564-6.756-5.348
					c-2.219-1.829-4.606-3.429-6.962-5.07l-3.536-2.459l-1.771-1.224l-1.835-1.123l-7.337-4.49c-1.208-0.775-2.47-1.451-3.736-2.12
					l-3.783-2.032l-3.783-2.03c-1.26-0.679-2.513-1.37-3.82-1.951l-7.757-3.652l-3.878-1.825c-1.301-0.589-2.632-1.103-3.947-1.658
					c-10.494-4.503-21.201-8.433-31.979-12.111c-43.252-14.377-87.758-24.052-132.338-32.673
					c-44.623-8.519-89.492-15.585-134.425-22.116c44.848,7.095,89.618,14.724,134.092,23.796
					c44.422,9.168,88.755,19.401,131.559,34.233c10.661,3.788,21.232,7.821,31.552,12.404c1.293,0.565,2.605,1.091,3.882,1.689
					l3.804,1.85l7.606,3.699c1.282,0.589,2.506,1.285,3.737,1.969l3.695,2.044l3.695,2.043c1.236,0.673,2.469,1.352,3.642,2.128
					l7.136,4.492l1.784,1.122l1.717,1.22l3.426,2.448c2.283,1.633,4.598,3.223,6.741,5.039c2.176,1.773,4.387,3.494,6.535,5.307
					c4.727,4.059,9.312,8.279,13.793,12.608V1761.5z"/>
			</g>
		</g>
	</g>
	<g>
		<g>
			<g>
				<path fill="#6E51C9" d="M46.511,1338.804l0.061-1.661c-10.535,23.408-19.248,47.629-26.029,72.36
					c6.556,9.944,25.027,38.354,25.027,38.354c-10.773-3.282-37.268-8.577-37.268-8.577c-3.02,7.921-5.771,15.942-8.274,24.037
					v38.472c12.275,11.101,35.264,32.776,49.979,44.464l-49.979-15.688v148.457c5.157,36.62,11.033,71.314,15.903,96.707
					l19.796-35.637C131.994,1445.481,60.03,1383.439,46.511,1338.804z"/>
			</g>
			<g>
				<g>
					<path fill="#554686" d="M6.063,1800c12.939-30.931,24.66-62.392,35.039-94.323c6.233-19.156,11.901-38.506,16.932-58.036
						c5.003-19.534,9.448-39.231,12.961-59.119c3.44-19.895,6.154-39.942,7.646-60.109c0.172-2.522,0.395-5.039,0.524-7.564
						l0.342-7.578c0.288-5.048,0.322-10.109,0.408-15.165l0.062-3.792l-0.046-3.794l-0.11-7.587
						c-0.023-2.529-0.216-5.056-0.316-7.583c-0.138-2.526-0.208-5.055-0.402-7.578c-0.431-5.043-0.708-10.095-1.338-15.119
						c-0.289-2.514-0.533-5.031-0.859-7.539l-1.101-7.509c-1.621-9.984-3.495-19.933-6.073-29.709
						c-5.074-19.565-12.107-38.577-20.986-56.623l2.769,7.012l2.623,7.063l2.495,7.102l2.326,7.153
						c2.988,9.569,5.567,19.251,7.652,29.033c4.257,19.55,6.48,39.469,7.394,59.413c0.774,19.958,0.196,39.964-1.546,59.875
						c-1.688,19.916-4.393,39.754-7.927,59.451c-3.377,19.728-7.74,39.291-12.529,58.745l-1.789,7.299l-0.894,3.65l-0.964,3.633
						l-3.872,14.529c-1.289,4.844-2.748,9.642-4.1,14.47c-1.361,4.826-2.692,9.662-4.178,14.453
						c-9.619,32.194-20.287,64.091-31.47,95.847H6.063z"/>
				</g>
			</g>
		</g>
		<g>
			<path fill="#6E51C9" d="M211.555,1539.825c35.11-22.359,110.721-72.262,141.513-100.411
				c17.536-16.031,34.716-33.554,43.92-55.495l2.878-5.297c-4.16-6.553-8.992-12.665-14.396-18.208l5.885-3.907
				c11.767,3.151,23.533,6.302,35.3,9.453l-4.659,2.305c35.573-17.427,68.636-40.197,97.742-67.311l-1.396-4.872
				c-9.157-7.338-18.776-14.092-28.783-20.21l10.097,0.642c11.865-3.067,25.315,2.449,36.117-3.453
				c5.253-2.87,8.882-7.988,12.316-12.928c9.769-14.05,19.537-28.099,29.306-42.149l-1.302-0.625
				c-103.528,15.954-218.81,77.449-294.092,151.782L211.555,1539.825z"/>
		</g>
		<g>
			<path fill="#6E51C9" d="M205.425,1546.196c68.941-48.509,148.85-104.468,231.932-118.516
				c-21.972,34.533-84.015,113.813-84.015,113.813l-29.661-6.747l8.092,30.955l-153.123,128.901l-20.878,13.826l-23.603-3.352
				l-4.252,18.51c0,0-59.966,5.41-78.954,23.783c37.061-65.47,82.605-126.118,135.128-179.943L205.425,1546.196z"/>
		</g>
		<g>
			<g>
				<path fill="#554686" d="M43.435,1800c6.035-8.154,12.278-16.147,18.71-23.984c7.219-8.861,14.653-17.544,22.227-26.111
					c7.57-8.569,15.199-17.091,22.91-25.55c30.823-33.873,61.754-67.613,93.66-100.391l12.001-12.251l6.009-6.118l6.082-6.043
					l12.182-12.068l12.336-11.906c2.057-1.984,4.087-3.996,6.166-5.956l6.247-5.869c4.177-3.899,8.302-7.857,12.522-11.709
					c8.488-7.65,16.856-15.44,25.49-22.927c34.241-30.302,70.214-58.606,107.586-85.117
					c-38.877,24.243-75.914,51.557-110.916,81.242c-35.185,29.497-68.313,61.359-100.407,94.139
					c-7.934,8.284-15.917,16.522-23.725,24.921c-7.873,8.34-15.646,16.768-23.379,25.234c-15.369,17.016-30.678,34.083-45.68,51.408
					c-15.059,17.281-29.928,34.793-43.841,53.073c-6.425,8.489-12.649,17.143-18.58,25.985H43.435z"/>
			</g>
		</g>
		<g>
			<path fill="#9A81E6" d="M58.86,1730.116c-19.192-105.957-2.915-218.684,45.594-315.749c18.549,8.878,35.079,21.914,48.071,37.912
				c2.578-27.907-21.175-53.762-15.419-81.232c2.068-9.867,7.777-18.558,13.456-26.909c13.468-19.807,27.44-39.269,41.897-58.361
				c12.679,14.865,25.358,29.729,38.036,44.594c-12.897-15.814-14.904-38.63-9.793-58.697c5.111-20.068,16.455-37.973,28.243-55.03
				c19.101-27.637,39.851-54.126,62.099-79.271l-1.054,1.998c16.993,101.13-8.367,205.68-46.316,301.735
				c-45.729,115.749-114.894,215.567-207.315,298.658L58.86,1730.116z"/>
		</g>
		<g>
			<g>
				<path fill="#6E51C9" d="M21.603,1800c23.727-40.23,47.14-80.638,70.399-121.132c7.146-12.408,14.281-24.818,21.346-37.278
					c7.078-12.452,14.127-24.927,21.069-37.469c6.93-12.548,13.72-25.185,20.288-37.938l4.965-9.545
					c1.653-3.183,3.229-6.405,4.847-9.605l4.825-9.617l2.41-4.81l2.338-4.845c25.095-51.607,47.335-104.598,66.701-158.596
					c9.717-26.989,18.521-54.297,26.681-81.78l3.025-10.317l2.879-10.359c1.901-6.91,3.88-13.796,5.648-20.742
					c1.79-6.939,3.681-13.848,5.386-20.807l5.011-20.898c-3.974,13.765-7.916,27.528-12.061,41.231
					c-2.001,6.871-4.213,13.681-6.346,20.511l-3.226,10.236l-3.371,10.19c-2.241,6.794-4.399,13.614-6.76,20.367l-3.47,10.152
					c-1.154,3.385-2.301,6.771-3.528,10.131l-7.202,20.207l-7.458,20.111c-10.166,26.729-20.766,53.288-32.111,79.527l-4.264,9.835
					c-1.402,3.286-2.825,6.564-4.303,9.817l-8.781,19.557l-9.048,19.435c-3.056,6.459-6.206,12.873-9.303,19.312l-2.319,4.831
					l-2.384,4.8l-4.772,9.597c-1.601,3.194-3.159,6.41-4.794,9.586l-4.912,9.526c-6.48,12.738-13.256,25.322-20.047,37.907
					c-13.56,25.18-27.654,50.104-41.424,75.216C64.842,1717.446,42.302,1758.633,20.08,1800H21.603z"/>
			</g>
		</g>
		<g>
			<path fill="#9A81E6" d="M520.885,1500.359c-38.308,3.159-173.991,37.108-173.991,37.108l-1.267,32.305l-20.285-18.356
				l-106.871,109.902c0,0,4.421-34.39,10.639-50.555c-47.142,47.888-86.761,103.3-116.873,163.458l2.098,1.751
				c61.188-4.924,174.118-57.069,174.118-57.069l-22.386-41.431l61.502,11.79l98.628-73.948l-17.291-19.699l51.905-5.492
				L520.885,1500.359z"/>
		</g>
		<g>
			<g>
				<path fill="#6E51C9" d="M86.075,1800c17.854-16.398,36.028-32.43,54.544-48.05l13.858-11.405l13.815-11.45l28.135-22.273
					l28.543-21.742l28.994-21.135l29.351-20.638l29.759-20.05l30.094-19.552c10.168-6.303,20.303-12.66,30.435-19.03
					c40.801-25.032,82.452-48.69,124.653-71.438c-43.424,20.317-85.87,42.784-127.276,67.052
					c-10.298,6.155-20.595,12.319-30.856,18.544l-30.443,19.227l-29.982,19.948l-29.55,20.59l-29.02,21.336l-28.533,21.985
					l-27.95,22.721c-9.162,7.761-18.267,15.588-27.365,23.418c-19.088,16.769-37.708,34.077-55.763,51.942H86.075z"/>
			</g>
		</g>
	</g>
</g>
<path opacity="0.4" fill="#FFFFFF" d="M1005.468,428.164l645.347-147.258c0.269-0.061,0.537,0.107,0.599,0.376
	c0.061,0.267-0.104,0.533-0.37,0.597l-643.28,156.04c-2.69,0.652-5.399-0.999-6.051-3.689c-0.652-2.689,0.999-5.399,3.689-6.051
	C1005.415,428.177,1005.455,428.168,1005.468,428.164z"/>
<path opacity="0.4" fill="#FFFFFF" d="M1766.982,419.824l952.352-232.325c0.268-0.065,0.539,0.099,0.604,0.367
	c0.065,0.267-0.097,0.536-0.363,0.603l-950.174,241.08c-2.682,0.681-5.409-0.942-6.089-3.625c-0.681-2.682,0.942-5.409,3.625-6.089
	L1766.982,419.824z"/>
</svg>
