<svg xmlns="http://www.w3.org/2000/svg" xmlns:xlink="http://www.w3.org/1999/xlink" viewBox="0 0 2828.86 2792.56"><defs><style>.cls-1{isolation:isolate;}.cls-2{fill:#5660f2;opacity:0.14;}.cls-3{fill:#bdd0fb;}.cls-11,.cls-13,.cls-4{fill:#fff;}.cls-4{mix-blend-mode:soft-light;}.cls-5{fill:#91b3fa;}.cls-6{opacity:0.3;}.cls-7{fill:url(#linear-gradient);}.cls-8{fill:url(#linear-gradient-2);}.cls-9{fill:url(#linear-gradient-3);}.cls-10{fill:url(#linear-gradient-4);}.cls-11{opacity:0.44;}.cls-12{fill:url(#linear-gradient-5);}.cls-13{opacity:0.67;}.cls-14{fill:url(#linear-gradient-6);}.cls-15{fill:url(#linear-gradient-7);}.cls-16{fill:url(#linear-gradient-8);}.cls-17{fill:url(#linear-gradient-9);}.cls-18{fill:url(#linear-gradient-10);}.cls-19{fill:url(#linear-gradient-11);}.cls-20{fill:url(#linear-gradient-12);}.cls-21{fill:url(#linear-gradient-13);}.cls-22{fill:url(#linear-gradient-14);}.cls-23{fill:url(#linear-gradient-15);}.cls-24{fill:url(#linear-gradient-16);}.cls-25{fill:url(#linear-gradient-17);}.cls-26{fill:url(#linear-gradient-18);}.cls-27{fill:url(#linear-gradient-19);}.cls-28{fill:url(#linear-gradient-20);}.cls-29{fill:url(#linear-gradient-21);}.cls-30{fill:url(#linear-gradient-22);}.cls-31{fill:url(#linear-gradient-23);}.cls-32{fill:url(#linear-gradient-24);}.cls-33{fill:url(#linear-gradient-25);}.cls-34{fill:url(#linear-gradient-26);}.cls-35{fill:url(#linear-gradient-27);}.cls-36{fill:url(#linear-gradient-28);}.cls-37{fill:url(#linear-gradient-29);}.cls-38{fill:url(#linear-gradient-30);}.cls-39{fill:url(#linear-gradient-31);}.cls-40{fill:url(#linear-gradient-32);}.cls-41{fill:url(#linear-gradient-33);}.cls-42{fill:url(#linear-gradient-34);}.cls-43{fill:url(#linear-gradient-35);}.cls-44{fill:url(#linear-gradient-36);}.cls-45{fill:url(#linear-gradient-37);}.cls-46{fill:url(#linear-gradient-38);}.cls-47{fill:url(#linear-gradient-39);}.cls-48{fill:url(#linear-gradient-40);}.cls-49{fill:url(#linear-gradient-41);}.cls-50{fill:url(#linear-gradient-42);}.cls-51{fill:url(#linear-gradient-43);}.cls-52{fill:url(#linear-gradient-44);}</style><linearGradient id="linear-gradient" x1="1417.14" y1="871" x2="1382.58" y2="2467.73" gradientUnits="userSpaceOnUse"><stop offset="0" stop-color="#09005d"/><stop offset="1" stop-color="#1a0f91"/></linearGradient><linearGradient id="linear-gradient-2" x1="2594.59" y1="1657.1" x2="2608.67" y2="1657.1" gradientUnits="userSpaceOnUse"><stop offset="0" stop-color="#dae3fe"/><stop offset="1" stop-color="#e9effd"/></linearGradient><linearGradient id="linear-gradient-3" x1="1773.58" y1="1203.47" x2="2616.72" y2="1203.47" xlink:href="#linear-gradient-2"/><linearGradient id="linear-gradient-4" x1="1431.05" y1="2327.51" x2="1639.97" y2="1460.5" gradientTransform="translate(2795.16 4932.82) rotate(-180)" xlink:href="#linear-gradient"/><linearGradient id="linear-gradient-5" x1="2072.83" y1="-136.04" x2="1559.2" y2="1012.07" gradientUnits="userSpaceOnUse"><stop offset="0" stop-color="#ff928e"/><stop offset="1" stop-color="#fe7062"/></linearGradient><linearGradient id="linear-gradient-6" x1="1168.46" y1="619.83" x2="1708.91" y2="1946.38" gradientUnits="userSpaceOnUse"><stop offset="0" stop-color="#4f52ff"/><stop offset="1" stop-color="#4042e2"/></linearGradient><linearGradient id="linear-gradient-7" x1="1917.36" y1="-612.47" x2="1801.56" y2="-139.2" xlink:href="#linear-gradient-5"/><linearGradient id="linear-gradient-8" x1="1990.6" y1="-594.55" x2="1874.8" y2="-121.28" xlink:href="#linear-gradient-5"/><linearGradient id="linear-gradient-9" x1="1445.43" y1="1650.98" x2="1757.59" y2="769.88" gradientUnits="userSpaceOnUse"><stop offset="0" stop-color="#e1473d"/><stop offset="1" stop-color="#e9605a"/></linearGradient><linearGradient id="linear-gradient-10" x1="17832.7" y1="827.36" x2="17494.79" y2="1020.23" gradientTransform="matrix(-1, 0, 0, 1, 19615.14, 0)" gradientUnits="userSpaceOnUse"><stop offset="0" stop-color="#febbba"/><stop offset="1" stop-color="#ff928e"/></linearGradient><linearGradient id="linear-gradient-11" x1="1809.74" y1="1137.18" x2="1946.3" y2="1137.18" xlink:href="#linear-gradient"/><linearGradient id="linear-gradient-12" x1="17800.01" y1="875.46" x2="18956.15" y2="151.7" xlink:href="#linear-gradient-10"/><linearGradient id="linear-gradient-13" x1="1902.77" y1="1221.97" x2="2020.08" y2="1221.97" xlink:href="#linear-gradient"/><linearGradient id="linear-gradient-14" x1="9684.49" y1="585.19" x2="9406.57" y2="889.75" gradientTransform="matrix(-1, 0, 0, 1, 11783.44, 0)" xlink:href="#linear-gradient-6"/><linearGradient id="linear-gradient-15" x1="1942.95" y1="570.73" x2="1555.27" y2="253.54" gradientTransform="translate(548.71)" xlink:href="#linear-gradient"/><linearGradient id="linear-gradient-16" x1="2859" y1="135.41" x2="2577.05" y2="372.05" xlink:href="#linear-gradient-5"/><linearGradient id="linear-gradient-17" x1="-9725.54" y1="716.19" x2="-9388.94" y2="716.19" gradientTransform="translate(12099.82)" xlink:href="#linear-gradient-10"/><linearGradient id="linear-gradient-18" x1="-11565.08" y1="-347.05" x2="-11548.62" y2="-467.43" gradientTransform="translate(13797.17 72.24) rotate(-4.11)" xlink:href="#linear-gradient-10"/><linearGradient id="linear-gradient-19" x1="-9546.97" y1="-4855.44" x2="-9392.04" y2="-5131.16" gradientTransform="translate(11527.84 -4896.58) rotate(-56.92)" xlink:href="#linear-gradient-10"/><linearGradient id="linear-gradient-20" x1="1949.52" y1="562.7" x2="1561.84" y2="245.51" gradientTransform="translate(548.71)" xlink:href="#linear-gradient"/><linearGradient id="linear-gradient-21" x1="-9510.44" y1="-4831.46" x2="-9355.51" y2="-5107.18" gradientTransform="translate(11527.84 -4896.58) rotate(-56.92)" xlink:href="#linear-gradient-10"/><linearGradient id="linear-gradient-22" x1="-9748.39" y1="308.44" x2="-9924.48" y2="356.7" gradientTransform="translate(12080.3 -77.34) rotate(-2.83)" xlink:href="#linear-gradient"/><linearGradient id="linear-gradient-23" x1="1353.11" y1="683.95" x2="2936.83" y2="550.71" gradientTransform="translate(548.71)" xlink:href="#linear-gradient"/><linearGradient id="linear-gradient-24" x1="-4669.77" y1="2736.55" x2="-4504.21" y2="2736.55" gradientTransform="translate(5088.22)" xlink:href="#linear-gradient-6"/><linearGradient id="linear-gradient-25" x1="-4669.78" y1="2704.1" x2="-4508.89" y2="2704.1" gradientTransform="translate(5088.22)" xlink:href="#linear-gradient"/><linearGradient id="linear-gradient-26" x1="-4654.49" y1="2658.8" x2="-4607.85" y2="2658.8" gradientTransform="translate(5088.22)" xlink:href="#linear-gradient-10"/><linearGradient id="linear-gradient-27" x1="-4965.27" y1="2777.6" x2="-4901.83" y2="2777.6" gradientTransform="translate(5088.22)" xlink:href="#linear-gradient-6"/><linearGradient id="linear-gradient-28" x1="-4964.81" y1="2714.46" x2="-4871.69" y2="2714.46" gradientTransform="translate(5088.22)" xlink:href="#linear-gradient"/><linearGradient id="linear-gradient-29" x1="-4916.41" y1="2634.48" x2="-4860.67" y2="2634.48" gradientTransform="translate(5088.22)" xlink:href="#linear-gradient-10"/><linearGradient id="linear-gradient-30" x1="-4465.6" y1="2033.05" x2="-4941.44" y2="2812.51" gradientTransform="translate(5088.22)" xlink:href="#linear-gradient-6"/><linearGradient id="linear-gradient-31" x1="933.31" y1="1627.36" x2="636.26" y2="1964.69" xlink:href="#linear-gradient-6"/><linearGradient id="linear-gradient-32" x1="-4149.82" y1="1460.52" x2="-4370.56" y2="1747.69" gradientTransform="translate(5088.22)" xlink:href="#linear-gradient-10"/><linearGradient id="linear-gradient-33" x1="921.4" y1="1531.3" x2="290.34" y2="1893.83" xlink:href="#linear-gradient-9"/><linearGradient id="linear-gradient-34" x1="587.44" y1="1642.2" x2="622.1" y2="1642.2" xlink:href="#linear-gradient-5"/><linearGradient id="linear-gradient-35" x1="-4641.83" y1="1646.12" x2="-4617.68" y2="1519.34" gradientTransform="translate(5088.22)" xlink:href="#linear-gradient-10"/><linearGradient id="linear-gradient-36" x1="1456.6" y1="837.7" x2="1147.78" y2="1213.65" gradientTransform="matrix(1, 0, 0, 1, 0, 0)" xlink:href="#linear-gradient-10"/><linearGradient id="linear-gradient-37" x1="-4538.95" y1="1783.67" x2="-4618.01" y2="1902.27" gradientTransform="translate(5088.22)" xlink:href="#linear-gradient-10"/><linearGradient id="linear-gradient-38" x1="343.65" y1="1802.83" x2="266.18" y2="1919.03" gradientTransform="matrix(-1, 0, 0, 1, 735.2, 0)" xlink:href="#linear-gradient-10"/><linearGradient id="linear-gradient-39" x1="1289.54" y1="2049.49" x2="1071.68" y2="2109.2" gradientTransform="matrix(-1, -0.05, -0.05, 1, 1803.86, -77.34)" xlink:href="#linear-gradient"/><linearGradient id="linear-gradient-40" x1="1074.27" y1="1766.96" x2="920.6" y2="1929.39" gradientTransform="matrix(-1, 0, 0, 1, 1784.34, 0)" xlink:href="#linear-gradient"/><linearGradient id="linear-gradient-41" x1="981.09" y1="1807.56" x2="911.62" y2="1912.17" gradientTransform="matrix(-1, 0, 0, 1, 1784.34, 0)" xlink:href="#linear-gradient-6"/><linearGradient id="linear-gradient-42" x1="1505.84" y1="1736.84" x2="1360.35" y2="1929.32" gradientTransform="translate(-1697.25 694.9) rotate(-31.95)" xlink:href="#linear-gradient-10"/><linearGradient id="linear-gradient-43" x1="1394.73" y1="1783.27" x2="1568.53" y2="1783.27" gradientTransform="translate(-1697.25 694.9) rotate(-31.95)" xlink:href="#linear-gradient"/><linearGradient id="linear-gradient-44" x1="1292.75" y1="1889.27" x2="1409.45" y2="1769.54" gradientTransform="translate(-1697.25 694.9) rotate(-31.95)" xlink:href="#linear-gradient-10"/></defs><g class="cls-1"><g id="katman_2" data-name="katman 2"><g id="Illustration"><path class="cls-2" d="M2460.85,2356c-72.33,73.3-137,116.4-186.59,148.93-483.22,317.27-1035.6,225.83-1206.38,194.57-275.53-50.43-508.12-86-708-263.54-454.09-403.41-432-1244.95-85-1766.26,41.14-61.81,387.59-566.8,941.16-638,13.54-1.74,23.65-2.73,32.49-3.65,85.64-8.92,616.31-56,1049,300.51,61.94,51,161.62,143.07,254.06,283.45C2889.61,1125.33,2890.69,1920.31,2460.85,2356Z"/><path class="cls-3" d="M2795.22,15.52c2.9-12.37-14.5-20.59-25.15-11.95C2661.87,91.31,2401.91,354,2466.7,813.18,2548,1389.23,2409,1599.43,2236,1727.65c0,0,237.56-60.3,387-273.59C2990,930.38,2743.55,235.46,2795.22,15.52Z"/><path class="cls-4" d="M2712.88,195.45c-13.54,64.13-25.6,128.46-34.92,193.07q-14.58,96.84-22.25,194.24c-4.81,64.91-8.2,129.88-8.4,194.88-.53,65,2.17,129.94,5.15,195.13,2.56,65.18,5.56,130.82.79,196.93s-18.58,132.52-46.14,194.9c-6.89,15.55-14.13,31.05-22.36,46-7.91,15.11-16.6,29.93-25.59,44.61a703.93,703.93,0,0,1-61.38,84.42c-45.72,53.62-100.86,101.18-161.6,141.43-6.39,4.24-15.55,3.19-20.46-2.33s-3.74-13.14,2.35-17.43l0,0c14.45-10.15,28.75-20.43,42.47-31.23,7-5.31,13.64-10.87,20.43-16.31,6.55-5.67,13.35-11.12,19.69-17a699.64,699.64,0,0,0,71.36-73.35c43.61-51.55,78.52-109,105-168.56a570.2,570.2,0,0,0,30.59-91.86,626.83,626.83,0,0,0,14.76-95.14c5.2-64.16,2.85-129.15.84-194.34s-3.32-130.73-1.6-196.21q1.14-49.11,4.32-98.15c1-16.34,2.26-32.67,3.54-49q2.21-24.47,4.75-48.91,10.55-97.74,28-194.71c12-64.55,26.06-128.81,42.93-192.49a4,4,0,0,1,4.69-2.54A3.42,3.42,0,0,1,2712.88,195.45Z"/><path class="cls-5" d="M2457.34,1598.45c12.41,20,41.17,20.75,54.91,1.69,75.83-105.17,263.35-421.92,146.69-854-98.52-364.92-117.26-572.16-119.24-666.82-.42-20-26.16-27.87-37.71-11.51C2374.56,248.2,2007.62,875.42,2457.34,1598.45Z"/><path class="cls-4" d="M2488.51,1592a8.75,8.75,0,0,0,1.7.49,9.18,9.18,0,0,0,10.7-7.34c1.05-5.64,103.8-570.57-10.26-1084.15a9.17,9.17,0,0,0-17.91,4c113.23,509.85,11.17,1071.21,10.13,1076.82A9.17,9.17,0,0,0,2488.51,1592Z"/><g class="cls-6"><path class="cls-5" d="M590.37,576.41a9.91,9.91,0,0,1-8.57-10.12c.33-11.19,1.16-22.54,2.46-33.72a9.92,9.92,0,0,1,11-8.71l.19,0a9.92,9.92,0,0,1,8.52,11c-1.24,10.62-2,21.4-2.34,32a9.93,9.93,0,0,1-10.21,9.61A8.93,8.93,0,0,1,590.37,576.41Zm12.21-85.5a9.51,9.51,0,0,1-1.16-.23,9.92,9.92,0,0,1-7.13-12.07c2.81-10.89,6.11-21.77,9.81-32.34a9.92,9.92,0,1,1,18.72,6.56c-3.52,10-6.66,20.38-9.32,30.73A9.93,9.93,0,0,1,602.58,490.91Zm30.73-80.69a9.93,9.93,0,0,1-7.48-14.38c5.15-10,10.8-19.84,16.79-29.34a9.91,9.91,0,1,1,16.77,10.57c-5.69,9-11,18.4-15.94,27.87A9.93,9.93,0,0,1,633.31,410.22Zm48-71.81a9.92,9.92,0,0,1-6.23-16.23c7.26-8.57,15-16.93,22.93-24.85a9.91,9.91,0,1,1,14,14.05c-7.56,7.52-14.89,15.46-21.78,23.61A9.89,9.89,0,0,1,681.32,338.41Zm62.82-59.29a9.92,9.92,0,0,1-4.63-17.75c9-6.73,18.33-13.18,27.85-19.15A9.91,9.91,0,1,1,777.9,259c-9,5.68-18,11.81-26.47,18.21A9.88,9.88,0,0,1,744.14,279.12Zm74.37-43.92a9.92,9.92,0,0,1-2.74-18.87c10.24-4.6,20.8-8.81,31.4-12.52a9.92,9.92,0,0,1,6.55,18.72c-10.07,3.52-20.1,7.52-29.83,11.89A9.83,9.83,0,0,1,818.51,235.2Zm363.18,25.3a9.79,9.79,0,0,1-3.94-1.43c-9-5.67-18.41-11-27.9-15.89a9.92,9.92,0,1,1,9.06-17.64c10,5.14,19.89,10.77,29.39,16.74a9.92,9.92,0,0,1-6.61,18.22Zm-281-51.63a9.92,9.92,0,0,1-.62-19.55c11-2.2,22.24-3.95,33.39-5.2a9.91,9.91,0,1,1,2.21,19.7c-10.59,1.19-21.26,2.85-31.71,4.94A9.76,9.76,0,0,1,900.71,208.87Zm203.14,14.23a9.62,9.62,0,0,1-1.94-.47c-10.07-3.5-20.42-6.62-30.77-9.26a9.92,9.92,0,1,1,4.92-19.22c10.88,2.79,21.77,6.07,32.37,9.76a9.92,9.92,0,0,1-4.58,19.19ZM986.73,201.56a9.91,9.91,0,0,1,1.62-19.73c11.2.32,22.55,1.12,33.71,2.39l.21,0a9.91,9.91,0,0,1-2.46,19.67c-10.6-1.21-21.38-2-32-2.27A9.09,9.09,0,0,1,986.73,201.56Z"/><path class="cls-5" d="M1237.05,302.72a9.86,9.86,0,0,1-5.37-2.51c-3.76-3.46-7.66-6.89-11.59-10.21a9.91,9.91,0,0,1,12.79-15.15c4.14,3.49,8.24,7.1,12.21,10.74a9.92,9.92,0,0,1-8,17.13Z"/></g><g class="cls-6"><path class="cls-5" d="M1362.37,577.78a9.92,9.92,0,0,1-8.57-9.58c-.12-5.11-.36-10.31-.7-15.44a9.92,9.92,0,0,1,19.79-1.3c.35,5.4.6,10.87.73,16.25a9.91,9.91,0,0,1-9.67,10.16A10.39,10.39,0,0,1,1362.37,577.78Z"/><path class="cls-5" d="M925,970.2q-6.78-.91-13.58-2.07a9.91,9.91,0,1,1,3.32-19.55c10.46,1.77,21,3.12,31.36,4a9.92,9.92,0,0,1-1.7,19.76C938,971.8,931.44,971.08,925,970.2Zm-64.47-14.33a10.75,10.75,0,0,1-1.64-.37c-10.56-3.31-21.09-7.1-31.31-11.27a9.92,9.92,0,1,1,7.5-18.36c9.7,4,19.71,7.57,29.74,10.71a9.92,9.92,0,0,1-4.29,19.29Zm136,17.31a9.91,9.91,0,0,1,.83-19.72c10.46-.54,21-1.54,31.45-3a9.92,9.92,0,1,1,2.69,19.65c-11,1.5-22.1,2.55-33.12,3.12A10.3,10.3,0,0,1,996.56,973.18ZM782.69,921.66a9.88,9.88,0,0,1-3.63-1.25c-9.56-5.54-19-11.56-28.06-17.88a9.91,9.91,0,0,1,11.35-16.25c8.6,6,17.57,11.72,26.65,17a9.91,9.91,0,0,1-6.31,18.4Zm297.69,37.77a9.91,9.91,0,0,1-1.35-19.37c10.08-2.83,20.18-6.13,30-9.81a9.91,9.91,0,0,1,7,18.57c-10.37,3.88-21,7.35-31.62,10.33A9.92,9.92,0,0,1,1080.38,959.43Zm78.78-31.81a9.92,9.92,0,0,1-3.38-18.56c9.25-5,18.39-10.4,27.18-16.12a9.91,9.91,0,1,1,10.82,16.61c-9.25,6-18.87,11.73-28.6,17A9.89,9.89,0,0,1,1159.16,927.62Zm70-48.23a9.91,9.91,0,0,1-5.16-17.32c8-6.88,15.69-14.17,23-21.66a9.91,9.91,0,1,1,14.18,13.86c-7.71,7.88-15.86,15.56-24.22,22.79A9.88,9.88,0,0,1,1229.13,879.39Zm57.78-62.34a9.91,9.91,0,0,1-6.64-15.72c6.25-8.44,12.21-17.25,17.71-26.17a9.91,9.91,0,0,1,16.88,10.4c-5.79,9.4-12.07,18.68-18.65,27.56A9.89,9.89,0,0,1,1286.91,817.05Zm42.7-73.53a9.91,9.91,0,0,1-7.75-13.82c4.22-9.59,8.09-19.49,11.5-29.42a9.91,9.91,0,1,1,18.75,6.44c-3.58,10.45-7.66,20.87-12.1,31A9.92,9.92,0,0,1,1329.61,743.52Zm25.48-81.06c-.2,0-.4-.06-.6-.1a9.92,9.92,0,0,1-7.8-11.65c1.5-7.58,2.78-15.3,3.82-22.94q.56-4.15,1-8.29a9.91,9.91,0,0,1,19.7,2.22c-.33,2.91-.69,5.81-1.08,8.73-1.09,8-2.44,16.16-4,24.13A9.91,9.91,0,0,1,1355.09,662.46Z"/><path class="cls-5" d="M714.14,871a9.85,9.85,0,0,1-5.4-2.54c-3.94-3.65-7.88-7.45-11.7-11.3a9.91,9.91,0,0,1,14.06-14c3.63,3.66,7.37,7.26,11.11,10.73A9.91,9.91,0,0,1,714.14,871Z"/></g><path class="cls-5" d="M742.81,758.83a4.63,4.63,0,0,0,5,2.1l55.06-12.19a245.93,245.93,0,0,0,64.39,46.79l5.44,56.1a4.63,4.63,0,0,0,3.53,4L942,871.46a4.64,4.64,0,0,0,5-2l30.29-47.53a245.57,245.57,0,0,0,78.61-12.5l43.54,35.85a4.65,4.65,0,0,0,5.37.37l57.67-35.36a4.62,4.62,0,0,0,2.1-4.95l-12.19-55.06a245.93,245.93,0,0,0,46.79-64.39l56.1-5.44a4.63,4.63,0,0,0,4-3.53l15.78-65.78a4.64,4.64,0,0,0-2-5l-47.53-30.29a245.57,245.57,0,0,0-12.5-78.61l35.85-43.54a4.65,4.65,0,0,0,.37-5.37l-35.36-57.67a4.62,4.62,0,0,0-5-2.1l-55.06,12.19A245.93,245.93,0,0,0,1089.48,354l-5.44-56.1a4.65,4.65,0,0,0-3.53-4.06L1014.73,278a4.64,4.64,0,0,0-5,2l-30.29,47.53a245.57,245.57,0,0,0-78.61,12.5L857.3,304.22a4.65,4.65,0,0,0-5.37-.37l-57.67,35.36a4.63,4.63,0,0,0-2.1,5l12.19,55.06a245.93,245.93,0,0,0-46.79,64.39l-56.1,5.44a4.63,4.63,0,0,0-4.05,3.53l-15.78,65.78a4.64,4.64,0,0,0,2,5l47.53,30.29a245.57,245.57,0,0,0,12.5,78.61l-35.85,43.54a4.65,4.65,0,0,0-.37,5.37Z"/><path class="cls-3" d="M969.19,642.13a68,68,0,1,1,10,.61A68.11,68.11,0,0,1,969.19,642.13Zm16.25-119a52.14,52.14,0,1,0,29.33,14.35A51.92,51.92,0,0,0,985.44,523.09Z"/><path class="cls-3" d="M957.4,739.64a168.22,168.22,0,0,1-16.89-3.16h0q-2.64-.63-5.28-1.35A168.4,168.4,0,0,1,910.05,726l-.33-.15-.94-.44-1.81-.86a4,4,0,0,1-2.22-4.1,3.79,3.79,0,0,1,.36-1.19,4,4,0,0,1,5.29-1.86,159.39,159.39,0,0,0,179.89-29.16A158.36,158.36,0,0,0,1134.38,611a161.13,161.13,0,0,0,3-16.11A159.31,159.31,0,0,0,1016.65,419c-85.43-20.48-171.54,32.34-192,117.73a159.45,159.45,0,0,0,2.88,84.79,3.89,3.89,0,0,1,.14,1.72,4,4,0,0,1-7.71.66,167.33,167.33,0,0,1-3-89c21.5-89.65,112-145.09,201.58-123.59A167.25,167.25,0,0,1,1145.26,596c-.77,5.64-1.82,11.29-3.17,16.91A167.23,167.23,0,0,1,957.4,739.64Z"/><g class="cls-6"><path class="cls-5" d="M220.08,790a6.1,6.1,0,0,1-5.23-5.14c-.79-5.14-1.42-10.38-1.9-15.56a6.13,6.13,0,0,1,12.2-1.11c.45,4.94,1.06,9.92,1.8,14.83a6.12,6.12,0,0,1-5.13,7A6,6,0,0,1,220.08,790Z"/><path class="cls-5" d="M217.29,743a6.11,6.11,0,0,1-5.29-6.26,265.08,265.08,0,0,1,2.25-26.85q.38-2.8.82-5.61a6.33,6.33,0,0,1,7-5.1,6.12,6.12,0,0,1,5.1,7c-.28,1.79-.55,3.58-.79,5.36a255.06,255.06,0,0,0-2.14,25.61,6.13,6.13,0,0,1-6.32,5.92C217.7,743,217.5,743,217.29,743Zm9.85-62.81a6.94,6.94,0,0,1-.86-.18,6.12,6.12,0,0,1-4.21-7.57,265.45,265.45,0,0,1,10.83-30.74,6.12,6.12,0,1,1,11.27,4.78,255.39,255.39,0,0,0-10.33,29.32A6.12,6.12,0,0,1,227.14,680.14Zm24.79-58.55a6,6,0,0,1-2.24-.76,6.13,6.13,0,0,1-2.23-8.37,264.42,264.42,0,0,1,18.06-27.16,6.12,6.12,0,0,1,9.76,7.4,252.43,252.43,0,0,0-17.22,25.9A6.12,6.12,0,0,1,251.93,621.59Zm38.43-50.66a6.12,6.12,0,0,1-3.56-10.34A264.89,264.89,0,0,1,311,538.69a6.12,6.12,0,0,1,7.64,9.57,254,254,0,0,0-23,20.88A6.11,6.11,0,0,1,290.36,570.93ZM340,531.19a6.12,6.12,0,0,1-2.4-11.28,268.46,268.46,0,0,1,28.73-15.37,6.12,6.12,0,0,1,5.11,11.13A254.74,254.74,0,0,0,344,530.34,6.08,6.08,0,0,1,340,531.19Zm57.76-26.48a6.13,6.13,0,0,1-1-11.91,263.1,263.1,0,0,1,31.61-7.89,6.12,6.12,0,1,1,2.22,12,250.83,250.83,0,0,0-30.13,7.53A6.11,6.11,0,0,1,397.76,504.71Zm62.48-11.56A6.12,6.12,0,0,1,460.7,481a266.65,266.65,0,0,1,32.6.1,6.13,6.13,0,0,1-.79,12.23,252,252,0,0,0-31.09-.1A5.77,5.77,0,0,1,460.24,493.15Zm94.31,12a6.62,6.62,0,0,1-1-.24A253.64,253.64,0,0,0,527.34,498c-1.34-.28-2.66-.55-4-.79a6.12,6.12,0,0,1-4.88-7.15,6.06,6.06,0,0,1,7.15-4.89c1.41.27,2.81.54,4.21.84a266.29,266.29,0,0,1,27.4,7.19,6.12,6.12,0,0,1-2.69,11.9Z"/></g><g class="cls-6"><path class="cls-5" d="M444.49,1007.59a6.13,6.13,0,0,1,1.57-12.15,251.38,251.38,0,0,0,30.51,1.87,6.13,6.13,0,1,1,0,12.25,265.54,265.54,0,0,1-32-2Zm-30.81-5.66c-.22,0-.43-.07-.65-.12a267.84,267.84,0,0,1-30.62-9.52,6.13,6.13,0,0,1,4.33-11.46A256.6,256.6,0,0,0,416,989.92a6.12,6.12,0,0,1-2.28,12ZM507,1007.6a6.12,6.12,0,0,1,.07-12.14,255.94,255.94,0,0,0,30.07-5.58,6.13,6.13,0,0,1,3,11.89,266,266,0,0,1-31.53,5.84A6.33,6.33,0,0,1,507,1007.6ZM355.18,979.77a6.33,6.33,0,0,1-2-.65,265.56,265.56,0,0,1-27.43-16.64,6.13,6.13,0,0,1,7-10.07,251.07,251.07,0,0,0,26.15,15.87,6.12,6.12,0,0,1-3.67,11.49Zm212.5,12.72a6.13,6.13,0,0,1-1.37-11.79,250.51,250.51,0,0,0,27.84-12.63,6.13,6.13,0,0,1,5.73,10.83,266.92,266.92,0,0,1-29.19,13.25A6,6,0,0,1,567.68,992.49ZM623,963.28a6.12,6.12,0,0,1-2.68-11.1,259,259,0,0,0,24-18.93,6.12,6.12,0,1,1,8.14,9.14,270.19,270.19,0,0,1-25.18,19.85A6.19,6.19,0,0,1,623,963.28Zm46.68-41.63a6,6,0,0,1-3.22-1.47,6.12,6.12,0,0,1-.55-8.64,249.5,249.5,0,0,0,18.78-24.15,6.13,6.13,0,0,1,10.11,6.92,266.72,266.72,0,0,1-19.69,25.33A6.14,6.14,0,0,1,669.64,921.65Z"/><path class="cls-5" d="M303.56,943.93a6,6,0,0,1-3.26-1.5c-3.91-3.49-7.73-7.11-11.36-10.77a6.12,6.12,0,1,1,8.69-8.63c3.46,3.48,7.11,6.94,10.84,10.27a6.12,6.12,0,0,1-4.91,10.63Z"/></g><path class="cls-5" d="M319.2,866.23a3.12,3.12,0,0,0,3.32,1.4l36.84-8.16a164.38,164.38,0,0,0,43.09,31.31l3.64,37.54a3.11,3.11,0,0,0,2.36,2.72l44,10.55a3.1,3.1,0,0,0,3.34-1.34l20.27-31.81a164.39,164.39,0,0,0,52.6-8.36l29.13,24a3.12,3.12,0,0,0,3.6.25L600,900.66a3.12,3.12,0,0,0,1.4-3.32l-8.16-36.84a164.38,164.38,0,0,0,31.31-43.09l37.54-3.64a3.11,3.11,0,0,0,2.72-2.36l10.55-44a3.1,3.1,0,0,0-1.34-3.34l-31.81-20.27a164.35,164.35,0,0,0-8.36-52.6l24-29.13a3.1,3.1,0,0,0,.25-3.59l-23.67-38.6a3.1,3.1,0,0,0-3.31-1.4l-36.84,8.16a164.38,164.38,0,0,0-43.09-31.31l-3.64-37.54a3.1,3.1,0,0,0-2.36-2.72l-44-10.55a3.1,3.1,0,0,0-3.34,1.34l-20.27,31.81A164.35,164.35,0,0,0,425,586l-29.13-24a3.12,3.12,0,0,0-3.6-.25l-38.59,23.66a3.12,3.12,0,0,0-1.4,3.32l8.16,36.84a164.38,164.38,0,0,0-31.31,43.09l-37.54,3.64a3.11,3.11,0,0,0-2.72,2.36l-10.55,44a3.1,3.1,0,0,0,1.34,3.34l31.81,20.27a164.39,164.39,0,0,0,8.36,52.6l-24,29.13a3.12,3.12,0,0,0-.25,3.6Z"/><path class="cls-3" d="M470.51,788.94a46.41,46.41,0,1,1,6.85.42A48.65,48.65,0,0,1,470.51,788.94Zm10.89-79.66a35.76,35.76,0,0,0-5-.31,34.07,34.07,0,1,0,.81,68.14h0a34.07,34.07,0,0,0,4.18-67.83Z"/><path class="cls-3" d="M462.22,856.8a116.74,116.74,0,0,1-11.53-2.16,114.93,114.93,0,0,1-22.19-7.76l-.95-.45a6.12,6.12,0,1,1,5.3-11,103.28,103.28,0,0,0,20.69,7.34h0l1.18.28a102,102,0,0,0,50.48-1.15,103.79,103.79,0,0,0,25.49-11l.19-.12.6-.37a102.4,102.4,0,0,0,46.37-63.85,104.49,104.49,0,0,0,1.95-10.43,103.11,103.11,0,0,0-202.47-37.66,104.59,104.59,0,0,0-1.93,10.29,102.84,102.84,0,0,0,3.79,44.6,6,6,0,0,1,.23,2.65,6.12,6.12,0,0,1-11.91,1,115.05,115.05,0,0,1-4.24-49.9,115.36,115.36,0,0,1,228.67,30.62A115.44,115.44,0,0,1,462.22,856.8Z"/><path class="cls-7" d="M146.33,2366.09a45.43,45.43,0,0,0,45.32,45.28H2642.49a45.44,45.44,0,0,0,45.32-45.28L2708.2,957.66c0-24.9-29.34-73.52-83.11-69.87l-2395.23-62A114.21,114.21,0,0,0,112.67,942.63Z"/><path class="cls-5" d="M191.07,2322.65A43,43,0,0,0,234,2365.53H2583.38a43,43,0,0,0,42.88-42.88l19.25-1278.59c-2.27-76.94-69.73-104.59-110.62-103L239.28,879.51a80.27,80.27,0,0,0-82.35,82.14Z"/><path class="cls-8" d="M2600.87,1715.23h-.09a6.28,6.28,0,0,1-6.19-6.38l1.52-103.69a6.29,6.29,0,0,1,6.28-6.19h.09a6.28,6.28,0,0,1,6.19,6.38L2607.15,1709A6.28,6.28,0,0,1,2600.87,1715.23Z"/><path class="cls-9" d="M2604.61,1461.14h-.1a6.29,6.29,0,0,1-6.19-6.38l5.83-397.14c-.11-23.59-7.27-42.43-21.28-55.86-26.16-25.06-67.7-23.78-69.45-23.7l-733.73-19.67a6.29,6.29,0,0,1-6.11-6.45,6,6,0,0,1,6.45-6.11l733.29,19.67c4.57-.27,48.79-1,78.24,27.19,16.57,15.87,25,37.74,25.16,65l-5.84,397.26A6.28,6.28,0,0,1,2604.61,1461.14Z"/><rect class="cls-10" y="2404.54" width="2795.16" height="123.75" rx="5.65" transform="translate(2795.16 4932.82) rotate(180)"/><path class="cls-11" d="M2477,1399.1H299.87c-34.48,0-62.44-26.89-62.44-60V1049.44c0-33.51,28.52-60.54,63.37-60l2177.12,30.9c34.13.49,61.53,27.22,61.53,60v258.71C2539.45,1372.21,2511.49,1399.1,2477,1399.1Z"/><rect class="cls-11" x="261.33" y="1461.14" width="2278.11" height="547.36" rx="16.75"/><rect class="cls-11" x="261.33" y="2076.79" width="2278.11" height="235.2" rx="8.36"/><path class="cls-12" d="M2201,1064.14a145.58,145.58,0,0,0-82.9-122L1500.35,648.78a145.73,145.73,0,0,0-125,0L757.58,942.16a145.55,145.55,0,0,0-82.89,122c-58,895.66,516.34,1222,704.6,1304.44a145.89,145.89,0,0,0,117.09,0C1684.63,2286.14,2258.92,1959.8,2201,1064.14Z"/><path class="cls-13" d="M1251,778.43a14.81,14.81,0,0,1-6.37-28.19l146-69.32a14.81,14.81,0,0,1,12.71,26.75l-146,69.32A14.65,14.65,0,0,1,1251,778.43Z"/><path class="cls-13" d="M721.92,1261.86a14.81,14.81,0,0,1-14.79-14.32c-2-58.44-.94-119.37,3.06-181.1a110,110,0,0,1,62.65-92.14L1188.4,776.94a14.81,14.81,0,1,1,12.71,26.75L785.55,1001.06a80.37,80.37,0,0,0-45.81,67.29c-3.93,60.77-4.94,120.72-3,178.2a14.82,14.82,0,0,1-14.3,15.3Z"/><path class="cls-14" d="M2051.6,1099.1a36.42,36.42,0,0,0-20.71-31L1453.41,793.83a36.26,36.26,0,0,0-31.16,0L844.78,1068.09a36.39,36.39,0,0,0-20.71,31C807,1433.21,884.16,1712,1053.6,1928c129.19,164.73,280.31,253,368.86,294.19a36.39,36.39,0,0,0,30.74,0c88.55-41.18,239.67-129.46,368.86-294.19C1991.5,1712,2068.67,1433.21,2051.6,1099.1Z"/><path class="cls-15" d="M1267.09,1458.07h-57.56V1228.71a178.56,178.56,0,0,1,156.87-177.08l117.67-14.3A178.38,178.38,0,0,1,1684,1214.41v200.23h-57.55V1214.41a120.83,120.83,0,0,0-135.4-120l-117.68,14.3a121,121,0,0,0-106.25,120Z"/><path class="cls-16" d="M1192.52,1406.57l504.51-28a35.76,35.76,0,0,1,37.73,35.7V1814a35.74,35.74,0,0,1-35.75,35.75H1206.62a35.75,35.75,0,0,1-35.73-34.58l-12.12-371.73A35.75,35.75,0,0,1,1192.52,1406.57Z"/><path class="cls-17" d="M1529,1735.26l-30.53-87.79a29.4,29.4,0,0,1,6.68-30.31,82.89,82.89,0,0,0,23.87-62.25c-2-42.83-36.94-77.55-79.77-79.19a83.12,83.12,0,0,0-55.62,147.64,29.62,29.62,0,0,1,9.63,32.74l-27.53,79.16a29.61,29.61,0,0,0,28,39.35H1501A29.61,29.61,0,0,0,1529,1735.26Z"/><path class="cls-18" d="M1833.82,1141.78c.4-.15,214.73-375.49,243.69-410.81a22.44,22.44,0,0,1,20-8.06l59.83,7.13,70.27,152-117.08-68.19c11.59,80.13-138.82,199.2-190.41,242.65a11.85,11.85,0,0,0-.93,17.26l20.59,21.56c-33.81,34.27-72.82,56.27-116.85,66.45Z"/><path class="cls-19" d="M1927.91,1083.72s13.14,4.25,17.59,16a13.4,13.4,0,0,1-5,15.44c-21.65,15.5-93,65.56-126,75.37a3.72,3.72,0,0,1-4.66-4.39c1.69-7.66,7.16-22.94,24.78-45.31L1833,1144a4.57,4.57,0,0,0,6.33,6C1861.4,1137.58,1906.28,1110.35,1927.91,1083.72Z"/><path class="cls-20" d="M1917.3,1233.9c.36-.23,32.52-77.7,32.88-77.93,29.48-179.51,101.42-333.25,122.63-373.7a22.47,22.47,0,0,1,18-11.95l60-5.12,99.59,134.67L2122,856.79c27.56,76.12-95.64,223.17-137.36,276.16a11.85,11.85,0,0,0,2.57,17.09l24.54,17c-26.18,40.4-59.93,69.85-101,88.72Z"/><path class="cls-21" d="M1997.69,1158s13.74,1.5,20.46,12.06a13.39,13.39,0,0,1-1.81,16.14c-18,19.56-77.83,83-108.11,99.3a3.73,3.73,0,0,1-5.46-3.36c.11-7.83,2.37-23.91,15.1-49.38l-.9,3.45a4.58,4.58,0,0,0,7.43,4.63C1943.46,1224.2,1981.9,1188.46,1997.69,1158Z"/><path class="cls-22" d="M2431.82,736.84s54.3,80.77,58.76,117.61-15,49.58-71.86,54.28c-169.13,14-252.51-36.71-252.51-36.71-11.57-73.77-19.8-92.54-116.43-132.65,0,0,122.22,9.71,146.81.16S2431.82,736.84,2431.82,736.84Z"/><path class="cls-23" d="M2171.83,313.38s-28.7-29.61,12.81-53.41,73.52,6.23,110.69,47.61c30.44,33.87,87.29,36.2,128.32,47.92,51.67,14.76,89.07,54.3,95,109.71,4.84,45.33-34,77.14-72.66,91.15-118.32,42.89-146.31,57.24-183.43-13.53S2171.83,313.38,2171.83,313.38Z"/><path class="cls-3" d="M2475.65,517.18c7.21-5,13.83-11.68,17.82-18.16,6-9.72,7.85-27.39,7.59-40.69-1.28-65-63.63-88.42-110.42-100.35-14-3.56-28.69-6.76-43.79-9.52a.71.71,0,0,0-.26,1.4c15.07,2.75,29.77,5.94,43.7,9.49,46.34,11.82,108.1,34.94,109.35,99,.26,13.1-1.55,30.47-7.37,39.93-5.38,8.72-15.65,17.79-25.58,22.55a.71.71,0,1,0,.62,1.28A60.1,60.1,0,0,0,2475.65,517.18Z"/><path class="cls-24" d="M2285,726.14s-63.23-60.21-94.36-100.09a84.62,84.62,0,0,1-14.33-76.16c14.21-47.88,39.47-97.46,41.77-105.18,3.53-11.83,74.43-11.34,74.43-11.34S2432,523.92,2486.82,677.31l-61.57,19.17s-36.43-61.12-72.42-100c0,0,62.28,82.28,64.47,116Z"/><path class="cls-25" d="M2164.48,749.91l47.51-51.7L2266.87,713s64,9.91,100.59,0l36.61-9.92,82.75-25.76,13,36.73a22.12,22.12,0,0,1-8.07,25.41c-7.16,5.08-15.55,10.67-20.9,13-10.9,4.77-251,1.51-251,1.51Z"/><path class="cls-26" d="M2243.74,348.12l47.66,88.61c-3.15,19.35-51.87,19.89-59.4,8.34a11.48,11.48,0,0,1-1.49-3.9L2202,382c-1.22-5.77,14.61-25.22,19.82-28l18.94-10.08C2248.05,340,2217.62,339.68,2243.74,348.12Z"/><path class="cls-27" d="M2147.3,327.32s-5.38,29.94,18.15,68,47,36.34,58.87,22.77S2250.49,381.91,2244,344,2155.43,289.14,2147.3,327.32Z"/><path class="cls-28" d="M2150.76,283.29S2131,313,2135.07,325.58s47.09-10.89,57.44-17.42L2287.17,381s-50.69-97.75-76.05-113.92S2150.76,283.29,2150.76,283.29Z"/><path class="cls-3" d="M2139.93,325.77a.69.69,0,0,0,.19-.75c-.17-.52-4.15-12.86,7.91-24a.71.71,0,1,0-1-1c-12.76,11.76-8.33,25.34-8.29,25.48a.72.72,0,0,0,.9.44A.58.58,0,0,0,2139.93,325.77Z"/><path class="cls-29" d="M2230.76,346.74S2211,321.13,2229,315.81s17.29,25.1,16.12,36.41Z"/><path class="cls-30" d="M2321.76,770.37h-.5l-218.55-.24a9.78,9.78,0,1,1,0-19.56l218.55.23a9.79,9.79,0,0,1,.48,19.56Z"/><path class="cls-31" d="M1906.24,571.94h182a34.68,34.68,0,0,1,31.37,19.89l84.15,178.42H1977.58A21.09,21.09,0,0,1,1958,756.92l-65.25-165.11A14.53,14.53,0,0,1,1906.24,571.94Z"/><path class="cls-5" d="M2034.47,663.42c3.94,12.25,1,24.15-6.51,26.58s-16.85-5.54-20.79-17.8-1-24.15,6.51-26.58S2030.52,651.16,2034.47,663.42Z"/><path class="cls-32" d="M579.33,2728.54c-28.36,2.45-77.59,6.43-116.39,8.14-23.33,1-36.76-1.26-44.49-4.35,0,.87,0,1.69.07,2.46a8,8,0,0,0,7.62,7.58,1362.16,1362.16,0,0,0,152.41.15,5.71,5.71,0,0,0,4.65-8.58A47.3,47.3,0,0,0,579.33,2728.54Z"/><path class="cls-33" d="M462.94,2736.68c38.8-1.71,88-5.69,116.39-8.14-27.88-34.21-116.39-57.27-116.39-57.27h-25c-17.19,24.78-19.68,48.38-19.49,61.06C426.18,2735.42,439.61,2737.71,462.94,2736.68Z"/><path class="cls-34" d="M433.73,2630.46l2.34,46.29a10.57,10.57,0,0,0,9,9.94,41,41,0,0,0,18.77-1.55,12.5,12.5,0,0,0,8.41-9.62l8.09-45.06Z"/><path class="cls-35" d="M143.6,2781.94c-12.3-2.22-17.86-10.48-20.19-19.3,0,.08,0,.16,0,.23a22,22,0,0,0,10.77,23.56c10.14,5.55,21.22,6.49,29.83,6a27.58,27.58,0,0,0,22.36-13.33l.07-.12C177.12,2784.94,164.12,2785.64,143.6,2781.94Z"/><path class="cls-36" d="M201.59,2644.72H181c-31.4-.83-51.12,84.77-57.57,117.92,2.33,8.82,7.89,17.08,20.19,19.3,20.52,3.7,33.52,3,42.79-2.93,17-28.85,25.37-71.1,29.42-95.76C220.4,2655.2,201.59,2644.72,201.59,2644.72Z"/><path class="cls-37" d="M183.63,2601.76l-11.45,45.52a12.37,12.37,0,0,0,6.43,14c6.4,3.29,15.42,6.74,23.71,5.74a10.35,10.35,0,0,0,8.42-6.88l16.8-47.91Z"/><path class="cls-38" d="M586.31,2002.11S484,2641.56,485.7,2645.07c0,0-28.25,12.84-59.05,1.64,0,0,9.25-341.83,30.92-472.9,0,0-174.58,305.53-230,457.77,0,0-28.91-3.45-52.85-19.2,0,0,188-549.94,238.13-623.19Z"/><path class="cls-39" d="M461.65,2171.57a4.11,4.11,0,0,0,3.49-1.92l37.3-59.57,26.39-5.31a4.11,4.11,0,0,0-1.62-8.06l-28.13,5.66a4.06,4.06,0,0,0-2.67,1.85l-38.24,61.06a4.11,4.11,0,0,0,3.48,6.29Z"/><path class="cls-40" d="M1055.75,1376s-69,15.22-111,34.61A38.36,38.36,0,0,0,926,1429.44c-12.56,27.51-50.13,96.49-123,129.4,10.49,13.93,27.38,42.9,34.74,91.58,43.76-32.57,81.54-87,99.68-176.16,0,0,13.81,7.51,31-.86,9.1-4.42,19.61-10.69,27.5-15.62a36.11,36.11,0,0,0,16-21.48c3-11.78,1.23-22.14,1.23-33.25l35.48-11S1059.31,1388,1055.75,1376Z"/><path class="cls-41" d="M837.72,1650.42c-7.36-48.68-24.25-77.65-34.74-91.58-45.26,20.45-104.14,27-179.11,1a79.5,79.5,0,0,0-21.43-4.23C562.53,1553.28,431,1549,322.18,1585a84.55,84.55,0,0,0-51,46.44c-29.44,67.56-77.11,221.41,55.21,299.09a328.34,328.34,0,0,1,31.93-60.43c-21.31-35.94-27.62-85,10.2-149,27.57,74.45,40.5,183.08,43.21,231.16a103.48,103.48,0,0,1-8.1,46.24l-.68,1.59a5.47,5.47,0,0,0,3.84,7.47c74.49,16.74,152,12.19,175.11,10.28a9.54,9.54,0,0,0,8.51-7.29c36.23-152.63,36.31-256.74,27.44-322.55C651.72,1695.59,755.33,1711.74,837.72,1650.42Z"/><path class="cls-42" d="M618,1693.2l.55,0a4.11,4.11,0,0,0,3.53-4.62c-8.73-66-26.3-94.29-27-95.46a4.11,4.11,0,0,0-6.94,4.4c.17.28,17.38,28.19,25.85,92.14A4.1,4.1,0,0,0,618,1693.2Z"/><path class="cls-43" d="M434.16,1466.71S426.63,1546.39,420,1570a8.07,8.07,0,0,0,3.8,9.2c11.26,6.43,38.27,16.93,75.21-1.18a16.76,16.76,0,0,0,9.3-15.77l-3.25-77Z"/><path class="cls-44" d="M955.81,1467.12a4.14,4.14,0,0,0,3.19-1.51c9.91-12.2,26.8-31.56,32.67-34.87,5.17-2.93,8.12-6.21,9-10,.77-3.26,0-6.68-2.39-10.17a4.1,4.1,0,0,0-4.22-1.73l-30.13,6a4.07,4.07,0,0,0-1.87.92l-16,13.75a4.11,4.11,0,1,0,5.35,6.23l15.21-13,26-5.21a2.64,2.64,0,0,1,.05,1.34c-.34,1.42-2.14,3.12-5.07,4.78-9.1,5.14-32.39,33.61-35,36.84a4.1,4.1,0,0,0,3.19,6.7Z"/><path class="cls-45" d="M441.28,1984.91,550,1982.54s-94.84-26.81-100.73-19.5c0,0-58.78-38.63-91-93a328.34,328.34,0,0,0-31.93,60.43C355.26,1947.45,393.19,1976.91,441.28,1984.91Z"/><path class="cls-46" d="M438.21,1966.08s-2.24,43.33,54.64,37c30.92-3.42,80.83-32.24,80.83-32.24S443.59,1970.53,438.21,1966.08Z"/><path class="cls-47" d="M460.49,1977.7l.62,0,270.43-.29a12,12,0,1,0,0-24l-270.43.3a12,12,0,0,0-.59,23.93Z"/><path class="cls-48" d="M974.64,1734.77H749.43a43,43,0,0,0-38.83,24.35L606.49,1977.56H886.37a26.09,26.09,0,0,0,24.26-16.32l80.74-202.14A17.82,17.82,0,0,0,974.64,1734.77Z"/><path class="cls-49" d="M816,1846.77c-4.88,15-1.27,29.57,8.06,32.54s20.84-6.78,25.72-21.79,1.28-29.57-8-32.54S820.85,1831.76,816,1846.77Z"/><path class="cls-50" d="M523.21,1356c1,1.63,27.82,125.59,27.82,125.59l-71.11,13.8-42.86-113.71S506.22,1328.8,523.21,1356Z"/><path class="cls-51" d="M462.49,1400.08l17.88,61.62a8.73,8.73,0,0,0,1,2.23c2.65,4.28,12.88,18.32,26.61,7,12.46-10.29,24-19.5,34.21-20.7a9,9,0,0,1,9.82,7c2.43,11.26,7.44,36.75,8.42,59.55a9,9,0,0,1-7.81,9.21c-13.84,1.81-43.13,4.83-67.26,1.74a9,9,0,0,1-7.24-5.63c-5.85-15-23.78-60.41-30.73-72.3-6.53-11.16-24.05-11.86-31.43-11.63a8.77,8.77,0,0,1-6.47-2.53c-6.1-6-17.51-21.07.67-37.3a9,9,0,0,0,.53-12.91c-7-7.37-14.18-20.13-1-34.7,13.39-14.81,29.76-11.4,39.66-7.13a9,9,0,0,0,11-3.36c1.38-2.06,3.68-3.55,7.49-3a8.82,8.82,0,0,0,9.92-8.5c.39-10,4.67-22.32,22.23-26.7,31.16-7.78,48.56,22.88,49.19,45.06s-33.63,28.7-53.41,26.07c-15-2-27.11,12.34-32,19.32A8.9,8.9,0,0,0,462.49,1400.08Z"/><path class="cls-52" d="M454.11,1472.15s-2.75-38.6-18.59-41.38-32.09,9.42-17.47,31.83C436.23,1490.48,454.11,1472.15,454.11,1472.15Z"/></g></g></g></svg>